%
M48
M72
T01C0.0197
T02C0.0400
T03C0.1300
%
T01
X15538Y3201
X16138Y3201
X16138Y3701
X15538Y3701
X15538Y4301
X16138Y4301
X16138Y4801
X15538Y4801
X19038Y7701
X19538Y7701
X20138Y7701
X20638Y7701
X15538Y12801
X16138Y12801
X16138Y12301
X15538Y12301
X15538Y11701
X16138Y11701
X16138Y11201
X15538Y11201
X12638Y8301
X12138Y8301
X11538Y8301
X11038Y8301
X8838Y2001
X11338Y2501
X12338Y2501
X14838Y2001
X19338Y2501
X20338Y2501
X22838Y2001
X20638Y8301
X20138Y8301
X19538Y8301
X19038Y8301
X14838Y10001
X12338Y10501
X11338Y10501
X8838Y10001
X11038Y7701
X11538Y7701
X12138Y7701
X12638Y7701
X12338Y6001
X14838Y6001
X16838Y6001
X20338Y6001
X22838Y6001
X17838Y4501
X9838Y4501
X8838Y6001
X16838Y10001
X19338Y10501
X20338Y10501
X22838Y10001
X17838Y12501
X8838Y14001
X12338Y14001
X14838Y14001
X16838Y14001
X20338Y14001
X22838Y14001
X9838Y12501
X16838Y2001
T02
X14838Y3001
X16838Y3001
X14838Y4001
X16838Y4001
X14838Y5001
X16838Y5001
X14838Y13001
X16838Y13001
X16838Y11001
X8838Y11001
X8838Y12001
X8838Y13001
X22838Y13001
X22838Y12001
X22838Y11001
X22838Y3001
X22838Y4001
X22838Y5001
X8838Y5001
X8838Y4001
X8838Y3001
X14838Y11001
X16838Y12001
X14838Y12001
T03
X9838Y1501
X13838Y1501
X17838Y1501
X13838Y9501
X17838Y9501
X21838Y9501
X9838Y9501
X9838Y6501
X13838Y6501
X17838Y6501
X21838Y6501
X21838Y1501
X9838Y14501
X13838Y14501
X17838Y14501
X21838Y14501
M30
