G75*
G70*
%OFA0B0*%
%FSLAX24Y24*%
%IPPOS*%
%LPD*%
%AMOC8*
5,1,8,0,0,1.08239X$1,22.5*
%
%ADD10C,0.0080*%
%ADD11R,0.0354X0.0276*%
%ADD12C,0.0000*%
D10*
X008338Y000501D02*
X008338Y015501D01*
X023338Y015501D01*
X023338Y000501D01*
X008338Y000501D01*
D11*
X011338Y001245D03*
X012338Y001245D03*
X012338Y001757D03*
X011338Y001757D03*
X019338Y001757D03*
X020338Y001757D03*
X020338Y001245D03*
X019338Y001245D03*
X019338Y006245D03*
X019338Y006757D03*
X020338Y006757D03*
X020338Y006245D03*
X020338Y009245D03*
X019338Y009245D03*
X019338Y009757D03*
X020338Y009757D03*
X012338Y009757D03*
X011338Y009757D03*
X011338Y009245D03*
X012338Y009245D03*
X012338Y006757D03*
X011338Y006757D03*
X011338Y006245D03*
X012338Y006245D03*
X012338Y014245D03*
X011338Y014245D03*
X011338Y014757D03*
X012338Y014757D03*
X019338Y014757D03*
X019338Y014245D03*
X020338Y014245D03*
X020338Y014757D03*
D12*
X021188Y014501D02*
X021190Y014551D01*
X021196Y014601D01*
X021206Y014651D01*
X021219Y014699D01*
X021236Y014747D01*
X021257Y014793D01*
X021281Y014837D01*
X021309Y014879D01*
X021340Y014919D01*
X021374Y014956D01*
X021411Y014991D01*
X021450Y015022D01*
X021491Y015051D01*
X021535Y015076D01*
X021581Y015098D01*
X021628Y015116D01*
X021676Y015130D01*
X021725Y015141D01*
X021775Y015148D01*
X021825Y015151D01*
X021876Y015150D01*
X021926Y015145D01*
X021976Y015136D01*
X022024Y015124D01*
X022072Y015107D01*
X022118Y015087D01*
X022163Y015064D01*
X022206Y015037D01*
X022246Y015007D01*
X022284Y014974D01*
X022319Y014938D01*
X022352Y014899D01*
X022381Y014858D01*
X022407Y014815D01*
X022430Y014770D01*
X022449Y014723D01*
X022464Y014675D01*
X022476Y014626D01*
X022484Y014576D01*
X022488Y014526D01*
X022488Y014476D01*
X022484Y014426D01*
X022476Y014376D01*
X022464Y014327D01*
X022449Y014279D01*
X022430Y014232D01*
X022407Y014187D01*
X022381Y014144D01*
X022352Y014103D01*
X022319Y014064D01*
X022284Y014028D01*
X022246Y013995D01*
X022206Y013965D01*
X022163Y013938D01*
X022118Y013915D01*
X022072Y013895D01*
X022024Y013878D01*
X021976Y013866D01*
X021926Y013857D01*
X021876Y013852D01*
X021825Y013851D01*
X021775Y013854D01*
X021725Y013861D01*
X021676Y013872D01*
X021628Y013886D01*
X021581Y013904D01*
X021535Y013926D01*
X021491Y013951D01*
X021450Y013980D01*
X021411Y014011D01*
X021374Y014046D01*
X021340Y014083D01*
X021309Y014123D01*
X021281Y014165D01*
X021257Y014209D01*
X021236Y014255D01*
X021219Y014303D01*
X021206Y014351D01*
X021196Y014401D01*
X021190Y014451D01*
X021188Y014501D01*
X017188Y014501D02*
X017190Y014551D01*
X017196Y014601D01*
X017206Y014651D01*
X017219Y014699D01*
X017236Y014747D01*
X017257Y014793D01*
X017281Y014837D01*
X017309Y014879D01*
X017340Y014919D01*
X017374Y014956D01*
X017411Y014991D01*
X017450Y015022D01*
X017491Y015051D01*
X017535Y015076D01*
X017581Y015098D01*
X017628Y015116D01*
X017676Y015130D01*
X017725Y015141D01*
X017775Y015148D01*
X017825Y015151D01*
X017876Y015150D01*
X017926Y015145D01*
X017976Y015136D01*
X018024Y015124D01*
X018072Y015107D01*
X018118Y015087D01*
X018163Y015064D01*
X018206Y015037D01*
X018246Y015007D01*
X018284Y014974D01*
X018319Y014938D01*
X018352Y014899D01*
X018381Y014858D01*
X018407Y014815D01*
X018430Y014770D01*
X018449Y014723D01*
X018464Y014675D01*
X018476Y014626D01*
X018484Y014576D01*
X018488Y014526D01*
X018488Y014476D01*
X018484Y014426D01*
X018476Y014376D01*
X018464Y014327D01*
X018449Y014279D01*
X018430Y014232D01*
X018407Y014187D01*
X018381Y014144D01*
X018352Y014103D01*
X018319Y014064D01*
X018284Y014028D01*
X018246Y013995D01*
X018206Y013965D01*
X018163Y013938D01*
X018118Y013915D01*
X018072Y013895D01*
X018024Y013878D01*
X017976Y013866D01*
X017926Y013857D01*
X017876Y013852D01*
X017825Y013851D01*
X017775Y013854D01*
X017725Y013861D01*
X017676Y013872D01*
X017628Y013886D01*
X017581Y013904D01*
X017535Y013926D01*
X017491Y013951D01*
X017450Y013980D01*
X017411Y014011D01*
X017374Y014046D01*
X017340Y014083D01*
X017309Y014123D01*
X017281Y014165D01*
X017257Y014209D01*
X017236Y014255D01*
X017219Y014303D01*
X017206Y014351D01*
X017196Y014401D01*
X017190Y014451D01*
X017188Y014501D01*
X013188Y014501D02*
X013190Y014551D01*
X013196Y014601D01*
X013206Y014651D01*
X013219Y014699D01*
X013236Y014747D01*
X013257Y014793D01*
X013281Y014837D01*
X013309Y014879D01*
X013340Y014919D01*
X013374Y014956D01*
X013411Y014991D01*
X013450Y015022D01*
X013491Y015051D01*
X013535Y015076D01*
X013581Y015098D01*
X013628Y015116D01*
X013676Y015130D01*
X013725Y015141D01*
X013775Y015148D01*
X013825Y015151D01*
X013876Y015150D01*
X013926Y015145D01*
X013976Y015136D01*
X014024Y015124D01*
X014072Y015107D01*
X014118Y015087D01*
X014163Y015064D01*
X014206Y015037D01*
X014246Y015007D01*
X014284Y014974D01*
X014319Y014938D01*
X014352Y014899D01*
X014381Y014858D01*
X014407Y014815D01*
X014430Y014770D01*
X014449Y014723D01*
X014464Y014675D01*
X014476Y014626D01*
X014484Y014576D01*
X014488Y014526D01*
X014488Y014476D01*
X014484Y014426D01*
X014476Y014376D01*
X014464Y014327D01*
X014449Y014279D01*
X014430Y014232D01*
X014407Y014187D01*
X014381Y014144D01*
X014352Y014103D01*
X014319Y014064D01*
X014284Y014028D01*
X014246Y013995D01*
X014206Y013965D01*
X014163Y013938D01*
X014118Y013915D01*
X014072Y013895D01*
X014024Y013878D01*
X013976Y013866D01*
X013926Y013857D01*
X013876Y013852D01*
X013825Y013851D01*
X013775Y013854D01*
X013725Y013861D01*
X013676Y013872D01*
X013628Y013886D01*
X013581Y013904D01*
X013535Y013926D01*
X013491Y013951D01*
X013450Y013980D01*
X013411Y014011D01*
X013374Y014046D01*
X013340Y014083D01*
X013309Y014123D01*
X013281Y014165D01*
X013257Y014209D01*
X013236Y014255D01*
X013219Y014303D01*
X013206Y014351D01*
X013196Y014401D01*
X013190Y014451D01*
X013188Y014501D01*
X009188Y014501D02*
X009190Y014551D01*
X009196Y014601D01*
X009206Y014651D01*
X009219Y014699D01*
X009236Y014747D01*
X009257Y014793D01*
X009281Y014837D01*
X009309Y014879D01*
X009340Y014919D01*
X009374Y014956D01*
X009411Y014991D01*
X009450Y015022D01*
X009491Y015051D01*
X009535Y015076D01*
X009581Y015098D01*
X009628Y015116D01*
X009676Y015130D01*
X009725Y015141D01*
X009775Y015148D01*
X009825Y015151D01*
X009876Y015150D01*
X009926Y015145D01*
X009976Y015136D01*
X010024Y015124D01*
X010072Y015107D01*
X010118Y015087D01*
X010163Y015064D01*
X010206Y015037D01*
X010246Y015007D01*
X010284Y014974D01*
X010319Y014938D01*
X010352Y014899D01*
X010381Y014858D01*
X010407Y014815D01*
X010430Y014770D01*
X010449Y014723D01*
X010464Y014675D01*
X010476Y014626D01*
X010484Y014576D01*
X010488Y014526D01*
X010488Y014476D01*
X010484Y014426D01*
X010476Y014376D01*
X010464Y014327D01*
X010449Y014279D01*
X010430Y014232D01*
X010407Y014187D01*
X010381Y014144D01*
X010352Y014103D01*
X010319Y014064D01*
X010284Y014028D01*
X010246Y013995D01*
X010206Y013965D01*
X010163Y013938D01*
X010118Y013915D01*
X010072Y013895D01*
X010024Y013878D01*
X009976Y013866D01*
X009926Y013857D01*
X009876Y013852D01*
X009825Y013851D01*
X009775Y013854D01*
X009725Y013861D01*
X009676Y013872D01*
X009628Y013886D01*
X009581Y013904D01*
X009535Y013926D01*
X009491Y013951D01*
X009450Y013980D01*
X009411Y014011D01*
X009374Y014046D01*
X009340Y014083D01*
X009309Y014123D01*
X009281Y014165D01*
X009257Y014209D01*
X009236Y014255D01*
X009219Y014303D01*
X009206Y014351D01*
X009196Y014401D01*
X009190Y014451D01*
X009188Y014501D01*
X009188Y009501D02*
X009190Y009551D01*
X009196Y009601D01*
X009206Y009651D01*
X009219Y009699D01*
X009236Y009747D01*
X009257Y009793D01*
X009281Y009837D01*
X009309Y009879D01*
X009340Y009919D01*
X009374Y009956D01*
X009411Y009991D01*
X009450Y010022D01*
X009491Y010051D01*
X009535Y010076D01*
X009581Y010098D01*
X009628Y010116D01*
X009676Y010130D01*
X009725Y010141D01*
X009775Y010148D01*
X009825Y010151D01*
X009876Y010150D01*
X009926Y010145D01*
X009976Y010136D01*
X010024Y010124D01*
X010072Y010107D01*
X010118Y010087D01*
X010163Y010064D01*
X010206Y010037D01*
X010246Y010007D01*
X010284Y009974D01*
X010319Y009938D01*
X010352Y009899D01*
X010381Y009858D01*
X010407Y009815D01*
X010430Y009770D01*
X010449Y009723D01*
X010464Y009675D01*
X010476Y009626D01*
X010484Y009576D01*
X010488Y009526D01*
X010488Y009476D01*
X010484Y009426D01*
X010476Y009376D01*
X010464Y009327D01*
X010449Y009279D01*
X010430Y009232D01*
X010407Y009187D01*
X010381Y009144D01*
X010352Y009103D01*
X010319Y009064D01*
X010284Y009028D01*
X010246Y008995D01*
X010206Y008965D01*
X010163Y008938D01*
X010118Y008915D01*
X010072Y008895D01*
X010024Y008878D01*
X009976Y008866D01*
X009926Y008857D01*
X009876Y008852D01*
X009825Y008851D01*
X009775Y008854D01*
X009725Y008861D01*
X009676Y008872D01*
X009628Y008886D01*
X009581Y008904D01*
X009535Y008926D01*
X009491Y008951D01*
X009450Y008980D01*
X009411Y009011D01*
X009374Y009046D01*
X009340Y009083D01*
X009309Y009123D01*
X009281Y009165D01*
X009257Y009209D01*
X009236Y009255D01*
X009219Y009303D01*
X009206Y009351D01*
X009196Y009401D01*
X009190Y009451D01*
X009188Y009501D01*
X013188Y009501D02*
X013190Y009551D01*
X013196Y009601D01*
X013206Y009651D01*
X013219Y009699D01*
X013236Y009747D01*
X013257Y009793D01*
X013281Y009837D01*
X013309Y009879D01*
X013340Y009919D01*
X013374Y009956D01*
X013411Y009991D01*
X013450Y010022D01*
X013491Y010051D01*
X013535Y010076D01*
X013581Y010098D01*
X013628Y010116D01*
X013676Y010130D01*
X013725Y010141D01*
X013775Y010148D01*
X013825Y010151D01*
X013876Y010150D01*
X013926Y010145D01*
X013976Y010136D01*
X014024Y010124D01*
X014072Y010107D01*
X014118Y010087D01*
X014163Y010064D01*
X014206Y010037D01*
X014246Y010007D01*
X014284Y009974D01*
X014319Y009938D01*
X014352Y009899D01*
X014381Y009858D01*
X014407Y009815D01*
X014430Y009770D01*
X014449Y009723D01*
X014464Y009675D01*
X014476Y009626D01*
X014484Y009576D01*
X014488Y009526D01*
X014488Y009476D01*
X014484Y009426D01*
X014476Y009376D01*
X014464Y009327D01*
X014449Y009279D01*
X014430Y009232D01*
X014407Y009187D01*
X014381Y009144D01*
X014352Y009103D01*
X014319Y009064D01*
X014284Y009028D01*
X014246Y008995D01*
X014206Y008965D01*
X014163Y008938D01*
X014118Y008915D01*
X014072Y008895D01*
X014024Y008878D01*
X013976Y008866D01*
X013926Y008857D01*
X013876Y008852D01*
X013825Y008851D01*
X013775Y008854D01*
X013725Y008861D01*
X013676Y008872D01*
X013628Y008886D01*
X013581Y008904D01*
X013535Y008926D01*
X013491Y008951D01*
X013450Y008980D01*
X013411Y009011D01*
X013374Y009046D01*
X013340Y009083D01*
X013309Y009123D01*
X013281Y009165D01*
X013257Y009209D01*
X013236Y009255D01*
X013219Y009303D01*
X013206Y009351D01*
X013196Y009401D01*
X013190Y009451D01*
X013188Y009501D01*
X017188Y009501D02*
X017190Y009551D01*
X017196Y009601D01*
X017206Y009651D01*
X017219Y009699D01*
X017236Y009747D01*
X017257Y009793D01*
X017281Y009837D01*
X017309Y009879D01*
X017340Y009919D01*
X017374Y009956D01*
X017411Y009991D01*
X017450Y010022D01*
X017491Y010051D01*
X017535Y010076D01*
X017581Y010098D01*
X017628Y010116D01*
X017676Y010130D01*
X017725Y010141D01*
X017775Y010148D01*
X017825Y010151D01*
X017876Y010150D01*
X017926Y010145D01*
X017976Y010136D01*
X018024Y010124D01*
X018072Y010107D01*
X018118Y010087D01*
X018163Y010064D01*
X018206Y010037D01*
X018246Y010007D01*
X018284Y009974D01*
X018319Y009938D01*
X018352Y009899D01*
X018381Y009858D01*
X018407Y009815D01*
X018430Y009770D01*
X018449Y009723D01*
X018464Y009675D01*
X018476Y009626D01*
X018484Y009576D01*
X018488Y009526D01*
X018488Y009476D01*
X018484Y009426D01*
X018476Y009376D01*
X018464Y009327D01*
X018449Y009279D01*
X018430Y009232D01*
X018407Y009187D01*
X018381Y009144D01*
X018352Y009103D01*
X018319Y009064D01*
X018284Y009028D01*
X018246Y008995D01*
X018206Y008965D01*
X018163Y008938D01*
X018118Y008915D01*
X018072Y008895D01*
X018024Y008878D01*
X017976Y008866D01*
X017926Y008857D01*
X017876Y008852D01*
X017825Y008851D01*
X017775Y008854D01*
X017725Y008861D01*
X017676Y008872D01*
X017628Y008886D01*
X017581Y008904D01*
X017535Y008926D01*
X017491Y008951D01*
X017450Y008980D01*
X017411Y009011D01*
X017374Y009046D01*
X017340Y009083D01*
X017309Y009123D01*
X017281Y009165D01*
X017257Y009209D01*
X017236Y009255D01*
X017219Y009303D01*
X017206Y009351D01*
X017196Y009401D01*
X017190Y009451D01*
X017188Y009501D01*
X021188Y009501D02*
X021190Y009551D01*
X021196Y009601D01*
X021206Y009651D01*
X021219Y009699D01*
X021236Y009747D01*
X021257Y009793D01*
X021281Y009837D01*
X021309Y009879D01*
X021340Y009919D01*
X021374Y009956D01*
X021411Y009991D01*
X021450Y010022D01*
X021491Y010051D01*
X021535Y010076D01*
X021581Y010098D01*
X021628Y010116D01*
X021676Y010130D01*
X021725Y010141D01*
X021775Y010148D01*
X021825Y010151D01*
X021876Y010150D01*
X021926Y010145D01*
X021976Y010136D01*
X022024Y010124D01*
X022072Y010107D01*
X022118Y010087D01*
X022163Y010064D01*
X022206Y010037D01*
X022246Y010007D01*
X022284Y009974D01*
X022319Y009938D01*
X022352Y009899D01*
X022381Y009858D01*
X022407Y009815D01*
X022430Y009770D01*
X022449Y009723D01*
X022464Y009675D01*
X022476Y009626D01*
X022484Y009576D01*
X022488Y009526D01*
X022488Y009476D01*
X022484Y009426D01*
X022476Y009376D01*
X022464Y009327D01*
X022449Y009279D01*
X022430Y009232D01*
X022407Y009187D01*
X022381Y009144D01*
X022352Y009103D01*
X022319Y009064D01*
X022284Y009028D01*
X022246Y008995D01*
X022206Y008965D01*
X022163Y008938D01*
X022118Y008915D01*
X022072Y008895D01*
X022024Y008878D01*
X021976Y008866D01*
X021926Y008857D01*
X021876Y008852D01*
X021825Y008851D01*
X021775Y008854D01*
X021725Y008861D01*
X021676Y008872D01*
X021628Y008886D01*
X021581Y008904D01*
X021535Y008926D01*
X021491Y008951D01*
X021450Y008980D01*
X021411Y009011D01*
X021374Y009046D01*
X021340Y009083D01*
X021309Y009123D01*
X021281Y009165D01*
X021257Y009209D01*
X021236Y009255D01*
X021219Y009303D01*
X021206Y009351D01*
X021196Y009401D01*
X021190Y009451D01*
X021188Y009501D01*
X021188Y006501D02*
X021190Y006551D01*
X021196Y006601D01*
X021206Y006651D01*
X021219Y006699D01*
X021236Y006747D01*
X021257Y006793D01*
X021281Y006837D01*
X021309Y006879D01*
X021340Y006919D01*
X021374Y006956D01*
X021411Y006991D01*
X021450Y007022D01*
X021491Y007051D01*
X021535Y007076D01*
X021581Y007098D01*
X021628Y007116D01*
X021676Y007130D01*
X021725Y007141D01*
X021775Y007148D01*
X021825Y007151D01*
X021876Y007150D01*
X021926Y007145D01*
X021976Y007136D01*
X022024Y007124D01*
X022072Y007107D01*
X022118Y007087D01*
X022163Y007064D01*
X022206Y007037D01*
X022246Y007007D01*
X022284Y006974D01*
X022319Y006938D01*
X022352Y006899D01*
X022381Y006858D01*
X022407Y006815D01*
X022430Y006770D01*
X022449Y006723D01*
X022464Y006675D01*
X022476Y006626D01*
X022484Y006576D01*
X022488Y006526D01*
X022488Y006476D01*
X022484Y006426D01*
X022476Y006376D01*
X022464Y006327D01*
X022449Y006279D01*
X022430Y006232D01*
X022407Y006187D01*
X022381Y006144D01*
X022352Y006103D01*
X022319Y006064D01*
X022284Y006028D01*
X022246Y005995D01*
X022206Y005965D01*
X022163Y005938D01*
X022118Y005915D01*
X022072Y005895D01*
X022024Y005878D01*
X021976Y005866D01*
X021926Y005857D01*
X021876Y005852D01*
X021825Y005851D01*
X021775Y005854D01*
X021725Y005861D01*
X021676Y005872D01*
X021628Y005886D01*
X021581Y005904D01*
X021535Y005926D01*
X021491Y005951D01*
X021450Y005980D01*
X021411Y006011D01*
X021374Y006046D01*
X021340Y006083D01*
X021309Y006123D01*
X021281Y006165D01*
X021257Y006209D01*
X021236Y006255D01*
X021219Y006303D01*
X021206Y006351D01*
X021196Y006401D01*
X021190Y006451D01*
X021188Y006501D01*
X017188Y006501D02*
X017190Y006551D01*
X017196Y006601D01*
X017206Y006651D01*
X017219Y006699D01*
X017236Y006747D01*
X017257Y006793D01*
X017281Y006837D01*
X017309Y006879D01*
X017340Y006919D01*
X017374Y006956D01*
X017411Y006991D01*
X017450Y007022D01*
X017491Y007051D01*
X017535Y007076D01*
X017581Y007098D01*
X017628Y007116D01*
X017676Y007130D01*
X017725Y007141D01*
X017775Y007148D01*
X017825Y007151D01*
X017876Y007150D01*
X017926Y007145D01*
X017976Y007136D01*
X018024Y007124D01*
X018072Y007107D01*
X018118Y007087D01*
X018163Y007064D01*
X018206Y007037D01*
X018246Y007007D01*
X018284Y006974D01*
X018319Y006938D01*
X018352Y006899D01*
X018381Y006858D01*
X018407Y006815D01*
X018430Y006770D01*
X018449Y006723D01*
X018464Y006675D01*
X018476Y006626D01*
X018484Y006576D01*
X018488Y006526D01*
X018488Y006476D01*
X018484Y006426D01*
X018476Y006376D01*
X018464Y006327D01*
X018449Y006279D01*
X018430Y006232D01*
X018407Y006187D01*
X018381Y006144D01*
X018352Y006103D01*
X018319Y006064D01*
X018284Y006028D01*
X018246Y005995D01*
X018206Y005965D01*
X018163Y005938D01*
X018118Y005915D01*
X018072Y005895D01*
X018024Y005878D01*
X017976Y005866D01*
X017926Y005857D01*
X017876Y005852D01*
X017825Y005851D01*
X017775Y005854D01*
X017725Y005861D01*
X017676Y005872D01*
X017628Y005886D01*
X017581Y005904D01*
X017535Y005926D01*
X017491Y005951D01*
X017450Y005980D01*
X017411Y006011D01*
X017374Y006046D01*
X017340Y006083D01*
X017309Y006123D01*
X017281Y006165D01*
X017257Y006209D01*
X017236Y006255D01*
X017219Y006303D01*
X017206Y006351D01*
X017196Y006401D01*
X017190Y006451D01*
X017188Y006501D01*
X013188Y006501D02*
X013190Y006551D01*
X013196Y006601D01*
X013206Y006651D01*
X013219Y006699D01*
X013236Y006747D01*
X013257Y006793D01*
X013281Y006837D01*
X013309Y006879D01*
X013340Y006919D01*
X013374Y006956D01*
X013411Y006991D01*
X013450Y007022D01*
X013491Y007051D01*
X013535Y007076D01*
X013581Y007098D01*
X013628Y007116D01*
X013676Y007130D01*
X013725Y007141D01*
X013775Y007148D01*
X013825Y007151D01*
X013876Y007150D01*
X013926Y007145D01*
X013976Y007136D01*
X014024Y007124D01*
X014072Y007107D01*
X014118Y007087D01*
X014163Y007064D01*
X014206Y007037D01*
X014246Y007007D01*
X014284Y006974D01*
X014319Y006938D01*
X014352Y006899D01*
X014381Y006858D01*
X014407Y006815D01*
X014430Y006770D01*
X014449Y006723D01*
X014464Y006675D01*
X014476Y006626D01*
X014484Y006576D01*
X014488Y006526D01*
X014488Y006476D01*
X014484Y006426D01*
X014476Y006376D01*
X014464Y006327D01*
X014449Y006279D01*
X014430Y006232D01*
X014407Y006187D01*
X014381Y006144D01*
X014352Y006103D01*
X014319Y006064D01*
X014284Y006028D01*
X014246Y005995D01*
X014206Y005965D01*
X014163Y005938D01*
X014118Y005915D01*
X014072Y005895D01*
X014024Y005878D01*
X013976Y005866D01*
X013926Y005857D01*
X013876Y005852D01*
X013825Y005851D01*
X013775Y005854D01*
X013725Y005861D01*
X013676Y005872D01*
X013628Y005886D01*
X013581Y005904D01*
X013535Y005926D01*
X013491Y005951D01*
X013450Y005980D01*
X013411Y006011D01*
X013374Y006046D01*
X013340Y006083D01*
X013309Y006123D01*
X013281Y006165D01*
X013257Y006209D01*
X013236Y006255D01*
X013219Y006303D01*
X013206Y006351D01*
X013196Y006401D01*
X013190Y006451D01*
X013188Y006501D01*
X009188Y006501D02*
X009190Y006551D01*
X009196Y006601D01*
X009206Y006651D01*
X009219Y006699D01*
X009236Y006747D01*
X009257Y006793D01*
X009281Y006837D01*
X009309Y006879D01*
X009340Y006919D01*
X009374Y006956D01*
X009411Y006991D01*
X009450Y007022D01*
X009491Y007051D01*
X009535Y007076D01*
X009581Y007098D01*
X009628Y007116D01*
X009676Y007130D01*
X009725Y007141D01*
X009775Y007148D01*
X009825Y007151D01*
X009876Y007150D01*
X009926Y007145D01*
X009976Y007136D01*
X010024Y007124D01*
X010072Y007107D01*
X010118Y007087D01*
X010163Y007064D01*
X010206Y007037D01*
X010246Y007007D01*
X010284Y006974D01*
X010319Y006938D01*
X010352Y006899D01*
X010381Y006858D01*
X010407Y006815D01*
X010430Y006770D01*
X010449Y006723D01*
X010464Y006675D01*
X010476Y006626D01*
X010484Y006576D01*
X010488Y006526D01*
X010488Y006476D01*
X010484Y006426D01*
X010476Y006376D01*
X010464Y006327D01*
X010449Y006279D01*
X010430Y006232D01*
X010407Y006187D01*
X010381Y006144D01*
X010352Y006103D01*
X010319Y006064D01*
X010284Y006028D01*
X010246Y005995D01*
X010206Y005965D01*
X010163Y005938D01*
X010118Y005915D01*
X010072Y005895D01*
X010024Y005878D01*
X009976Y005866D01*
X009926Y005857D01*
X009876Y005852D01*
X009825Y005851D01*
X009775Y005854D01*
X009725Y005861D01*
X009676Y005872D01*
X009628Y005886D01*
X009581Y005904D01*
X009535Y005926D01*
X009491Y005951D01*
X009450Y005980D01*
X009411Y006011D01*
X009374Y006046D01*
X009340Y006083D01*
X009309Y006123D01*
X009281Y006165D01*
X009257Y006209D01*
X009236Y006255D01*
X009219Y006303D01*
X009206Y006351D01*
X009196Y006401D01*
X009190Y006451D01*
X009188Y006501D01*
X009188Y001501D02*
X009190Y001551D01*
X009196Y001601D01*
X009206Y001651D01*
X009219Y001699D01*
X009236Y001747D01*
X009257Y001793D01*
X009281Y001837D01*
X009309Y001879D01*
X009340Y001919D01*
X009374Y001956D01*
X009411Y001991D01*
X009450Y002022D01*
X009491Y002051D01*
X009535Y002076D01*
X009581Y002098D01*
X009628Y002116D01*
X009676Y002130D01*
X009725Y002141D01*
X009775Y002148D01*
X009825Y002151D01*
X009876Y002150D01*
X009926Y002145D01*
X009976Y002136D01*
X010024Y002124D01*
X010072Y002107D01*
X010118Y002087D01*
X010163Y002064D01*
X010206Y002037D01*
X010246Y002007D01*
X010284Y001974D01*
X010319Y001938D01*
X010352Y001899D01*
X010381Y001858D01*
X010407Y001815D01*
X010430Y001770D01*
X010449Y001723D01*
X010464Y001675D01*
X010476Y001626D01*
X010484Y001576D01*
X010488Y001526D01*
X010488Y001476D01*
X010484Y001426D01*
X010476Y001376D01*
X010464Y001327D01*
X010449Y001279D01*
X010430Y001232D01*
X010407Y001187D01*
X010381Y001144D01*
X010352Y001103D01*
X010319Y001064D01*
X010284Y001028D01*
X010246Y000995D01*
X010206Y000965D01*
X010163Y000938D01*
X010118Y000915D01*
X010072Y000895D01*
X010024Y000878D01*
X009976Y000866D01*
X009926Y000857D01*
X009876Y000852D01*
X009825Y000851D01*
X009775Y000854D01*
X009725Y000861D01*
X009676Y000872D01*
X009628Y000886D01*
X009581Y000904D01*
X009535Y000926D01*
X009491Y000951D01*
X009450Y000980D01*
X009411Y001011D01*
X009374Y001046D01*
X009340Y001083D01*
X009309Y001123D01*
X009281Y001165D01*
X009257Y001209D01*
X009236Y001255D01*
X009219Y001303D01*
X009206Y001351D01*
X009196Y001401D01*
X009190Y001451D01*
X009188Y001501D01*
X013188Y001501D02*
X013190Y001551D01*
X013196Y001601D01*
X013206Y001651D01*
X013219Y001699D01*
X013236Y001747D01*
X013257Y001793D01*
X013281Y001837D01*
X013309Y001879D01*
X013340Y001919D01*
X013374Y001956D01*
X013411Y001991D01*
X013450Y002022D01*
X013491Y002051D01*
X013535Y002076D01*
X013581Y002098D01*
X013628Y002116D01*
X013676Y002130D01*
X013725Y002141D01*
X013775Y002148D01*
X013825Y002151D01*
X013876Y002150D01*
X013926Y002145D01*
X013976Y002136D01*
X014024Y002124D01*
X014072Y002107D01*
X014118Y002087D01*
X014163Y002064D01*
X014206Y002037D01*
X014246Y002007D01*
X014284Y001974D01*
X014319Y001938D01*
X014352Y001899D01*
X014381Y001858D01*
X014407Y001815D01*
X014430Y001770D01*
X014449Y001723D01*
X014464Y001675D01*
X014476Y001626D01*
X014484Y001576D01*
X014488Y001526D01*
X014488Y001476D01*
X014484Y001426D01*
X014476Y001376D01*
X014464Y001327D01*
X014449Y001279D01*
X014430Y001232D01*
X014407Y001187D01*
X014381Y001144D01*
X014352Y001103D01*
X014319Y001064D01*
X014284Y001028D01*
X014246Y000995D01*
X014206Y000965D01*
X014163Y000938D01*
X014118Y000915D01*
X014072Y000895D01*
X014024Y000878D01*
X013976Y000866D01*
X013926Y000857D01*
X013876Y000852D01*
X013825Y000851D01*
X013775Y000854D01*
X013725Y000861D01*
X013676Y000872D01*
X013628Y000886D01*
X013581Y000904D01*
X013535Y000926D01*
X013491Y000951D01*
X013450Y000980D01*
X013411Y001011D01*
X013374Y001046D01*
X013340Y001083D01*
X013309Y001123D01*
X013281Y001165D01*
X013257Y001209D01*
X013236Y001255D01*
X013219Y001303D01*
X013206Y001351D01*
X013196Y001401D01*
X013190Y001451D01*
X013188Y001501D01*
X017188Y001501D02*
X017190Y001551D01*
X017196Y001601D01*
X017206Y001651D01*
X017219Y001699D01*
X017236Y001747D01*
X017257Y001793D01*
X017281Y001837D01*
X017309Y001879D01*
X017340Y001919D01*
X017374Y001956D01*
X017411Y001991D01*
X017450Y002022D01*
X017491Y002051D01*
X017535Y002076D01*
X017581Y002098D01*
X017628Y002116D01*
X017676Y002130D01*
X017725Y002141D01*
X017775Y002148D01*
X017825Y002151D01*
X017876Y002150D01*
X017926Y002145D01*
X017976Y002136D01*
X018024Y002124D01*
X018072Y002107D01*
X018118Y002087D01*
X018163Y002064D01*
X018206Y002037D01*
X018246Y002007D01*
X018284Y001974D01*
X018319Y001938D01*
X018352Y001899D01*
X018381Y001858D01*
X018407Y001815D01*
X018430Y001770D01*
X018449Y001723D01*
X018464Y001675D01*
X018476Y001626D01*
X018484Y001576D01*
X018488Y001526D01*
X018488Y001476D01*
X018484Y001426D01*
X018476Y001376D01*
X018464Y001327D01*
X018449Y001279D01*
X018430Y001232D01*
X018407Y001187D01*
X018381Y001144D01*
X018352Y001103D01*
X018319Y001064D01*
X018284Y001028D01*
X018246Y000995D01*
X018206Y000965D01*
X018163Y000938D01*
X018118Y000915D01*
X018072Y000895D01*
X018024Y000878D01*
X017976Y000866D01*
X017926Y000857D01*
X017876Y000852D01*
X017825Y000851D01*
X017775Y000854D01*
X017725Y000861D01*
X017676Y000872D01*
X017628Y000886D01*
X017581Y000904D01*
X017535Y000926D01*
X017491Y000951D01*
X017450Y000980D01*
X017411Y001011D01*
X017374Y001046D01*
X017340Y001083D01*
X017309Y001123D01*
X017281Y001165D01*
X017257Y001209D01*
X017236Y001255D01*
X017219Y001303D01*
X017206Y001351D01*
X017196Y001401D01*
X017190Y001451D01*
X017188Y001501D01*
X021188Y001501D02*
X021190Y001551D01*
X021196Y001601D01*
X021206Y001651D01*
X021219Y001699D01*
X021236Y001747D01*
X021257Y001793D01*
X021281Y001837D01*
X021309Y001879D01*
X021340Y001919D01*
X021374Y001956D01*
X021411Y001991D01*
X021450Y002022D01*
X021491Y002051D01*
X021535Y002076D01*
X021581Y002098D01*
X021628Y002116D01*
X021676Y002130D01*
X021725Y002141D01*
X021775Y002148D01*
X021825Y002151D01*
X021876Y002150D01*
X021926Y002145D01*
X021976Y002136D01*
X022024Y002124D01*
X022072Y002107D01*
X022118Y002087D01*
X022163Y002064D01*
X022206Y002037D01*
X022246Y002007D01*
X022284Y001974D01*
X022319Y001938D01*
X022352Y001899D01*
X022381Y001858D01*
X022407Y001815D01*
X022430Y001770D01*
X022449Y001723D01*
X022464Y001675D01*
X022476Y001626D01*
X022484Y001576D01*
X022488Y001526D01*
X022488Y001476D01*
X022484Y001426D01*
X022476Y001376D01*
X022464Y001327D01*
X022449Y001279D01*
X022430Y001232D01*
X022407Y001187D01*
X022381Y001144D01*
X022352Y001103D01*
X022319Y001064D01*
X022284Y001028D01*
X022246Y000995D01*
X022206Y000965D01*
X022163Y000938D01*
X022118Y000915D01*
X022072Y000895D01*
X022024Y000878D01*
X021976Y000866D01*
X021926Y000857D01*
X021876Y000852D01*
X021825Y000851D01*
X021775Y000854D01*
X021725Y000861D01*
X021676Y000872D01*
X021628Y000886D01*
X021581Y000904D01*
X021535Y000926D01*
X021491Y000951D01*
X021450Y000980D01*
X021411Y001011D01*
X021374Y001046D01*
X021340Y001083D01*
X021309Y001123D01*
X021281Y001165D01*
X021257Y001209D01*
X021236Y001255D01*
X021219Y001303D01*
X021206Y001351D01*
X021196Y001401D01*
X021190Y001451D01*
X021188Y001501D01*
M02*
