G75*
G70*
%OFA0B0*%
%FSLAX24Y24*%
%IPPOS*%
%LPD*%
%AMOC8*
5,1,8,0,0,1.08239X$1,22.5*
%
%ADD10C,0.0080*%
%ADD11C,0.0000*%
%ADD12C,0.0394*%
%ADD13R,0.0551X0.0787*%
%ADD14R,0.0394X0.0787*%
%ADD15C,0.0740*%
%ADD16C,0.0160*%
%ADD17C,0.0397*%
%ADD18C,0.0100*%
D10*
X008338Y000501D02*
X008338Y015501D01*
X023338Y015501D01*
X023338Y000501D01*
X008338Y000501D01*
D11*
X009188Y001501D02*
X009190Y001551D01*
X009196Y001601D01*
X009206Y001651D01*
X009219Y001699D01*
X009236Y001747D01*
X009257Y001793D01*
X009281Y001837D01*
X009309Y001879D01*
X009340Y001919D01*
X009374Y001956D01*
X009411Y001991D01*
X009450Y002022D01*
X009491Y002051D01*
X009535Y002076D01*
X009581Y002098D01*
X009628Y002116D01*
X009676Y002130D01*
X009725Y002141D01*
X009775Y002148D01*
X009825Y002151D01*
X009876Y002150D01*
X009926Y002145D01*
X009976Y002136D01*
X010024Y002124D01*
X010072Y002107D01*
X010118Y002087D01*
X010163Y002064D01*
X010206Y002037D01*
X010246Y002007D01*
X010284Y001974D01*
X010319Y001938D01*
X010352Y001899D01*
X010381Y001858D01*
X010407Y001815D01*
X010430Y001770D01*
X010449Y001723D01*
X010464Y001675D01*
X010476Y001626D01*
X010484Y001576D01*
X010488Y001526D01*
X010488Y001476D01*
X010484Y001426D01*
X010476Y001376D01*
X010464Y001327D01*
X010449Y001279D01*
X010430Y001232D01*
X010407Y001187D01*
X010381Y001144D01*
X010352Y001103D01*
X010319Y001064D01*
X010284Y001028D01*
X010246Y000995D01*
X010206Y000965D01*
X010163Y000938D01*
X010118Y000915D01*
X010072Y000895D01*
X010024Y000878D01*
X009976Y000866D01*
X009926Y000857D01*
X009876Y000852D01*
X009825Y000851D01*
X009775Y000854D01*
X009725Y000861D01*
X009676Y000872D01*
X009628Y000886D01*
X009581Y000904D01*
X009535Y000926D01*
X009491Y000951D01*
X009450Y000980D01*
X009411Y001011D01*
X009374Y001046D01*
X009340Y001083D01*
X009309Y001123D01*
X009281Y001165D01*
X009257Y001209D01*
X009236Y001255D01*
X009219Y001303D01*
X009206Y001351D01*
X009196Y001401D01*
X009190Y001451D01*
X009188Y001501D01*
X013188Y001501D02*
X013190Y001551D01*
X013196Y001601D01*
X013206Y001651D01*
X013219Y001699D01*
X013236Y001747D01*
X013257Y001793D01*
X013281Y001837D01*
X013309Y001879D01*
X013340Y001919D01*
X013374Y001956D01*
X013411Y001991D01*
X013450Y002022D01*
X013491Y002051D01*
X013535Y002076D01*
X013581Y002098D01*
X013628Y002116D01*
X013676Y002130D01*
X013725Y002141D01*
X013775Y002148D01*
X013825Y002151D01*
X013876Y002150D01*
X013926Y002145D01*
X013976Y002136D01*
X014024Y002124D01*
X014072Y002107D01*
X014118Y002087D01*
X014163Y002064D01*
X014206Y002037D01*
X014246Y002007D01*
X014284Y001974D01*
X014319Y001938D01*
X014352Y001899D01*
X014381Y001858D01*
X014407Y001815D01*
X014430Y001770D01*
X014449Y001723D01*
X014464Y001675D01*
X014476Y001626D01*
X014484Y001576D01*
X014488Y001526D01*
X014488Y001476D01*
X014484Y001426D01*
X014476Y001376D01*
X014464Y001327D01*
X014449Y001279D01*
X014430Y001232D01*
X014407Y001187D01*
X014381Y001144D01*
X014352Y001103D01*
X014319Y001064D01*
X014284Y001028D01*
X014246Y000995D01*
X014206Y000965D01*
X014163Y000938D01*
X014118Y000915D01*
X014072Y000895D01*
X014024Y000878D01*
X013976Y000866D01*
X013926Y000857D01*
X013876Y000852D01*
X013825Y000851D01*
X013775Y000854D01*
X013725Y000861D01*
X013676Y000872D01*
X013628Y000886D01*
X013581Y000904D01*
X013535Y000926D01*
X013491Y000951D01*
X013450Y000980D01*
X013411Y001011D01*
X013374Y001046D01*
X013340Y001083D01*
X013309Y001123D01*
X013281Y001165D01*
X013257Y001209D01*
X013236Y001255D01*
X013219Y001303D01*
X013206Y001351D01*
X013196Y001401D01*
X013190Y001451D01*
X013188Y001501D01*
X017188Y001501D02*
X017190Y001551D01*
X017196Y001601D01*
X017206Y001651D01*
X017219Y001699D01*
X017236Y001747D01*
X017257Y001793D01*
X017281Y001837D01*
X017309Y001879D01*
X017340Y001919D01*
X017374Y001956D01*
X017411Y001991D01*
X017450Y002022D01*
X017491Y002051D01*
X017535Y002076D01*
X017581Y002098D01*
X017628Y002116D01*
X017676Y002130D01*
X017725Y002141D01*
X017775Y002148D01*
X017825Y002151D01*
X017876Y002150D01*
X017926Y002145D01*
X017976Y002136D01*
X018024Y002124D01*
X018072Y002107D01*
X018118Y002087D01*
X018163Y002064D01*
X018206Y002037D01*
X018246Y002007D01*
X018284Y001974D01*
X018319Y001938D01*
X018352Y001899D01*
X018381Y001858D01*
X018407Y001815D01*
X018430Y001770D01*
X018449Y001723D01*
X018464Y001675D01*
X018476Y001626D01*
X018484Y001576D01*
X018488Y001526D01*
X018488Y001476D01*
X018484Y001426D01*
X018476Y001376D01*
X018464Y001327D01*
X018449Y001279D01*
X018430Y001232D01*
X018407Y001187D01*
X018381Y001144D01*
X018352Y001103D01*
X018319Y001064D01*
X018284Y001028D01*
X018246Y000995D01*
X018206Y000965D01*
X018163Y000938D01*
X018118Y000915D01*
X018072Y000895D01*
X018024Y000878D01*
X017976Y000866D01*
X017926Y000857D01*
X017876Y000852D01*
X017825Y000851D01*
X017775Y000854D01*
X017725Y000861D01*
X017676Y000872D01*
X017628Y000886D01*
X017581Y000904D01*
X017535Y000926D01*
X017491Y000951D01*
X017450Y000980D01*
X017411Y001011D01*
X017374Y001046D01*
X017340Y001083D01*
X017309Y001123D01*
X017281Y001165D01*
X017257Y001209D01*
X017236Y001255D01*
X017219Y001303D01*
X017206Y001351D01*
X017196Y001401D01*
X017190Y001451D01*
X017188Y001501D01*
X021188Y001501D02*
X021190Y001551D01*
X021196Y001601D01*
X021206Y001651D01*
X021219Y001699D01*
X021236Y001747D01*
X021257Y001793D01*
X021281Y001837D01*
X021309Y001879D01*
X021340Y001919D01*
X021374Y001956D01*
X021411Y001991D01*
X021450Y002022D01*
X021491Y002051D01*
X021535Y002076D01*
X021581Y002098D01*
X021628Y002116D01*
X021676Y002130D01*
X021725Y002141D01*
X021775Y002148D01*
X021825Y002151D01*
X021876Y002150D01*
X021926Y002145D01*
X021976Y002136D01*
X022024Y002124D01*
X022072Y002107D01*
X022118Y002087D01*
X022163Y002064D01*
X022206Y002037D01*
X022246Y002007D01*
X022284Y001974D01*
X022319Y001938D01*
X022352Y001899D01*
X022381Y001858D01*
X022407Y001815D01*
X022430Y001770D01*
X022449Y001723D01*
X022464Y001675D01*
X022476Y001626D01*
X022484Y001576D01*
X022488Y001526D01*
X022488Y001476D01*
X022484Y001426D01*
X022476Y001376D01*
X022464Y001327D01*
X022449Y001279D01*
X022430Y001232D01*
X022407Y001187D01*
X022381Y001144D01*
X022352Y001103D01*
X022319Y001064D01*
X022284Y001028D01*
X022246Y000995D01*
X022206Y000965D01*
X022163Y000938D01*
X022118Y000915D01*
X022072Y000895D01*
X022024Y000878D01*
X021976Y000866D01*
X021926Y000857D01*
X021876Y000852D01*
X021825Y000851D01*
X021775Y000854D01*
X021725Y000861D01*
X021676Y000872D01*
X021628Y000886D01*
X021581Y000904D01*
X021535Y000926D01*
X021491Y000951D01*
X021450Y000980D01*
X021411Y001011D01*
X021374Y001046D01*
X021340Y001083D01*
X021309Y001123D01*
X021281Y001165D01*
X021257Y001209D01*
X021236Y001255D01*
X021219Y001303D01*
X021206Y001351D01*
X021196Y001401D01*
X021190Y001451D01*
X021188Y001501D01*
X021188Y006501D02*
X021190Y006551D01*
X021196Y006601D01*
X021206Y006651D01*
X021219Y006699D01*
X021236Y006747D01*
X021257Y006793D01*
X021281Y006837D01*
X021309Y006879D01*
X021340Y006919D01*
X021374Y006956D01*
X021411Y006991D01*
X021450Y007022D01*
X021491Y007051D01*
X021535Y007076D01*
X021581Y007098D01*
X021628Y007116D01*
X021676Y007130D01*
X021725Y007141D01*
X021775Y007148D01*
X021825Y007151D01*
X021876Y007150D01*
X021926Y007145D01*
X021976Y007136D01*
X022024Y007124D01*
X022072Y007107D01*
X022118Y007087D01*
X022163Y007064D01*
X022206Y007037D01*
X022246Y007007D01*
X022284Y006974D01*
X022319Y006938D01*
X022352Y006899D01*
X022381Y006858D01*
X022407Y006815D01*
X022430Y006770D01*
X022449Y006723D01*
X022464Y006675D01*
X022476Y006626D01*
X022484Y006576D01*
X022488Y006526D01*
X022488Y006476D01*
X022484Y006426D01*
X022476Y006376D01*
X022464Y006327D01*
X022449Y006279D01*
X022430Y006232D01*
X022407Y006187D01*
X022381Y006144D01*
X022352Y006103D01*
X022319Y006064D01*
X022284Y006028D01*
X022246Y005995D01*
X022206Y005965D01*
X022163Y005938D01*
X022118Y005915D01*
X022072Y005895D01*
X022024Y005878D01*
X021976Y005866D01*
X021926Y005857D01*
X021876Y005852D01*
X021825Y005851D01*
X021775Y005854D01*
X021725Y005861D01*
X021676Y005872D01*
X021628Y005886D01*
X021581Y005904D01*
X021535Y005926D01*
X021491Y005951D01*
X021450Y005980D01*
X021411Y006011D01*
X021374Y006046D01*
X021340Y006083D01*
X021309Y006123D01*
X021281Y006165D01*
X021257Y006209D01*
X021236Y006255D01*
X021219Y006303D01*
X021206Y006351D01*
X021196Y006401D01*
X021190Y006451D01*
X021188Y006501D01*
X017188Y006501D02*
X017190Y006551D01*
X017196Y006601D01*
X017206Y006651D01*
X017219Y006699D01*
X017236Y006747D01*
X017257Y006793D01*
X017281Y006837D01*
X017309Y006879D01*
X017340Y006919D01*
X017374Y006956D01*
X017411Y006991D01*
X017450Y007022D01*
X017491Y007051D01*
X017535Y007076D01*
X017581Y007098D01*
X017628Y007116D01*
X017676Y007130D01*
X017725Y007141D01*
X017775Y007148D01*
X017825Y007151D01*
X017876Y007150D01*
X017926Y007145D01*
X017976Y007136D01*
X018024Y007124D01*
X018072Y007107D01*
X018118Y007087D01*
X018163Y007064D01*
X018206Y007037D01*
X018246Y007007D01*
X018284Y006974D01*
X018319Y006938D01*
X018352Y006899D01*
X018381Y006858D01*
X018407Y006815D01*
X018430Y006770D01*
X018449Y006723D01*
X018464Y006675D01*
X018476Y006626D01*
X018484Y006576D01*
X018488Y006526D01*
X018488Y006476D01*
X018484Y006426D01*
X018476Y006376D01*
X018464Y006327D01*
X018449Y006279D01*
X018430Y006232D01*
X018407Y006187D01*
X018381Y006144D01*
X018352Y006103D01*
X018319Y006064D01*
X018284Y006028D01*
X018246Y005995D01*
X018206Y005965D01*
X018163Y005938D01*
X018118Y005915D01*
X018072Y005895D01*
X018024Y005878D01*
X017976Y005866D01*
X017926Y005857D01*
X017876Y005852D01*
X017825Y005851D01*
X017775Y005854D01*
X017725Y005861D01*
X017676Y005872D01*
X017628Y005886D01*
X017581Y005904D01*
X017535Y005926D01*
X017491Y005951D01*
X017450Y005980D01*
X017411Y006011D01*
X017374Y006046D01*
X017340Y006083D01*
X017309Y006123D01*
X017281Y006165D01*
X017257Y006209D01*
X017236Y006255D01*
X017219Y006303D01*
X017206Y006351D01*
X017196Y006401D01*
X017190Y006451D01*
X017188Y006501D01*
X013188Y006501D02*
X013190Y006551D01*
X013196Y006601D01*
X013206Y006651D01*
X013219Y006699D01*
X013236Y006747D01*
X013257Y006793D01*
X013281Y006837D01*
X013309Y006879D01*
X013340Y006919D01*
X013374Y006956D01*
X013411Y006991D01*
X013450Y007022D01*
X013491Y007051D01*
X013535Y007076D01*
X013581Y007098D01*
X013628Y007116D01*
X013676Y007130D01*
X013725Y007141D01*
X013775Y007148D01*
X013825Y007151D01*
X013876Y007150D01*
X013926Y007145D01*
X013976Y007136D01*
X014024Y007124D01*
X014072Y007107D01*
X014118Y007087D01*
X014163Y007064D01*
X014206Y007037D01*
X014246Y007007D01*
X014284Y006974D01*
X014319Y006938D01*
X014352Y006899D01*
X014381Y006858D01*
X014407Y006815D01*
X014430Y006770D01*
X014449Y006723D01*
X014464Y006675D01*
X014476Y006626D01*
X014484Y006576D01*
X014488Y006526D01*
X014488Y006476D01*
X014484Y006426D01*
X014476Y006376D01*
X014464Y006327D01*
X014449Y006279D01*
X014430Y006232D01*
X014407Y006187D01*
X014381Y006144D01*
X014352Y006103D01*
X014319Y006064D01*
X014284Y006028D01*
X014246Y005995D01*
X014206Y005965D01*
X014163Y005938D01*
X014118Y005915D01*
X014072Y005895D01*
X014024Y005878D01*
X013976Y005866D01*
X013926Y005857D01*
X013876Y005852D01*
X013825Y005851D01*
X013775Y005854D01*
X013725Y005861D01*
X013676Y005872D01*
X013628Y005886D01*
X013581Y005904D01*
X013535Y005926D01*
X013491Y005951D01*
X013450Y005980D01*
X013411Y006011D01*
X013374Y006046D01*
X013340Y006083D01*
X013309Y006123D01*
X013281Y006165D01*
X013257Y006209D01*
X013236Y006255D01*
X013219Y006303D01*
X013206Y006351D01*
X013196Y006401D01*
X013190Y006451D01*
X013188Y006501D01*
X009188Y006501D02*
X009190Y006551D01*
X009196Y006601D01*
X009206Y006651D01*
X009219Y006699D01*
X009236Y006747D01*
X009257Y006793D01*
X009281Y006837D01*
X009309Y006879D01*
X009340Y006919D01*
X009374Y006956D01*
X009411Y006991D01*
X009450Y007022D01*
X009491Y007051D01*
X009535Y007076D01*
X009581Y007098D01*
X009628Y007116D01*
X009676Y007130D01*
X009725Y007141D01*
X009775Y007148D01*
X009825Y007151D01*
X009876Y007150D01*
X009926Y007145D01*
X009976Y007136D01*
X010024Y007124D01*
X010072Y007107D01*
X010118Y007087D01*
X010163Y007064D01*
X010206Y007037D01*
X010246Y007007D01*
X010284Y006974D01*
X010319Y006938D01*
X010352Y006899D01*
X010381Y006858D01*
X010407Y006815D01*
X010430Y006770D01*
X010449Y006723D01*
X010464Y006675D01*
X010476Y006626D01*
X010484Y006576D01*
X010488Y006526D01*
X010488Y006476D01*
X010484Y006426D01*
X010476Y006376D01*
X010464Y006327D01*
X010449Y006279D01*
X010430Y006232D01*
X010407Y006187D01*
X010381Y006144D01*
X010352Y006103D01*
X010319Y006064D01*
X010284Y006028D01*
X010246Y005995D01*
X010206Y005965D01*
X010163Y005938D01*
X010118Y005915D01*
X010072Y005895D01*
X010024Y005878D01*
X009976Y005866D01*
X009926Y005857D01*
X009876Y005852D01*
X009825Y005851D01*
X009775Y005854D01*
X009725Y005861D01*
X009676Y005872D01*
X009628Y005886D01*
X009581Y005904D01*
X009535Y005926D01*
X009491Y005951D01*
X009450Y005980D01*
X009411Y006011D01*
X009374Y006046D01*
X009340Y006083D01*
X009309Y006123D01*
X009281Y006165D01*
X009257Y006209D01*
X009236Y006255D01*
X009219Y006303D01*
X009206Y006351D01*
X009196Y006401D01*
X009190Y006451D01*
X009188Y006501D01*
X009188Y009501D02*
X009190Y009551D01*
X009196Y009601D01*
X009206Y009651D01*
X009219Y009699D01*
X009236Y009747D01*
X009257Y009793D01*
X009281Y009837D01*
X009309Y009879D01*
X009340Y009919D01*
X009374Y009956D01*
X009411Y009991D01*
X009450Y010022D01*
X009491Y010051D01*
X009535Y010076D01*
X009581Y010098D01*
X009628Y010116D01*
X009676Y010130D01*
X009725Y010141D01*
X009775Y010148D01*
X009825Y010151D01*
X009876Y010150D01*
X009926Y010145D01*
X009976Y010136D01*
X010024Y010124D01*
X010072Y010107D01*
X010118Y010087D01*
X010163Y010064D01*
X010206Y010037D01*
X010246Y010007D01*
X010284Y009974D01*
X010319Y009938D01*
X010352Y009899D01*
X010381Y009858D01*
X010407Y009815D01*
X010430Y009770D01*
X010449Y009723D01*
X010464Y009675D01*
X010476Y009626D01*
X010484Y009576D01*
X010488Y009526D01*
X010488Y009476D01*
X010484Y009426D01*
X010476Y009376D01*
X010464Y009327D01*
X010449Y009279D01*
X010430Y009232D01*
X010407Y009187D01*
X010381Y009144D01*
X010352Y009103D01*
X010319Y009064D01*
X010284Y009028D01*
X010246Y008995D01*
X010206Y008965D01*
X010163Y008938D01*
X010118Y008915D01*
X010072Y008895D01*
X010024Y008878D01*
X009976Y008866D01*
X009926Y008857D01*
X009876Y008852D01*
X009825Y008851D01*
X009775Y008854D01*
X009725Y008861D01*
X009676Y008872D01*
X009628Y008886D01*
X009581Y008904D01*
X009535Y008926D01*
X009491Y008951D01*
X009450Y008980D01*
X009411Y009011D01*
X009374Y009046D01*
X009340Y009083D01*
X009309Y009123D01*
X009281Y009165D01*
X009257Y009209D01*
X009236Y009255D01*
X009219Y009303D01*
X009206Y009351D01*
X009196Y009401D01*
X009190Y009451D01*
X009188Y009501D01*
X013188Y009501D02*
X013190Y009551D01*
X013196Y009601D01*
X013206Y009651D01*
X013219Y009699D01*
X013236Y009747D01*
X013257Y009793D01*
X013281Y009837D01*
X013309Y009879D01*
X013340Y009919D01*
X013374Y009956D01*
X013411Y009991D01*
X013450Y010022D01*
X013491Y010051D01*
X013535Y010076D01*
X013581Y010098D01*
X013628Y010116D01*
X013676Y010130D01*
X013725Y010141D01*
X013775Y010148D01*
X013825Y010151D01*
X013876Y010150D01*
X013926Y010145D01*
X013976Y010136D01*
X014024Y010124D01*
X014072Y010107D01*
X014118Y010087D01*
X014163Y010064D01*
X014206Y010037D01*
X014246Y010007D01*
X014284Y009974D01*
X014319Y009938D01*
X014352Y009899D01*
X014381Y009858D01*
X014407Y009815D01*
X014430Y009770D01*
X014449Y009723D01*
X014464Y009675D01*
X014476Y009626D01*
X014484Y009576D01*
X014488Y009526D01*
X014488Y009476D01*
X014484Y009426D01*
X014476Y009376D01*
X014464Y009327D01*
X014449Y009279D01*
X014430Y009232D01*
X014407Y009187D01*
X014381Y009144D01*
X014352Y009103D01*
X014319Y009064D01*
X014284Y009028D01*
X014246Y008995D01*
X014206Y008965D01*
X014163Y008938D01*
X014118Y008915D01*
X014072Y008895D01*
X014024Y008878D01*
X013976Y008866D01*
X013926Y008857D01*
X013876Y008852D01*
X013825Y008851D01*
X013775Y008854D01*
X013725Y008861D01*
X013676Y008872D01*
X013628Y008886D01*
X013581Y008904D01*
X013535Y008926D01*
X013491Y008951D01*
X013450Y008980D01*
X013411Y009011D01*
X013374Y009046D01*
X013340Y009083D01*
X013309Y009123D01*
X013281Y009165D01*
X013257Y009209D01*
X013236Y009255D01*
X013219Y009303D01*
X013206Y009351D01*
X013196Y009401D01*
X013190Y009451D01*
X013188Y009501D01*
X017188Y009501D02*
X017190Y009551D01*
X017196Y009601D01*
X017206Y009651D01*
X017219Y009699D01*
X017236Y009747D01*
X017257Y009793D01*
X017281Y009837D01*
X017309Y009879D01*
X017340Y009919D01*
X017374Y009956D01*
X017411Y009991D01*
X017450Y010022D01*
X017491Y010051D01*
X017535Y010076D01*
X017581Y010098D01*
X017628Y010116D01*
X017676Y010130D01*
X017725Y010141D01*
X017775Y010148D01*
X017825Y010151D01*
X017876Y010150D01*
X017926Y010145D01*
X017976Y010136D01*
X018024Y010124D01*
X018072Y010107D01*
X018118Y010087D01*
X018163Y010064D01*
X018206Y010037D01*
X018246Y010007D01*
X018284Y009974D01*
X018319Y009938D01*
X018352Y009899D01*
X018381Y009858D01*
X018407Y009815D01*
X018430Y009770D01*
X018449Y009723D01*
X018464Y009675D01*
X018476Y009626D01*
X018484Y009576D01*
X018488Y009526D01*
X018488Y009476D01*
X018484Y009426D01*
X018476Y009376D01*
X018464Y009327D01*
X018449Y009279D01*
X018430Y009232D01*
X018407Y009187D01*
X018381Y009144D01*
X018352Y009103D01*
X018319Y009064D01*
X018284Y009028D01*
X018246Y008995D01*
X018206Y008965D01*
X018163Y008938D01*
X018118Y008915D01*
X018072Y008895D01*
X018024Y008878D01*
X017976Y008866D01*
X017926Y008857D01*
X017876Y008852D01*
X017825Y008851D01*
X017775Y008854D01*
X017725Y008861D01*
X017676Y008872D01*
X017628Y008886D01*
X017581Y008904D01*
X017535Y008926D01*
X017491Y008951D01*
X017450Y008980D01*
X017411Y009011D01*
X017374Y009046D01*
X017340Y009083D01*
X017309Y009123D01*
X017281Y009165D01*
X017257Y009209D01*
X017236Y009255D01*
X017219Y009303D01*
X017206Y009351D01*
X017196Y009401D01*
X017190Y009451D01*
X017188Y009501D01*
X021188Y009501D02*
X021190Y009551D01*
X021196Y009601D01*
X021206Y009651D01*
X021219Y009699D01*
X021236Y009747D01*
X021257Y009793D01*
X021281Y009837D01*
X021309Y009879D01*
X021340Y009919D01*
X021374Y009956D01*
X021411Y009991D01*
X021450Y010022D01*
X021491Y010051D01*
X021535Y010076D01*
X021581Y010098D01*
X021628Y010116D01*
X021676Y010130D01*
X021725Y010141D01*
X021775Y010148D01*
X021825Y010151D01*
X021876Y010150D01*
X021926Y010145D01*
X021976Y010136D01*
X022024Y010124D01*
X022072Y010107D01*
X022118Y010087D01*
X022163Y010064D01*
X022206Y010037D01*
X022246Y010007D01*
X022284Y009974D01*
X022319Y009938D01*
X022352Y009899D01*
X022381Y009858D01*
X022407Y009815D01*
X022430Y009770D01*
X022449Y009723D01*
X022464Y009675D01*
X022476Y009626D01*
X022484Y009576D01*
X022488Y009526D01*
X022488Y009476D01*
X022484Y009426D01*
X022476Y009376D01*
X022464Y009327D01*
X022449Y009279D01*
X022430Y009232D01*
X022407Y009187D01*
X022381Y009144D01*
X022352Y009103D01*
X022319Y009064D01*
X022284Y009028D01*
X022246Y008995D01*
X022206Y008965D01*
X022163Y008938D01*
X022118Y008915D01*
X022072Y008895D01*
X022024Y008878D01*
X021976Y008866D01*
X021926Y008857D01*
X021876Y008852D01*
X021825Y008851D01*
X021775Y008854D01*
X021725Y008861D01*
X021676Y008872D01*
X021628Y008886D01*
X021581Y008904D01*
X021535Y008926D01*
X021491Y008951D01*
X021450Y008980D01*
X021411Y009011D01*
X021374Y009046D01*
X021340Y009083D01*
X021309Y009123D01*
X021281Y009165D01*
X021257Y009209D01*
X021236Y009255D01*
X021219Y009303D01*
X021206Y009351D01*
X021196Y009401D01*
X021190Y009451D01*
X021188Y009501D01*
X021188Y014501D02*
X021190Y014551D01*
X021196Y014601D01*
X021206Y014651D01*
X021219Y014699D01*
X021236Y014747D01*
X021257Y014793D01*
X021281Y014837D01*
X021309Y014879D01*
X021340Y014919D01*
X021374Y014956D01*
X021411Y014991D01*
X021450Y015022D01*
X021491Y015051D01*
X021535Y015076D01*
X021581Y015098D01*
X021628Y015116D01*
X021676Y015130D01*
X021725Y015141D01*
X021775Y015148D01*
X021825Y015151D01*
X021876Y015150D01*
X021926Y015145D01*
X021976Y015136D01*
X022024Y015124D01*
X022072Y015107D01*
X022118Y015087D01*
X022163Y015064D01*
X022206Y015037D01*
X022246Y015007D01*
X022284Y014974D01*
X022319Y014938D01*
X022352Y014899D01*
X022381Y014858D01*
X022407Y014815D01*
X022430Y014770D01*
X022449Y014723D01*
X022464Y014675D01*
X022476Y014626D01*
X022484Y014576D01*
X022488Y014526D01*
X022488Y014476D01*
X022484Y014426D01*
X022476Y014376D01*
X022464Y014327D01*
X022449Y014279D01*
X022430Y014232D01*
X022407Y014187D01*
X022381Y014144D01*
X022352Y014103D01*
X022319Y014064D01*
X022284Y014028D01*
X022246Y013995D01*
X022206Y013965D01*
X022163Y013938D01*
X022118Y013915D01*
X022072Y013895D01*
X022024Y013878D01*
X021976Y013866D01*
X021926Y013857D01*
X021876Y013852D01*
X021825Y013851D01*
X021775Y013854D01*
X021725Y013861D01*
X021676Y013872D01*
X021628Y013886D01*
X021581Y013904D01*
X021535Y013926D01*
X021491Y013951D01*
X021450Y013980D01*
X021411Y014011D01*
X021374Y014046D01*
X021340Y014083D01*
X021309Y014123D01*
X021281Y014165D01*
X021257Y014209D01*
X021236Y014255D01*
X021219Y014303D01*
X021206Y014351D01*
X021196Y014401D01*
X021190Y014451D01*
X021188Y014501D01*
X017188Y014501D02*
X017190Y014551D01*
X017196Y014601D01*
X017206Y014651D01*
X017219Y014699D01*
X017236Y014747D01*
X017257Y014793D01*
X017281Y014837D01*
X017309Y014879D01*
X017340Y014919D01*
X017374Y014956D01*
X017411Y014991D01*
X017450Y015022D01*
X017491Y015051D01*
X017535Y015076D01*
X017581Y015098D01*
X017628Y015116D01*
X017676Y015130D01*
X017725Y015141D01*
X017775Y015148D01*
X017825Y015151D01*
X017876Y015150D01*
X017926Y015145D01*
X017976Y015136D01*
X018024Y015124D01*
X018072Y015107D01*
X018118Y015087D01*
X018163Y015064D01*
X018206Y015037D01*
X018246Y015007D01*
X018284Y014974D01*
X018319Y014938D01*
X018352Y014899D01*
X018381Y014858D01*
X018407Y014815D01*
X018430Y014770D01*
X018449Y014723D01*
X018464Y014675D01*
X018476Y014626D01*
X018484Y014576D01*
X018488Y014526D01*
X018488Y014476D01*
X018484Y014426D01*
X018476Y014376D01*
X018464Y014327D01*
X018449Y014279D01*
X018430Y014232D01*
X018407Y014187D01*
X018381Y014144D01*
X018352Y014103D01*
X018319Y014064D01*
X018284Y014028D01*
X018246Y013995D01*
X018206Y013965D01*
X018163Y013938D01*
X018118Y013915D01*
X018072Y013895D01*
X018024Y013878D01*
X017976Y013866D01*
X017926Y013857D01*
X017876Y013852D01*
X017825Y013851D01*
X017775Y013854D01*
X017725Y013861D01*
X017676Y013872D01*
X017628Y013886D01*
X017581Y013904D01*
X017535Y013926D01*
X017491Y013951D01*
X017450Y013980D01*
X017411Y014011D01*
X017374Y014046D01*
X017340Y014083D01*
X017309Y014123D01*
X017281Y014165D01*
X017257Y014209D01*
X017236Y014255D01*
X017219Y014303D01*
X017206Y014351D01*
X017196Y014401D01*
X017190Y014451D01*
X017188Y014501D01*
X013188Y014501D02*
X013190Y014551D01*
X013196Y014601D01*
X013206Y014651D01*
X013219Y014699D01*
X013236Y014747D01*
X013257Y014793D01*
X013281Y014837D01*
X013309Y014879D01*
X013340Y014919D01*
X013374Y014956D01*
X013411Y014991D01*
X013450Y015022D01*
X013491Y015051D01*
X013535Y015076D01*
X013581Y015098D01*
X013628Y015116D01*
X013676Y015130D01*
X013725Y015141D01*
X013775Y015148D01*
X013825Y015151D01*
X013876Y015150D01*
X013926Y015145D01*
X013976Y015136D01*
X014024Y015124D01*
X014072Y015107D01*
X014118Y015087D01*
X014163Y015064D01*
X014206Y015037D01*
X014246Y015007D01*
X014284Y014974D01*
X014319Y014938D01*
X014352Y014899D01*
X014381Y014858D01*
X014407Y014815D01*
X014430Y014770D01*
X014449Y014723D01*
X014464Y014675D01*
X014476Y014626D01*
X014484Y014576D01*
X014488Y014526D01*
X014488Y014476D01*
X014484Y014426D01*
X014476Y014376D01*
X014464Y014327D01*
X014449Y014279D01*
X014430Y014232D01*
X014407Y014187D01*
X014381Y014144D01*
X014352Y014103D01*
X014319Y014064D01*
X014284Y014028D01*
X014246Y013995D01*
X014206Y013965D01*
X014163Y013938D01*
X014118Y013915D01*
X014072Y013895D01*
X014024Y013878D01*
X013976Y013866D01*
X013926Y013857D01*
X013876Y013852D01*
X013825Y013851D01*
X013775Y013854D01*
X013725Y013861D01*
X013676Y013872D01*
X013628Y013886D01*
X013581Y013904D01*
X013535Y013926D01*
X013491Y013951D01*
X013450Y013980D01*
X013411Y014011D01*
X013374Y014046D01*
X013340Y014083D01*
X013309Y014123D01*
X013281Y014165D01*
X013257Y014209D01*
X013236Y014255D01*
X013219Y014303D01*
X013206Y014351D01*
X013196Y014401D01*
X013190Y014451D01*
X013188Y014501D01*
X009188Y014501D02*
X009190Y014551D01*
X009196Y014601D01*
X009206Y014651D01*
X009219Y014699D01*
X009236Y014747D01*
X009257Y014793D01*
X009281Y014837D01*
X009309Y014879D01*
X009340Y014919D01*
X009374Y014956D01*
X009411Y014991D01*
X009450Y015022D01*
X009491Y015051D01*
X009535Y015076D01*
X009581Y015098D01*
X009628Y015116D01*
X009676Y015130D01*
X009725Y015141D01*
X009775Y015148D01*
X009825Y015151D01*
X009876Y015150D01*
X009926Y015145D01*
X009976Y015136D01*
X010024Y015124D01*
X010072Y015107D01*
X010118Y015087D01*
X010163Y015064D01*
X010206Y015037D01*
X010246Y015007D01*
X010284Y014974D01*
X010319Y014938D01*
X010352Y014899D01*
X010381Y014858D01*
X010407Y014815D01*
X010430Y014770D01*
X010449Y014723D01*
X010464Y014675D01*
X010476Y014626D01*
X010484Y014576D01*
X010488Y014526D01*
X010488Y014476D01*
X010484Y014426D01*
X010476Y014376D01*
X010464Y014327D01*
X010449Y014279D01*
X010430Y014232D01*
X010407Y014187D01*
X010381Y014144D01*
X010352Y014103D01*
X010319Y014064D01*
X010284Y014028D01*
X010246Y013995D01*
X010206Y013965D01*
X010163Y013938D01*
X010118Y013915D01*
X010072Y013895D01*
X010024Y013878D01*
X009976Y013866D01*
X009926Y013857D01*
X009876Y013852D01*
X009825Y013851D01*
X009775Y013854D01*
X009725Y013861D01*
X009676Y013872D01*
X009628Y013886D01*
X009581Y013904D01*
X009535Y013926D01*
X009491Y013951D01*
X009450Y013980D01*
X009411Y014011D01*
X009374Y014046D01*
X009340Y014083D01*
X009309Y014123D01*
X009281Y014165D01*
X009257Y014209D01*
X009236Y014255D01*
X009219Y014303D01*
X009206Y014351D01*
X009196Y014401D01*
X009190Y014451D01*
X009188Y014501D01*
D12*
X014838Y015001D03*
X022838Y015001D03*
X016838Y009001D03*
X014838Y007001D03*
X008838Y009001D03*
X022838Y007001D03*
X016838Y001001D03*
X008838Y001001D03*
D13*
X011129Y003135D03*
X012547Y003135D03*
X012547Y004867D03*
X011129Y004867D03*
X019129Y004867D03*
X020547Y004867D03*
X020547Y003135D03*
X019129Y003135D03*
X019129Y011135D03*
X020547Y011135D03*
X020547Y012867D03*
X019129Y012867D03*
X012547Y012867D03*
X011129Y012867D03*
X011129Y011135D03*
X012547Y011135D03*
D14*
X011838Y011135D03*
X011838Y012867D03*
X019838Y012867D03*
X019838Y011135D03*
X019838Y004867D03*
X019838Y003135D03*
X011838Y003135D03*
X011838Y004867D03*
D15*
X008838Y005001D03*
X008838Y004001D03*
X008838Y003001D03*
X014838Y003001D03*
X016838Y003001D03*
X016838Y004001D03*
X014838Y004001D03*
X014838Y005001D03*
X016838Y005001D03*
X022838Y005001D03*
X022838Y004001D03*
X022838Y003001D03*
X022838Y011001D03*
X022838Y012001D03*
X022838Y013001D03*
X016838Y013001D03*
X014838Y013001D03*
X014838Y012001D03*
X016838Y012001D03*
X016838Y011001D03*
X014838Y011001D03*
X008838Y011001D03*
X008838Y012001D03*
X008838Y013001D03*
D16*
X009838Y013001D01*
X010538Y013701D01*
X011838Y013701D01*
X011838Y012867D01*
X011838Y012001D02*
X011838Y011135D01*
X011129Y011135D02*
X011129Y011710D01*
X010838Y012001D01*
X012547Y011710D02*
X012838Y012001D01*
X012547Y011710D02*
X012547Y011135D01*
X016838Y013001D02*
X017838Y013001D01*
X018538Y013701D01*
X019838Y013701D01*
X019838Y012867D01*
X019838Y012001D02*
X019838Y011135D01*
X020547Y011135D02*
X020547Y011710D01*
X020838Y012001D01*
X019129Y011710D02*
X018838Y012001D01*
X019129Y011710D02*
X019129Y011135D01*
X018538Y005701D02*
X017838Y005001D01*
X016838Y005001D01*
X018538Y005701D02*
X019838Y005701D01*
X019838Y004867D01*
X019838Y004001D02*
X019838Y003135D01*
X020547Y003135D02*
X020547Y003710D01*
X020838Y004001D01*
X019129Y003710D02*
X018838Y004001D01*
X019129Y003710D02*
X019129Y003135D01*
X012838Y004001D02*
X012547Y003710D01*
X012547Y003135D01*
X011838Y003135D02*
X011838Y004001D01*
X011129Y003710D02*
X010838Y004001D01*
X011129Y003710D02*
X011129Y003135D01*
X011838Y004867D02*
X011838Y005701D01*
X010538Y005701D01*
X009838Y005001D01*
X008838Y005001D01*
D17*
X009838Y004501D03*
X010838Y004001D03*
X011838Y004001D03*
X012838Y004001D03*
X013338Y003501D03*
X013838Y004501D03*
X011838Y005701D03*
X010338Y003501D03*
X008838Y002001D03*
X014838Y002001D03*
X016838Y002001D03*
X018338Y003501D03*
X018838Y004001D03*
X019838Y004001D03*
X020838Y004001D03*
X021338Y003501D03*
X021838Y004501D03*
X019838Y005701D03*
X017838Y004501D03*
X022838Y002001D03*
X022838Y010001D03*
X021338Y011501D03*
X020838Y012001D03*
X019838Y012001D03*
X018838Y012001D03*
X018338Y011501D03*
X017838Y012501D03*
X019838Y013701D03*
X021838Y012501D03*
X016838Y010001D03*
X014838Y010001D03*
X013338Y011501D03*
X012838Y012001D03*
X011838Y012001D03*
X010838Y012001D03*
X010338Y011501D03*
X009838Y012501D03*
X011838Y013701D03*
X013838Y012501D03*
X008838Y010001D03*
D18*
X008991Y009914D02*
X008548Y009914D01*
X008548Y010012D02*
X009048Y010012D01*
X009105Y010111D02*
X008548Y010111D01*
X008548Y010209D02*
X009220Y010209D01*
X009107Y010115D02*
X009107Y010115D01*
X009107Y010115D01*
X009361Y010328D01*
X009361Y010328D01*
X009672Y010441D01*
X009672Y010441D01*
X009751Y010441D01*
X009821Y010441D01*
X009838Y010441D01*
X009925Y010441D01*
X010004Y010441D01*
X010004Y010441D01*
X010315Y010328D01*
X010315Y010328D01*
X010569Y010115D01*
X010569Y010115D01*
X010735Y009828D01*
X010735Y009828D01*
X010793Y009501D01*
X010793Y009501D01*
X010735Y009175D01*
X010735Y009175D01*
X010569Y008888D01*
X010569Y008888D01*
X010569Y008888D01*
X010315Y008675D01*
X010315Y008675D01*
X010004Y008561D01*
X010004Y008561D01*
X009925Y008561D01*
X009838Y008561D01*
X009672Y008561D01*
X009672Y008561D01*
X009361Y008675D01*
X009361Y008675D01*
X009167Y008837D01*
X009149Y008793D01*
X009046Y008690D01*
X008911Y008634D01*
X008765Y008634D01*
X008630Y008690D01*
X008548Y008772D01*
X008548Y008501D01*
X015338Y008501D01*
X015338Y010857D01*
X015320Y010802D01*
X015283Y010729D01*
X015235Y010662D01*
X015177Y010605D01*
X015111Y010556D01*
X015038Y010519D01*
X014960Y010494D01*
X014888Y010483D01*
X014888Y010951D01*
X014788Y010951D01*
X014788Y010483D01*
X014716Y010494D01*
X014638Y010519D01*
X014566Y010556D01*
X014499Y010605D01*
X014441Y010662D01*
X014393Y010729D01*
X014356Y010802D01*
X014331Y010879D01*
X014320Y010951D01*
X014788Y010951D01*
X014788Y011051D01*
X014320Y011051D01*
X014331Y011123D01*
X014356Y011201D01*
X014393Y011274D01*
X014441Y011340D01*
X014499Y011398D01*
X014566Y011446D01*
X014638Y011483D01*
X014661Y011490D01*
X014532Y011543D01*
X014380Y011695D01*
X014298Y011894D01*
X014298Y012109D01*
X014380Y012307D01*
X014532Y012459D01*
X014634Y012501D01*
X014532Y012543D01*
X014380Y012695D01*
X014298Y012894D01*
X014298Y013109D01*
X014380Y013307D01*
X014532Y013459D01*
X014731Y013541D01*
X014946Y013541D01*
X015144Y013459D01*
X015296Y013307D01*
X015338Y013205D01*
X015338Y015291D01*
X015067Y015291D01*
X015149Y015209D01*
X015205Y015074D01*
X015205Y014928D01*
X015149Y014793D01*
X015046Y014690D01*
X014911Y014634D01*
X014769Y014634D01*
X014793Y014501D01*
X014793Y014501D01*
X014735Y014175D01*
X014735Y014175D01*
X014569Y013888D01*
X014569Y013888D01*
X014569Y013888D01*
X014315Y013675D01*
X014315Y013675D01*
X014004Y013561D01*
X014004Y013561D01*
X013838Y013561D01*
X013751Y013561D01*
X013672Y013561D01*
X013361Y013675D01*
X013361Y013675D01*
X013107Y013888D01*
X013107Y013888D01*
X012941Y014175D01*
X012941Y014175D01*
X012884Y014501D01*
X012884Y014501D01*
X012941Y014828D01*
X012941Y014828D01*
X013107Y015115D01*
X013107Y015115D01*
X013107Y015115D01*
X013317Y015291D01*
X010359Y015291D01*
X010569Y015115D01*
X010569Y015115D01*
X010735Y014828D01*
X010793Y014501D01*
X010793Y014501D01*
X010735Y014175D01*
X010735Y014175D01*
X010606Y013951D01*
X011567Y013951D01*
X011629Y014014D01*
X011765Y014070D01*
X011911Y014070D01*
X012047Y014014D01*
X012150Y013910D01*
X012206Y013775D01*
X012206Y013628D01*
X012150Y013493D01*
X012089Y013431D01*
X012105Y013431D01*
X012167Y013369D01*
X012179Y013381D01*
X012213Y013401D01*
X012251Y013411D01*
X012497Y013411D01*
X012497Y012918D01*
X012597Y012918D01*
X012597Y013411D01*
X012842Y013411D01*
X012880Y013401D01*
X012914Y013381D01*
X012942Y013353D01*
X012962Y013319D01*
X012972Y013281D01*
X012972Y012917D01*
X012597Y012917D01*
X012597Y012817D01*
X012597Y012324D01*
X012654Y012324D01*
X012629Y012314D01*
X012526Y012210D01*
X012470Y012075D01*
X012470Y011986D01*
X012335Y011851D01*
X012297Y011760D01*
X012297Y011699D01*
X012201Y011699D01*
X012153Y011651D01*
X012105Y011699D01*
X012088Y011699D01*
X012088Y011730D01*
X012150Y011793D01*
X012206Y011928D01*
X012206Y012075D01*
X012150Y012210D01*
X012057Y012304D01*
X012105Y012304D01*
X012167Y012366D01*
X012179Y012354D01*
X012213Y012334D01*
X012251Y012324D01*
X012497Y012324D01*
X012497Y012817D01*
X012597Y012817D01*
X012972Y012817D01*
X012972Y012454D01*
X012962Y012416D01*
X012942Y012382D01*
X012925Y012364D01*
X013047Y012314D01*
X013150Y012210D01*
X013206Y012075D01*
X013206Y011928D01*
X013150Y011793D01*
X013047Y011689D01*
X012945Y011647D01*
X012992Y011599D01*
X012992Y010671D01*
X012893Y010571D01*
X012201Y010571D01*
X012153Y010619D01*
X012105Y010571D01*
X011571Y010571D01*
X011523Y010619D01*
X011475Y010571D01*
X010783Y010571D01*
X010684Y010671D01*
X010684Y011599D01*
X010731Y011647D01*
X010629Y011689D01*
X010526Y011793D01*
X010470Y011928D01*
X010470Y012075D01*
X010526Y012210D01*
X010629Y012314D01*
X010731Y012356D01*
X010684Y012403D01*
X010684Y013331D01*
X010783Y013431D01*
X011475Y013431D01*
X011523Y013383D01*
X011571Y013431D01*
X011587Y013431D01*
X011567Y013451D01*
X010642Y013451D01*
X010050Y012860D01*
X009980Y012789D01*
X009888Y012751D01*
X009319Y012751D01*
X009296Y012695D01*
X009144Y012543D01*
X009042Y012501D01*
X009144Y012459D01*
X009296Y012307D01*
X009378Y012109D01*
X009378Y011894D01*
X009296Y011695D01*
X009144Y011543D01*
X009016Y011490D01*
X009038Y011483D01*
X009111Y011446D01*
X009177Y011398D01*
X009235Y011340D01*
X009283Y011274D01*
X009320Y011201D01*
X009345Y011123D01*
X009357Y011051D01*
X008888Y011051D01*
X008888Y010951D01*
X008888Y010483D01*
X008960Y010494D01*
X009038Y010519D01*
X009111Y010556D01*
X009177Y010605D01*
X009235Y010662D01*
X009283Y010729D01*
X009320Y010802D01*
X009345Y010879D01*
X009357Y010951D01*
X008888Y010951D01*
X008788Y010951D01*
X008788Y010483D01*
X008716Y010494D01*
X008638Y010519D01*
X008566Y010556D01*
X008548Y010569D01*
X008548Y009230D01*
X008630Y009312D01*
X008765Y009368D01*
X008907Y009368D01*
X008884Y009501D01*
X008884Y009501D01*
X008941Y009828D01*
X008941Y009828D01*
X009107Y010115D01*
X009337Y010308D02*
X008548Y010308D01*
X008548Y010407D02*
X009577Y010407D01*
X009176Y010604D02*
X010751Y010604D01*
X010684Y010702D02*
X009264Y010702D01*
X009319Y010801D02*
X010684Y010801D01*
X010684Y010899D02*
X009348Y010899D01*
X009349Y011096D02*
X010684Y011096D01*
X010684Y010998D02*
X008888Y010998D01*
X008888Y010899D02*
X008788Y010899D01*
X008788Y010801D02*
X008888Y010801D01*
X008888Y010702D02*
X008788Y010702D01*
X008788Y010604D02*
X008888Y010604D01*
X008888Y010505D02*
X008788Y010505D01*
X008682Y010505D02*
X008548Y010505D01*
X008994Y010505D02*
X014682Y010505D01*
X014788Y010505D02*
X014888Y010505D01*
X014888Y010604D02*
X014788Y010604D01*
X014788Y010702D02*
X014888Y010702D01*
X014888Y010801D02*
X014788Y010801D01*
X014788Y010899D02*
X014888Y010899D01*
X014788Y010998D02*
X012992Y010998D01*
X012992Y011096D02*
X014327Y011096D01*
X014354Y011195D02*
X012992Y011195D01*
X012992Y011293D02*
X014408Y011293D01*
X014493Y011392D02*
X012992Y011392D01*
X012992Y011491D02*
X014660Y011491D01*
X014487Y011589D02*
X012992Y011589D01*
X013044Y011688D02*
X014388Y011688D01*
X014343Y011786D02*
X013144Y011786D01*
X013189Y011885D02*
X014302Y011885D01*
X014298Y011983D02*
X013206Y011983D01*
X013204Y012082D02*
X014298Y012082D01*
X014328Y012180D02*
X013163Y012180D01*
X013081Y012279D02*
X014369Y012279D01*
X014451Y012377D02*
X012938Y012377D01*
X012972Y012476D02*
X014573Y012476D01*
X014501Y012575D02*
X012972Y012575D01*
X012972Y012673D02*
X014403Y012673D01*
X014349Y012772D02*
X012972Y012772D01*
X012972Y012969D02*
X014298Y012969D01*
X014298Y013067D02*
X012972Y013067D01*
X012972Y013166D02*
X014322Y013166D01*
X014363Y013264D02*
X012972Y013264D01*
X012933Y013363D02*
X014436Y013363D01*
X014538Y013461D02*
X012119Y013461D01*
X012178Y013560D02*
X015338Y013560D01*
X015338Y013659D02*
X014271Y013659D01*
X014414Y013757D02*
X015338Y013757D01*
X015338Y013856D02*
X014531Y013856D01*
X014608Y013954D02*
X015338Y013954D01*
X015338Y014053D02*
X014664Y014053D01*
X014721Y014151D02*
X015338Y014151D01*
X015338Y014250D02*
X014748Y014250D01*
X014766Y014348D02*
X015338Y014348D01*
X015338Y014447D02*
X014783Y014447D01*
X014785Y014545D02*
X015338Y014545D01*
X015338Y014644D02*
X014934Y014644D01*
X015098Y014742D02*
X015338Y014742D01*
X015338Y014841D02*
X015169Y014841D01*
X015205Y014940D02*
X015338Y014940D01*
X015338Y015038D02*
X015205Y015038D01*
X015179Y015137D02*
X015338Y015137D01*
X015338Y015235D02*
X015123Y015235D01*
X013251Y015235D02*
X010426Y015235D01*
X010543Y015137D02*
X013133Y015137D01*
X013063Y015038D02*
X010614Y015038D01*
X010670Y014940D02*
X013006Y014940D01*
X012949Y014841D02*
X010727Y014841D01*
X010750Y014742D02*
X012926Y014742D01*
X012909Y014644D02*
X010767Y014644D01*
X010785Y014545D02*
X012891Y014545D01*
X012893Y014447D02*
X010783Y014447D01*
X010766Y014348D02*
X012911Y014348D01*
X012928Y014250D02*
X010748Y014250D01*
X010721Y014151D02*
X012955Y014151D01*
X013012Y014053D02*
X011952Y014053D01*
X012106Y013954D02*
X013069Y013954D01*
X013145Y013856D02*
X012173Y013856D01*
X012206Y013757D02*
X013263Y013757D01*
X013405Y013659D02*
X012206Y013659D01*
X012497Y013363D02*
X012597Y013363D01*
X012597Y013264D02*
X012497Y013264D01*
X012497Y013166D02*
X012597Y013166D01*
X012597Y013067D02*
X012497Y013067D01*
X012497Y012969D02*
X012597Y012969D01*
X012597Y012870D02*
X014308Y012870D01*
X015240Y013363D02*
X015338Y013363D01*
X015338Y013461D02*
X015138Y013461D01*
X015314Y013264D02*
X015338Y013264D01*
X017042Y012501D02*
X017144Y012543D01*
X017296Y012695D01*
X017319Y012751D01*
X017888Y012751D01*
X017980Y012789D01*
X018050Y012860D01*
X018642Y013451D01*
X019567Y013451D01*
X019587Y013431D01*
X019571Y013431D01*
X019523Y013383D01*
X019475Y013431D01*
X018783Y013431D01*
X018684Y013331D01*
X018684Y012403D01*
X018731Y012356D01*
X018629Y012314D01*
X018526Y012210D01*
X018470Y012075D01*
X018470Y011928D01*
X018526Y011793D01*
X018629Y011689D01*
X018731Y011647D01*
X018684Y011599D01*
X018684Y010671D01*
X018783Y010571D01*
X019475Y010571D01*
X019523Y010619D01*
X019571Y010571D01*
X020105Y010571D01*
X020153Y010619D01*
X020201Y010571D01*
X020893Y010571D01*
X020992Y010671D01*
X020992Y011599D01*
X020945Y011647D01*
X021047Y011689D01*
X021150Y011793D01*
X021206Y011928D01*
X021206Y012075D01*
X021150Y012210D01*
X021047Y012314D01*
X020925Y012364D01*
X020942Y012382D01*
X020962Y012416D01*
X020972Y012454D01*
X020972Y012817D01*
X020597Y012817D01*
X020597Y012324D01*
X020654Y012324D01*
X020629Y012314D01*
X020526Y012210D01*
X020470Y012075D01*
X020470Y011986D01*
X020335Y011851D01*
X020297Y011760D01*
X020297Y011699D01*
X020201Y011699D01*
X020153Y011651D01*
X020105Y011699D01*
X020088Y011699D01*
X020088Y011730D01*
X020150Y011793D01*
X020206Y011928D01*
X020206Y012075D01*
X020150Y012210D01*
X020057Y012304D01*
X020105Y012304D01*
X020167Y012366D01*
X020179Y012354D01*
X020213Y012334D01*
X020251Y012324D01*
X020497Y012324D01*
X020497Y012817D01*
X020597Y012817D01*
X020597Y012917D01*
X020972Y012917D01*
X020972Y013281D01*
X020962Y013319D01*
X020942Y013353D01*
X020914Y013381D01*
X020880Y013401D01*
X020842Y013411D01*
X020597Y013411D01*
X020597Y012918D01*
X020497Y012918D01*
X020497Y013411D01*
X020251Y013411D01*
X020213Y013401D01*
X020179Y013381D01*
X020167Y013369D01*
X020105Y013431D01*
X020089Y013431D01*
X020150Y013493D01*
X020206Y013628D01*
X020206Y013775D01*
X020150Y013910D01*
X020047Y014014D01*
X019911Y014070D01*
X019765Y014070D01*
X019629Y014014D01*
X019567Y013951D01*
X018606Y013951D01*
X018735Y014175D01*
X018793Y014501D01*
X018793Y014501D01*
X018735Y014828D01*
X018569Y015115D01*
X018359Y015291D01*
X021317Y015291D01*
X021107Y015115D01*
X020941Y014828D01*
X020941Y014828D01*
X020884Y014501D01*
X020941Y014175D01*
X021107Y013888D01*
X021107Y013888D01*
X021361Y013675D01*
X021672Y013561D01*
X021672Y013561D01*
X021751Y013561D01*
X021838Y013561D01*
X022004Y013561D01*
X022315Y013675D01*
X022569Y013888D01*
X022735Y014175D01*
X022793Y014501D01*
X022793Y014501D01*
X022769Y014634D01*
X022911Y014634D01*
X023046Y014690D01*
X023128Y014772D01*
X023128Y013466D01*
X022946Y013541D01*
X022731Y013541D01*
X022532Y013459D01*
X022380Y013307D01*
X022298Y013109D01*
X022298Y012894D01*
X022380Y012695D01*
X022532Y012543D01*
X022634Y012501D01*
X022532Y012459D01*
X022380Y012307D01*
X022298Y012109D01*
X022298Y011894D01*
X022380Y011695D01*
X022532Y011543D01*
X022661Y011490D01*
X022638Y011483D01*
X022566Y011446D01*
X022499Y011398D01*
X022441Y011340D01*
X022393Y011274D01*
X022356Y011201D01*
X022331Y011123D01*
X022320Y011051D01*
X022788Y011051D01*
X022788Y010951D01*
X022888Y010951D01*
X022888Y010483D01*
X022960Y010494D01*
X023038Y010519D01*
X023111Y010556D01*
X023128Y010569D01*
X023128Y008501D01*
X016338Y008501D01*
X016338Y010857D01*
X016356Y010802D01*
X016393Y010729D01*
X016441Y010662D01*
X016499Y010605D01*
X016566Y010556D01*
X016638Y010519D01*
X016716Y010494D01*
X016788Y010483D01*
X016788Y010951D01*
X016888Y010951D01*
X016888Y010483D01*
X016960Y010494D01*
X017038Y010519D01*
X017111Y010556D01*
X017177Y010605D01*
X017235Y010662D01*
X017283Y010729D01*
X017320Y010802D01*
X017345Y010879D01*
X017357Y010951D01*
X016888Y010951D01*
X016888Y011051D01*
X017357Y011051D01*
X017345Y011123D01*
X017320Y011201D01*
X017283Y011274D01*
X017235Y011340D01*
X017177Y011398D01*
X017111Y011446D01*
X017038Y011483D01*
X017016Y011490D01*
X017144Y011543D01*
X017296Y011695D01*
X017378Y011894D01*
X017378Y012109D01*
X017296Y012307D01*
X017144Y012459D01*
X017042Y012501D01*
X017103Y012476D02*
X018684Y012476D01*
X018684Y012575D02*
X017175Y012575D01*
X017274Y012673D02*
X018684Y012673D01*
X018684Y012772D02*
X017937Y012772D01*
X018061Y012870D02*
X018684Y012870D01*
X018684Y012969D02*
X018159Y012969D01*
X018258Y013067D02*
X018684Y013067D01*
X018684Y013166D02*
X018356Y013166D01*
X018455Y013264D02*
X018684Y013264D01*
X018715Y013363D02*
X018553Y013363D01*
X020119Y013461D02*
X022538Y013461D01*
X022436Y013363D02*
X020933Y013363D01*
X020972Y013264D02*
X022363Y013264D01*
X022322Y013166D02*
X020972Y013166D01*
X020972Y013067D02*
X022298Y013067D01*
X022298Y012969D02*
X020972Y012969D01*
X020972Y012772D02*
X022349Y012772D01*
X022308Y012870D02*
X020597Y012870D01*
X020597Y012772D02*
X020497Y012772D01*
X020497Y012673D02*
X020597Y012673D01*
X020597Y012575D02*
X020497Y012575D01*
X020497Y012476D02*
X020597Y012476D01*
X020597Y012377D02*
X020497Y012377D01*
X020595Y012279D02*
X020081Y012279D01*
X020163Y012180D02*
X020514Y012180D01*
X020473Y012082D02*
X020204Y012082D01*
X020206Y011983D02*
X020467Y011983D01*
X020368Y011885D02*
X020189Y011885D01*
X020144Y011786D02*
X020308Y011786D01*
X020190Y011688D02*
X020116Y011688D01*
X020992Y011589D02*
X022487Y011589D01*
X022388Y011688D02*
X021044Y011688D01*
X021144Y011786D02*
X022343Y011786D01*
X022302Y011885D02*
X021189Y011885D01*
X021206Y011983D02*
X022298Y011983D01*
X022298Y012082D02*
X021204Y012082D01*
X021163Y012180D02*
X022328Y012180D01*
X022369Y012279D02*
X021081Y012279D01*
X020938Y012377D02*
X022451Y012377D01*
X022573Y012476D02*
X020972Y012476D01*
X020972Y012575D02*
X022501Y012575D01*
X022403Y012673D02*
X020972Y012673D01*
X020597Y012969D02*
X020497Y012969D01*
X020497Y013067D02*
X020597Y013067D01*
X020597Y013166D02*
X020497Y013166D01*
X020497Y013264D02*
X020597Y013264D01*
X020597Y013363D02*
X020497Y013363D01*
X020178Y013560D02*
X023128Y013560D01*
X023128Y013659D02*
X022271Y013659D01*
X022315Y013675D02*
X022315Y013675D01*
X022414Y013757D02*
X023128Y013757D01*
X023128Y013856D02*
X022531Y013856D01*
X022569Y013888D02*
X022569Y013888D01*
X022569Y013888D01*
X022608Y013954D02*
X023128Y013954D01*
X023128Y014053D02*
X022664Y014053D01*
X022721Y014151D02*
X023128Y014151D01*
X023128Y014250D02*
X022748Y014250D01*
X022735Y014175D02*
X022735Y014175D01*
X022766Y014348D02*
X023128Y014348D01*
X023128Y014447D02*
X022783Y014447D01*
X022785Y014545D02*
X023128Y014545D01*
X023128Y014644D02*
X022934Y014644D01*
X023098Y014742D02*
X023128Y014742D01*
X021251Y015235D02*
X018426Y015235D01*
X018543Y015137D02*
X021133Y015137D01*
X021107Y015115D02*
X021107Y015115D01*
X021063Y015038D02*
X018614Y015038D01*
X018569Y015115D02*
X018569Y015115D01*
X018670Y014940D02*
X021006Y014940D01*
X020949Y014841D02*
X018727Y014841D01*
X018735Y014828D02*
X018735Y014828D01*
X018750Y014742D02*
X020926Y014742D01*
X020909Y014644D02*
X018767Y014644D01*
X018785Y014545D02*
X020891Y014545D01*
X020884Y014501D02*
X020884Y014501D01*
X020893Y014447D02*
X018783Y014447D01*
X018766Y014348D02*
X020911Y014348D01*
X020928Y014250D02*
X018748Y014250D01*
X018735Y014175D02*
X018735Y014175D01*
X018721Y014151D02*
X020955Y014151D01*
X020941Y014175D02*
X020941Y014175D01*
X021012Y014053D02*
X019952Y014053D01*
X020106Y013954D02*
X021069Y013954D01*
X021145Y013856D02*
X020173Y013856D01*
X020206Y013757D02*
X021263Y013757D01*
X021361Y013675D02*
X021361Y013675D01*
X021405Y013659D02*
X020206Y013659D01*
X019570Y013954D02*
X018608Y013954D01*
X018664Y014053D02*
X019724Y014053D01*
X022004Y013561D02*
X022004Y013561D01*
X018710Y012377D02*
X017226Y012377D01*
X017308Y012279D02*
X018595Y012279D01*
X018514Y012180D02*
X017348Y012180D01*
X017378Y012082D02*
X018473Y012082D01*
X018470Y011983D02*
X017378Y011983D01*
X017374Y011885D02*
X018488Y011885D01*
X018532Y011786D02*
X017333Y011786D01*
X017288Y011688D02*
X018633Y011688D01*
X018684Y011589D02*
X017190Y011589D01*
X017183Y011392D02*
X018684Y011392D01*
X018684Y011293D02*
X017269Y011293D01*
X017322Y011195D02*
X018684Y011195D01*
X018684Y011096D02*
X017349Y011096D01*
X017348Y010899D02*
X018684Y010899D01*
X018684Y010801D02*
X017319Y010801D01*
X017264Y010702D02*
X018684Y010702D01*
X018751Y010604D02*
X017176Y010604D01*
X016994Y010505D02*
X022682Y010505D01*
X022716Y010494D02*
X022788Y010483D01*
X022788Y010951D01*
X022320Y010951D01*
X022331Y010879D01*
X022356Y010802D01*
X022393Y010729D01*
X022441Y010662D01*
X022499Y010605D01*
X022566Y010556D01*
X022638Y010519D01*
X022716Y010494D01*
X022788Y010505D02*
X022888Y010505D01*
X022888Y010604D02*
X022788Y010604D01*
X022788Y010702D02*
X022888Y010702D01*
X022888Y010801D02*
X022788Y010801D01*
X022788Y010899D02*
X022888Y010899D01*
X022788Y010998D02*
X020992Y010998D01*
X020992Y011096D02*
X022327Y011096D01*
X022354Y011195D02*
X020992Y011195D01*
X020992Y011293D02*
X022408Y011293D01*
X022493Y011392D02*
X020992Y011392D01*
X020992Y011491D02*
X022660Y011491D01*
X022328Y010899D02*
X020992Y010899D01*
X020992Y010801D02*
X022357Y010801D01*
X022413Y010702D02*
X020992Y010702D01*
X020925Y010604D02*
X022501Y010604D01*
X022315Y010328D02*
X022004Y010441D01*
X021838Y010441D01*
X021672Y010441D01*
X021361Y010328D01*
X021107Y010115D01*
X021107Y010115D01*
X021107Y010115D01*
X020941Y009828D01*
X020941Y009828D01*
X020884Y009501D01*
X020941Y009175D01*
X021107Y008888D01*
X021107Y008888D01*
X021361Y008675D01*
X021672Y008561D01*
X021672Y008561D01*
X021751Y008561D01*
X021838Y008561D01*
X022004Y008561D01*
X022315Y008675D01*
X022569Y008888D01*
X022735Y009175D01*
X022793Y009501D01*
X022793Y009501D01*
X022735Y009828D01*
X022569Y010115D01*
X022315Y010328D01*
X022315Y010328D01*
X022339Y010308D02*
X023128Y010308D01*
X023128Y010209D02*
X022456Y010209D01*
X022569Y010115D02*
X022569Y010115D01*
X022571Y010111D02*
X023128Y010111D01*
X023128Y010012D02*
X022628Y010012D01*
X022685Y009914D02*
X023128Y009914D01*
X023128Y009815D02*
X022737Y009815D01*
X022735Y009828D02*
X022735Y009828D01*
X022755Y009717D02*
X023128Y009717D01*
X023128Y009618D02*
X022772Y009618D01*
X022789Y009520D02*
X023128Y009520D01*
X023128Y009421D02*
X022778Y009421D01*
X022761Y009323D02*
X023128Y009323D01*
X023128Y009224D02*
X022744Y009224D01*
X022735Y009175D02*
X022735Y009175D01*
X022707Y009126D02*
X023128Y009126D01*
X023128Y009027D02*
X022650Y009027D01*
X022593Y008928D02*
X023128Y008928D01*
X023128Y008830D02*
X022500Y008830D01*
X022569Y008888D02*
X022569Y008888D01*
X022569Y008888D01*
X022383Y008731D02*
X023128Y008731D01*
X023128Y008633D02*
X022200Y008633D01*
X022315Y008675D02*
X022315Y008675D01*
X022004Y008561D02*
X022004Y008561D01*
X021476Y008633D02*
X018200Y008633D01*
X018315Y008675D02*
X018315Y008675D01*
X018569Y008888D01*
X018735Y009175D01*
X018793Y009501D01*
X018793Y009501D01*
X018735Y009828D01*
X018569Y010115D01*
X018315Y010328D01*
X018004Y010441D01*
X017925Y010441D01*
X017838Y010441D01*
X017829Y010441D01*
X017751Y010441D01*
X017672Y010441D01*
X017361Y010328D01*
X017107Y010115D01*
X017107Y010115D01*
X017107Y010115D01*
X016941Y009828D01*
X016941Y009828D01*
X016884Y009501D01*
X016907Y009368D01*
X016765Y009368D01*
X016630Y009312D01*
X016527Y009209D01*
X016471Y009074D01*
X016471Y008928D01*
X016527Y008793D01*
X016630Y008690D01*
X016765Y008634D01*
X016911Y008634D01*
X017046Y008690D01*
X017149Y008793D01*
X017167Y008837D01*
X017361Y008675D01*
X017672Y008561D01*
X017672Y008561D01*
X017838Y008561D01*
X017925Y008561D01*
X018004Y008561D01*
X018315Y008675D01*
X018383Y008731D02*
X021293Y008731D01*
X021361Y008675D02*
X021361Y008675D01*
X021176Y008830D02*
X018500Y008830D01*
X018569Y008888D02*
X018569Y008888D01*
X018569Y008888D01*
X018593Y008928D02*
X021083Y008928D01*
X021026Y009027D02*
X018650Y009027D01*
X018707Y009126D02*
X020970Y009126D01*
X020941Y009175D02*
X020941Y009175D01*
X020932Y009224D02*
X018744Y009224D01*
X018735Y009175D02*
X018735Y009175D01*
X018761Y009323D02*
X020915Y009323D01*
X020898Y009421D02*
X018778Y009421D01*
X018789Y009520D02*
X020887Y009520D01*
X020884Y009501D02*
X020884Y009501D01*
X020904Y009618D02*
X018772Y009618D01*
X018755Y009717D02*
X020922Y009717D01*
X020939Y009815D02*
X018737Y009815D01*
X018735Y009828D02*
X018735Y009828D01*
X018685Y009914D02*
X020991Y009914D01*
X021048Y010012D02*
X018628Y010012D01*
X018571Y010111D02*
X021105Y010111D01*
X021220Y010209D02*
X018456Y010209D01*
X018569Y010115D02*
X018569Y010115D01*
X018339Y010308D02*
X021337Y010308D01*
X021361Y010328D02*
X021361Y010328D01*
X021577Y010407D02*
X018099Y010407D01*
X018004Y010441D02*
X018004Y010441D01*
X018315Y010328D02*
X018315Y010328D01*
X017672Y010441D02*
X017672Y010441D01*
X017577Y010407D02*
X016338Y010407D01*
X016338Y010505D02*
X016682Y010505D01*
X016788Y010505D02*
X016888Y010505D01*
X016888Y010604D02*
X016788Y010604D01*
X016788Y010702D02*
X016888Y010702D01*
X016888Y010801D02*
X016788Y010801D01*
X016788Y010899D02*
X016888Y010899D01*
X016888Y010998D02*
X018684Y010998D01*
X019508Y010604D02*
X019539Y010604D01*
X020138Y010604D02*
X020169Y010604D01*
X021672Y010441D02*
X021672Y010441D01*
X022004Y010441D02*
X022004Y010441D01*
X022099Y010407D02*
X023128Y010407D01*
X023128Y010505D02*
X022994Y010505D01*
X018684Y011491D02*
X017016Y011491D01*
X016357Y010801D02*
X016338Y010801D01*
X016338Y010702D02*
X016413Y010702D01*
X016338Y010604D02*
X016501Y010604D01*
X016338Y010308D02*
X017337Y010308D01*
X017361Y010328D02*
X017361Y010328D01*
X017220Y010209D02*
X016338Y010209D01*
X016338Y010111D02*
X017105Y010111D01*
X017048Y010012D02*
X016338Y010012D01*
X016338Y009914D02*
X016991Y009914D01*
X016939Y009815D02*
X016338Y009815D01*
X016338Y009717D02*
X016922Y009717D01*
X016904Y009618D02*
X016338Y009618D01*
X016338Y009520D02*
X016887Y009520D01*
X016884Y009501D02*
X016884Y009501D01*
X016898Y009421D02*
X016338Y009421D01*
X016338Y009323D02*
X016655Y009323D01*
X016542Y009224D02*
X016338Y009224D01*
X016338Y009126D02*
X016493Y009126D01*
X016471Y009027D02*
X016338Y009027D01*
X016338Y008928D02*
X016471Y008928D01*
X016512Y008830D02*
X016338Y008830D01*
X016338Y008731D02*
X016589Y008731D01*
X016338Y008633D02*
X017476Y008633D01*
X017361Y008675D02*
X017361Y008675D01*
X017293Y008731D02*
X017087Y008731D01*
X017164Y008830D02*
X017176Y008830D01*
X018004Y008561D02*
X018004Y008561D01*
X016338Y008534D02*
X023128Y008534D01*
X023128Y007501D02*
X023128Y007230D01*
X023046Y007312D01*
X022911Y007368D01*
X022765Y007368D01*
X022630Y007312D01*
X022527Y007209D01*
X022509Y007165D01*
X022315Y007328D01*
X022004Y007441D01*
X021925Y007441D01*
X021838Y007441D01*
X021828Y007441D01*
X021751Y007441D01*
X021672Y007441D01*
X021361Y007328D01*
X021107Y007115D01*
X021107Y007115D01*
X021107Y007115D01*
X020941Y006828D01*
X020941Y006828D01*
X020884Y006501D01*
X020941Y006175D01*
X021107Y005888D01*
X021107Y005888D01*
X021361Y005675D01*
X021672Y005561D01*
X021672Y005561D01*
X021838Y005561D01*
X021925Y005561D01*
X022004Y005561D01*
X022315Y005675D01*
X022569Y005888D01*
X022735Y006175D01*
X022793Y006501D01*
X022793Y006501D01*
X022769Y006634D01*
X022911Y006634D01*
X023046Y006690D01*
X023128Y006772D01*
X023128Y005466D01*
X022946Y005541D01*
X022731Y005541D01*
X022532Y005459D01*
X022380Y005307D01*
X022298Y005109D01*
X022298Y004894D01*
X022380Y004695D01*
X022532Y004543D01*
X022634Y004501D01*
X022532Y004459D01*
X022380Y004307D01*
X022298Y004109D01*
X022298Y003894D01*
X022380Y003695D01*
X022532Y003543D01*
X022661Y003490D01*
X022638Y003483D01*
X022566Y003446D01*
X022499Y003398D01*
X022441Y003340D01*
X022393Y003274D01*
X022356Y003201D01*
X022331Y003123D01*
X022320Y003051D01*
X022788Y003051D01*
X022788Y002951D01*
X022888Y002951D01*
X022888Y002483D01*
X022960Y002494D01*
X023038Y002519D01*
X023111Y002556D01*
X023128Y002569D01*
X023128Y000711D01*
X022359Y000711D01*
X022569Y000888D01*
X022735Y001175D01*
X022793Y001501D01*
X022793Y001501D01*
X022735Y001828D01*
X022569Y002115D01*
X022315Y002328D01*
X022004Y002441D01*
X021925Y002441D01*
X021838Y002441D01*
X021832Y002441D01*
X021751Y002441D01*
X021672Y002441D01*
X021361Y002328D01*
X021107Y002115D01*
X021107Y002115D01*
X021107Y002115D01*
X020941Y001828D01*
X020941Y001828D01*
X020884Y001501D01*
X020941Y001175D01*
X021107Y000888D01*
X021107Y000888D01*
X021317Y000711D01*
X018359Y000711D01*
X018569Y000888D01*
X018735Y001175D01*
X018793Y001501D01*
X018793Y001501D01*
X018735Y001828D01*
X018569Y002115D01*
X018315Y002328D01*
X018004Y002441D01*
X017925Y002441D01*
X017838Y002441D01*
X017803Y002441D01*
X017751Y002441D01*
X017672Y002441D01*
X017361Y002328D01*
X017107Y002115D01*
X017107Y002115D01*
X017107Y002115D01*
X016941Y001828D01*
X016941Y001828D01*
X016884Y001501D01*
X016907Y001368D01*
X016765Y001368D01*
X016630Y001312D01*
X016527Y001209D01*
X016471Y001074D01*
X016471Y000928D01*
X016527Y000793D01*
X016609Y000711D01*
X016338Y000711D01*
X016338Y002857D01*
X016356Y002802D01*
X016393Y002729D01*
X016441Y002662D01*
X016499Y002605D01*
X016566Y002556D01*
X016638Y002519D01*
X016716Y002494D01*
X016788Y002483D01*
X016788Y002951D01*
X016888Y002951D01*
X016888Y002483D01*
X016960Y002494D01*
X017038Y002519D01*
X017111Y002556D01*
X017177Y002605D01*
X017235Y002662D01*
X017283Y002729D01*
X017320Y002802D01*
X017345Y002879D01*
X017357Y002951D01*
X016888Y002951D01*
X016888Y003051D01*
X017357Y003051D01*
X017345Y003123D01*
X017320Y003201D01*
X017283Y003274D01*
X017235Y003340D01*
X017177Y003398D01*
X017111Y003446D01*
X017038Y003483D01*
X017016Y003490D01*
X017144Y003543D01*
X017296Y003695D01*
X017378Y003894D01*
X017378Y004109D01*
X017296Y004307D01*
X017144Y004459D01*
X017042Y004501D01*
X017144Y004543D01*
X017296Y004695D01*
X017319Y004751D01*
X017888Y004751D01*
X017980Y004789D01*
X018050Y004860D01*
X018642Y005451D01*
X019567Y005451D01*
X019587Y005431D01*
X019571Y005431D01*
X019523Y005383D01*
X019475Y005431D01*
X018783Y005431D01*
X018684Y005331D01*
X018684Y004403D01*
X018731Y004356D01*
X018629Y004314D01*
X018526Y004210D01*
X018470Y004075D01*
X018470Y003928D01*
X018526Y003793D01*
X018629Y003689D01*
X018731Y003647D01*
X018684Y003599D01*
X018684Y002671D01*
X018783Y002571D01*
X019475Y002571D01*
X019523Y002619D01*
X019571Y002571D01*
X020105Y002571D01*
X020153Y002619D01*
X020201Y002571D01*
X020893Y002571D01*
X020992Y002671D01*
X020992Y003599D01*
X020945Y003647D01*
X021047Y003689D01*
X021150Y003793D01*
X021206Y003928D01*
X021206Y004075D01*
X021150Y004210D01*
X021047Y004314D01*
X020925Y004364D01*
X020942Y004382D01*
X020962Y004416D01*
X020972Y004454D01*
X020972Y004817D01*
X020597Y004817D01*
X020597Y004324D01*
X020654Y004324D01*
X020629Y004314D01*
X020526Y004210D01*
X020470Y004075D01*
X020470Y003986D01*
X020335Y003851D01*
X020297Y003760D01*
X020297Y003699D01*
X020201Y003699D01*
X020153Y003651D01*
X020105Y003699D01*
X020088Y003699D01*
X020088Y003730D01*
X020150Y003793D01*
X020206Y003928D01*
X020206Y004075D01*
X020150Y004210D01*
X020057Y004304D01*
X020105Y004304D01*
X020167Y004366D01*
X020179Y004354D01*
X020213Y004334D01*
X020251Y004324D01*
X020497Y004324D01*
X020497Y004817D01*
X020597Y004817D01*
X020597Y004917D01*
X020972Y004917D01*
X020972Y005281D01*
X020962Y005319D01*
X020942Y005353D01*
X020914Y005381D01*
X020880Y005401D01*
X020842Y005411D01*
X020597Y005411D01*
X020597Y004918D01*
X020497Y004918D01*
X020497Y005411D01*
X020251Y005411D01*
X020213Y005401D01*
X020179Y005381D01*
X020167Y005369D01*
X020105Y005431D01*
X020089Y005431D01*
X020150Y005493D01*
X020206Y005628D01*
X020206Y005775D01*
X021241Y005775D01*
X021124Y005874D02*
X020165Y005874D01*
X020150Y005910D02*
X020047Y006014D01*
X019911Y006070D01*
X019765Y006070D01*
X019629Y006014D01*
X019567Y005951D01*
X018606Y005951D01*
X018735Y006175D01*
X018793Y006501D01*
X018793Y006501D01*
X018735Y006828D01*
X018569Y007115D01*
X018315Y007328D01*
X018004Y007441D01*
X017838Y007441D01*
X017751Y007441D01*
X017672Y007441D01*
X017361Y007328D01*
X017107Y007115D01*
X017107Y007115D01*
X017107Y007115D01*
X016941Y006828D01*
X016941Y006828D01*
X016884Y006501D01*
X016941Y006175D01*
X017107Y005888D01*
X017107Y005888D01*
X017361Y005675D01*
X017672Y005561D01*
X017672Y005561D01*
X017751Y005561D01*
X017838Y005561D01*
X018004Y005561D01*
X018068Y005585D01*
X017735Y005251D01*
X017319Y005251D01*
X017296Y005307D01*
X017144Y005459D01*
X016946Y005541D01*
X016731Y005541D01*
X016532Y005459D01*
X016380Y005307D01*
X016338Y005205D01*
X016338Y007501D01*
X023128Y007501D01*
X023128Y007450D02*
X016338Y007450D01*
X016338Y007352D02*
X017427Y007352D01*
X017361Y007328D02*
X017361Y007328D01*
X017272Y007253D02*
X016338Y007253D01*
X016338Y007155D02*
X017154Y007155D01*
X017073Y007056D02*
X016338Y007056D01*
X016338Y006958D02*
X017016Y006958D01*
X016959Y006859D02*
X016338Y006859D01*
X016338Y006760D02*
X016929Y006760D01*
X016912Y006662D02*
X016338Y006662D01*
X016338Y006563D02*
X016895Y006563D01*
X016884Y006501D02*
X016884Y006501D01*
X016890Y006465D02*
X016338Y006465D01*
X016338Y006366D02*
X016907Y006366D01*
X016925Y006268D02*
X016338Y006268D01*
X016338Y006169D02*
X016944Y006169D01*
X016941Y006175D02*
X016941Y006175D01*
X017001Y006071D02*
X016338Y006071D01*
X016338Y005972D02*
X017058Y005972D01*
X017124Y005874D02*
X016338Y005874D01*
X016338Y005775D02*
X017241Y005775D01*
X017359Y005676D02*
X016338Y005676D01*
X016338Y005578D02*
X017626Y005578D01*
X017361Y005675D02*
X017361Y005675D01*
X018004Y005561D02*
X018004Y005561D01*
X018050Y005578D02*
X018061Y005578D01*
X017963Y005479D02*
X017095Y005479D01*
X017222Y005381D02*
X017864Y005381D01*
X017766Y005282D02*
X017306Y005282D01*
X016581Y005479D02*
X016338Y005479D01*
X016338Y005381D02*
X016454Y005381D01*
X016370Y005282D02*
X016338Y005282D01*
X015338Y005282D02*
X015306Y005282D01*
X015296Y005307D02*
X015144Y005459D01*
X014946Y005541D01*
X014731Y005541D01*
X014532Y005459D01*
X014380Y005307D01*
X014298Y005109D01*
X014298Y004894D01*
X014380Y004695D01*
X014532Y004543D01*
X014634Y004501D01*
X014532Y004459D01*
X014380Y004307D01*
X014298Y004109D01*
X014298Y003894D01*
X014380Y003695D01*
X014532Y003543D01*
X014661Y003490D01*
X014638Y003483D01*
X014566Y003446D01*
X014499Y003398D01*
X014441Y003340D01*
X014393Y003274D01*
X014356Y003201D01*
X014331Y003123D01*
X014320Y003051D01*
X014788Y003051D01*
X014788Y002951D01*
X014888Y002951D01*
X014888Y002483D01*
X014960Y002494D01*
X015038Y002519D01*
X015111Y002556D01*
X015177Y002605D01*
X015235Y002662D01*
X015283Y002729D01*
X015320Y002802D01*
X015338Y002857D01*
X015338Y000711D01*
X014359Y000711D01*
X014569Y000888D01*
X014735Y001175D01*
X014793Y001501D01*
X014793Y001501D01*
X014735Y001828D01*
X014569Y002115D01*
X014315Y002328D01*
X014004Y002441D01*
X013925Y002441D01*
X013838Y002441D01*
X013824Y002441D01*
X013751Y002441D01*
X013672Y002441D01*
X013361Y002328D01*
X013107Y002115D01*
X013107Y002115D01*
X013107Y002115D01*
X012941Y001828D01*
X012941Y001828D01*
X012884Y001501D01*
X012941Y001175D01*
X013107Y000888D01*
X013107Y000888D01*
X013317Y000711D01*
X010359Y000711D01*
X010569Y000888D01*
X010735Y001175D01*
X010793Y001501D01*
X010793Y001501D01*
X010735Y001828D01*
X010569Y002115D01*
X010315Y002328D01*
X010004Y002441D01*
X009925Y002441D01*
X009838Y002441D01*
X009672Y002441D01*
X009361Y002328D01*
X009107Y002115D01*
X009107Y002115D01*
X009107Y002115D01*
X008941Y001828D01*
X008941Y001828D01*
X008884Y001501D01*
X008907Y001368D01*
X008765Y001368D01*
X008630Y001312D01*
X008548Y001230D01*
X008548Y002569D01*
X008566Y002556D01*
X008638Y002519D01*
X008716Y002494D01*
X008788Y002483D01*
X008788Y002951D01*
X008888Y002951D01*
X008888Y002483D01*
X008960Y002494D01*
X009038Y002519D01*
X009111Y002556D01*
X009177Y002605D01*
X009235Y002662D01*
X009283Y002729D01*
X009320Y002802D01*
X009345Y002879D01*
X009357Y002951D01*
X008888Y002951D01*
X008888Y003051D01*
X009357Y003051D01*
X009345Y003123D01*
X009320Y003201D01*
X009283Y003274D01*
X009235Y003340D01*
X009177Y003398D01*
X009111Y003446D01*
X009038Y003483D01*
X009016Y003490D01*
X009144Y003543D01*
X009296Y003695D01*
X009378Y003894D01*
X009378Y004109D01*
X009296Y004307D01*
X009144Y004459D01*
X009042Y004501D01*
X009144Y004543D01*
X009296Y004695D01*
X009319Y004751D01*
X009888Y004751D01*
X009980Y004789D01*
X010050Y004860D01*
X010642Y005451D01*
X011567Y005451D01*
X011587Y005431D01*
X011571Y005431D01*
X011523Y005383D01*
X011475Y005431D01*
X010783Y005431D01*
X010684Y005331D01*
X010684Y004403D01*
X010731Y004356D01*
X010629Y004314D01*
X010526Y004210D01*
X010470Y004075D01*
X010470Y003928D01*
X010526Y003793D01*
X010629Y003689D01*
X010731Y003647D01*
X010684Y003599D01*
X010684Y002671D01*
X010783Y002571D01*
X011475Y002571D01*
X011523Y002619D01*
X011571Y002571D01*
X012105Y002571D01*
X012153Y002619D01*
X012201Y002571D01*
X012893Y002571D01*
X012992Y002671D01*
X012992Y003599D01*
X012945Y003647D01*
X013047Y003689D01*
X013150Y003793D01*
X013206Y003928D01*
X013206Y004075D01*
X013150Y004210D01*
X013047Y004314D01*
X012925Y004364D01*
X012942Y004382D01*
X012962Y004416D01*
X012972Y004454D01*
X012972Y004817D01*
X012597Y004817D01*
X012597Y004324D01*
X012654Y004324D01*
X012629Y004314D01*
X012526Y004210D01*
X012470Y004075D01*
X012470Y003986D01*
X012335Y003851D01*
X012297Y003760D01*
X012297Y003699D01*
X012201Y003699D01*
X012153Y003651D01*
X012105Y003699D01*
X012088Y003699D01*
X012088Y003730D01*
X012150Y003793D01*
X012206Y003928D01*
X012206Y004075D01*
X012150Y004210D01*
X012057Y004304D01*
X012105Y004304D01*
X012167Y004366D01*
X012179Y004354D01*
X012213Y004334D01*
X012251Y004324D01*
X012497Y004324D01*
X012497Y004817D01*
X012597Y004817D01*
X012597Y004917D01*
X012972Y004917D01*
X012972Y005281D01*
X012962Y005319D01*
X012942Y005353D01*
X012914Y005381D01*
X012880Y005401D01*
X012842Y005411D01*
X012597Y005411D01*
X012597Y004918D01*
X012497Y004918D01*
X012497Y005411D01*
X012251Y005411D01*
X012213Y005401D01*
X012179Y005381D01*
X012167Y005369D01*
X012105Y005431D01*
X012089Y005431D01*
X012150Y005493D01*
X012206Y005628D01*
X012206Y005775D01*
X013241Y005775D01*
X013124Y005874D02*
X012165Y005874D01*
X012150Y005910D02*
X012047Y006014D01*
X011911Y006070D01*
X011765Y006070D01*
X011629Y006014D01*
X011567Y005951D01*
X010606Y005951D01*
X010735Y006175D01*
X010793Y006501D01*
X010793Y006501D01*
X010735Y006828D01*
X010569Y007115D01*
X010315Y007328D01*
X010004Y007441D01*
X009925Y007441D01*
X009838Y007441D01*
X009835Y007441D01*
X009751Y007441D01*
X009672Y007441D01*
X009361Y007328D01*
X009107Y007115D01*
X009107Y007115D01*
X009107Y007115D01*
X008941Y006828D01*
X008941Y006828D01*
X008884Y006501D01*
X008941Y006175D01*
X009107Y005888D01*
X009107Y005888D01*
X009361Y005675D01*
X009672Y005561D01*
X009672Y005561D01*
X009751Y005561D01*
X009838Y005561D01*
X010004Y005561D01*
X010068Y005585D01*
X009735Y005251D01*
X009319Y005251D01*
X009296Y005307D01*
X009144Y005459D01*
X008946Y005541D01*
X008731Y005541D01*
X008548Y005466D01*
X008548Y007501D01*
X015338Y007501D01*
X015338Y005205D01*
X015296Y005307D01*
X015338Y005381D02*
X015222Y005381D01*
X015338Y005479D02*
X015095Y005479D01*
X015338Y005578D02*
X014050Y005578D01*
X014004Y005561D02*
X014315Y005675D01*
X014569Y005888D01*
X014735Y006175D01*
X014793Y006501D01*
X014793Y006501D01*
X014769Y006634D01*
X014911Y006634D01*
X015046Y006690D01*
X015149Y006793D01*
X015205Y006928D01*
X015205Y007074D01*
X015149Y007209D01*
X015046Y007312D01*
X014911Y007368D01*
X014765Y007368D01*
X014630Y007312D01*
X014527Y007209D01*
X014509Y007165D01*
X014315Y007328D01*
X014004Y007441D01*
X013925Y007441D01*
X013838Y007441D01*
X013819Y007441D01*
X013751Y007441D01*
X013672Y007441D01*
X013361Y007328D01*
X013107Y007115D01*
X013107Y007115D01*
X013107Y007115D01*
X012941Y006828D01*
X012941Y006828D01*
X012884Y006501D01*
X012941Y006175D01*
X013107Y005888D01*
X013107Y005888D01*
X013361Y005675D01*
X013672Y005561D01*
X013672Y005561D01*
X013838Y005561D01*
X013925Y005561D01*
X014004Y005561D01*
X014004Y005561D01*
X014315Y005675D02*
X014315Y005675D01*
X014318Y005676D02*
X015338Y005676D01*
X015338Y005775D02*
X014435Y005775D01*
X014552Y005874D02*
X015338Y005874D01*
X015338Y005972D02*
X014618Y005972D01*
X014569Y005888D02*
X014569Y005888D01*
X014569Y005888D01*
X014675Y006071D02*
X015338Y006071D01*
X015338Y006169D02*
X014732Y006169D01*
X014735Y006175D02*
X014735Y006175D01*
X014751Y006268D02*
X015338Y006268D01*
X015338Y006366D02*
X014769Y006366D01*
X014786Y006465D02*
X015338Y006465D01*
X015338Y006563D02*
X014782Y006563D01*
X014978Y006662D02*
X015338Y006662D01*
X015338Y006760D02*
X015116Y006760D01*
X015176Y006859D02*
X015338Y006859D01*
X015338Y006958D02*
X015205Y006958D01*
X015205Y007056D02*
X015338Y007056D01*
X015338Y007155D02*
X015172Y007155D01*
X015105Y007253D02*
X015338Y007253D01*
X015338Y007352D02*
X014951Y007352D01*
X014726Y007352D02*
X014250Y007352D01*
X014315Y007328D02*
X014315Y007328D01*
X014404Y007253D02*
X014571Y007253D01*
X014004Y007441D02*
X014004Y007441D01*
X013672Y007441D02*
X013672Y007441D01*
X013427Y007352D02*
X010250Y007352D01*
X010315Y007328D02*
X010315Y007328D01*
X010404Y007253D02*
X013272Y007253D01*
X013361Y007328D02*
X013361Y007328D01*
X013154Y007155D02*
X010522Y007155D01*
X010569Y007115D02*
X010569Y007115D01*
X010603Y007056D02*
X013073Y007056D01*
X013016Y006958D02*
X010660Y006958D01*
X010717Y006859D02*
X012959Y006859D01*
X012929Y006760D02*
X010747Y006760D01*
X010735Y006828D02*
X010735Y006828D01*
X010764Y006662D02*
X012912Y006662D01*
X012895Y006563D02*
X010782Y006563D01*
X010786Y006465D02*
X012890Y006465D01*
X012884Y006501D02*
X012884Y006501D01*
X012907Y006366D02*
X010769Y006366D01*
X010751Y006268D02*
X012925Y006268D01*
X012941Y006175D02*
X012941Y006175D01*
X012944Y006169D02*
X010732Y006169D01*
X010735Y006175D02*
X010735Y006175D01*
X010675Y006071D02*
X013001Y006071D01*
X013058Y005972D02*
X012088Y005972D01*
X012150Y005910D02*
X012206Y005775D01*
X012206Y005676D02*
X013359Y005676D01*
X013361Y005675D02*
X013361Y005675D01*
X013626Y005578D02*
X012186Y005578D01*
X012137Y005479D02*
X014581Y005479D01*
X014454Y005381D02*
X012915Y005381D01*
X012972Y005282D02*
X014370Y005282D01*
X014329Y005184D02*
X012972Y005184D01*
X012972Y005085D02*
X014298Y005085D01*
X014298Y004987D02*
X012972Y004987D01*
X012972Y004790D02*
X014341Y004790D01*
X014300Y004888D02*
X012597Y004888D01*
X012597Y004790D02*
X012497Y004790D01*
X012497Y004691D02*
X012597Y004691D01*
X012597Y004593D02*
X012497Y004593D01*
X012497Y004494D02*
X012597Y004494D01*
X012597Y004395D02*
X012497Y004395D01*
X012613Y004297D02*
X012063Y004297D01*
X012155Y004198D02*
X012521Y004198D01*
X012480Y004100D02*
X012196Y004100D01*
X012206Y004001D02*
X012470Y004001D01*
X012386Y003903D02*
X012196Y003903D01*
X012155Y003804D02*
X012315Y003804D01*
X012297Y003706D02*
X012088Y003706D01*
X012984Y003607D02*
X014469Y003607D01*
X014376Y003706D02*
X013063Y003706D01*
X013155Y003804D02*
X014335Y003804D01*
X014298Y003903D02*
X013196Y003903D01*
X013206Y004001D02*
X014298Y004001D01*
X014298Y004100D02*
X013196Y004100D01*
X013155Y004198D02*
X014335Y004198D01*
X014376Y004297D02*
X013063Y004297D01*
X012950Y004395D02*
X014469Y004395D01*
X014617Y004494D02*
X012972Y004494D01*
X012972Y004593D02*
X014483Y004593D01*
X014385Y004691D02*
X012972Y004691D01*
X012597Y004987D02*
X012497Y004987D01*
X012497Y005085D02*
X012597Y005085D01*
X012597Y005184D02*
X012497Y005184D01*
X012497Y005282D02*
X012597Y005282D01*
X012597Y005381D02*
X012497Y005381D01*
X012179Y005381D02*
X012156Y005381D01*
X011588Y005972D02*
X010618Y005972D01*
X010061Y005578D02*
X010050Y005578D01*
X010004Y005561D02*
X010004Y005561D01*
X009963Y005479D02*
X009095Y005479D01*
X009222Y005381D02*
X009864Y005381D01*
X009766Y005282D02*
X009306Y005282D01*
X009626Y005578D02*
X008548Y005578D01*
X008548Y005676D02*
X009359Y005676D01*
X009361Y005675D02*
X009361Y005675D01*
X009241Y005775D02*
X008548Y005775D01*
X008548Y005874D02*
X009124Y005874D01*
X009058Y005972D02*
X008548Y005972D01*
X008548Y006071D02*
X009001Y006071D01*
X008944Y006169D02*
X008548Y006169D01*
X008548Y006268D02*
X008925Y006268D01*
X008907Y006366D02*
X008548Y006366D01*
X008548Y006465D02*
X008890Y006465D01*
X008884Y006501D02*
X008884Y006501D01*
X008895Y006563D02*
X008548Y006563D01*
X008548Y006662D02*
X008912Y006662D01*
X008929Y006760D02*
X008548Y006760D01*
X008548Y006859D02*
X008959Y006859D01*
X009016Y006958D02*
X008548Y006958D01*
X008548Y007056D02*
X009073Y007056D01*
X009154Y007155D02*
X008548Y007155D01*
X008548Y007253D02*
X009272Y007253D01*
X009361Y007328D02*
X009361Y007328D01*
X009427Y007352D02*
X008548Y007352D01*
X008548Y007450D02*
X015338Y007450D01*
X018004Y007441D02*
X018004Y007441D01*
X018250Y007352D02*
X021427Y007352D01*
X021361Y007328D02*
X021361Y007328D01*
X021272Y007253D02*
X018404Y007253D01*
X018315Y007328D02*
X018315Y007328D01*
X018522Y007155D02*
X021154Y007155D01*
X021073Y007056D02*
X018603Y007056D01*
X018569Y007115D02*
X018569Y007115D01*
X018660Y006958D02*
X021016Y006958D01*
X020959Y006859D02*
X018717Y006859D01*
X018735Y006828D02*
X018735Y006828D01*
X018747Y006760D02*
X020929Y006760D01*
X020912Y006662D02*
X018764Y006662D01*
X018782Y006563D02*
X020895Y006563D01*
X020884Y006501D02*
X020884Y006501D01*
X020890Y006465D02*
X018786Y006465D01*
X018769Y006366D02*
X020907Y006366D01*
X020925Y006268D02*
X018751Y006268D01*
X018735Y006175D02*
X018735Y006175D01*
X018732Y006169D02*
X020944Y006169D01*
X020941Y006175D02*
X020941Y006175D01*
X021001Y006071D02*
X018675Y006071D01*
X018618Y005972D02*
X019588Y005972D01*
X020088Y005972D02*
X021058Y005972D01*
X021359Y005676D02*
X020206Y005676D01*
X020206Y005775D02*
X020150Y005910D01*
X020186Y005578D02*
X021626Y005578D01*
X021361Y005675D02*
X021361Y005675D01*
X020915Y005381D02*
X022454Y005381D01*
X022370Y005282D02*
X020972Y005282D01*
X020972Y005184D02*
X022329Y005184D01*
X022298Y005085D02*
X020972Y005085D01*
X020972Y004987D02*
X022298Y004987D01*
X022300Y004888D02*
X020597Y004888D01*
X020597Y004790D02*
X020497Y004790D01*
X020497Y004691D02*
X020597Y004691D01*
X020597Y004593D02*
X020497Y004593D01*
X020497Y004494D02*
X020597Y004494D01*
X020597Y004395D02*
X020497Y004395D01*
X020613Y004297D02*
X020063Y004297D01*
X020155Y004198D02*
X020521Y004198D01*
X020480Y004100D02*
X020196Y004100D01*
X020206Y004001D02*
X020470Y004001D01*
X020386Y003903D02*
X020196Y003903D01*
X020155Y003804D02*
X020315Y003804D01*
X020297Y003706D02*
X020088Y003706D01*
X020984Y003607D02*
X022469Y003607D01*
X022376Y003706D02*
X021063Y003706D01*
X021155Y003804D02*
X022335Y003804D01*
X022298Y003903D02*
X021196Y003903D01*
X021206Y004001D02*
X022298Y004001D01*
X022298Y004100D02*
X021196Y004100D01*
X021155Y004198D02*
X022335Y004198D01*
X022376Y004297D02*
X021063Y004297D01*
X020950Y004395D02*
X022469Y004395D01*
X022617Y004494D02*
X020972Y004494D01*
X020972Y004593D02*
X022483Y004593D01*
X022385Y004691D02*
X020972Y004691D01*
X020972Y004790D02*
X022341Y004790D01*
X022581Y005479D02*
X020137Y005479D01*
X020156Y005381D02*
X020179Y005381D01*
X020497Y005381D02*
X020597Y005381D01*
X020597Y005282D02*
X020497Y005282D01*
X020497Y005184D02*
X020597Y005184D01*
X020597Y005085D02*
X020497Y005085D01*
X020497Y004987D02*
X020597Y004987D01*
X022004Y005561D02*
X022004Y005561D01*
X022050Y005578D02*
X023128Y005578D01*
X023128Y005676D02*
X022318Y005676D01*
X022315Y005675D02*
X022315Y005675D01*
X022435Y005775D02*
X023128Y005775D01*
X023128Y005874D02*
X022552Y005874D01*
X022569Y005888D02*
X022569Y005888D01*
X022569Y005888D01*
X022618Y005972D02*
X023128Y005972D01*
X023128Y006071D02*
X022675Y006071D01*
X022732Y006169D02*
X023128Y006169D01*
X023128Y006268D02*
X022751Y006268D01*
X022735Y006175D02*
X022735Y006175D01*
X022769Y006366D02*
X023128Y006366D01*
X023128Y006465D02*
X022786Y006465D01*
X022782Y006563D02*
X023128Y006563D01*
X023128Y006662D02*
X022978Y006662D01*
X023116Y006760D02*
X023128Y006760D01*
X023105Y007253D02*
X023128Y007253D01*
X023128Y007352D02*
X022951Y007352D01*
X022726Y007352D02*
X022250Y007352D01*
X022315Y007328D02*
X022315Y007328D01*
X022404Y007253D02*
X022571Y007253D01*
X022004Y007441D02*
X022004Y007441D01*
X021672Y007441D02*
X021672Y007441D01*
X023095Y005479D02*
X023128Y005479D01*
X018733Y005381D02*
X018571Y005381D01*
X018473Y005282D02*
X018684Y005282D01*
X018684Y005184D02*
X018374Y005184D01*
X018276Y005085D02*
X018684Y005085D01*
X018684Y004987D02*
X018177Y004987D01*
X018079Y004888D02*
X018684Y004888D01*
X018684Y004790D02*
X017980Y004790D01*
X017292Y004691D02*
X018684Y004691D01*
X018684Y004593D02*
X017193Y004593D01*
X017060Y004494D02*
X018684Y004494D01*
X018692Y004395D02*
X017208Y004395D01*
X017300Y004297D02*
X018613Y004297D01*
X018521Y004198D02*
X017341Y004198D01*
X017378Y004100D02*
X018480Y004100D01*
X018470Y004001D02*
X017378Y004001D01*
X017378Y003903D02*
X018480Y003903D01*
X018521Y003804D02*
X017341Y003804D01*
X017300Y003706D02*
X018613Y003706D01*
X018692Y003607D02*
X017208Y003607D01*
X017060Y003509D02*
X018684Y003509D01*
X018684Y003410D02*
X017160Y003410D01*
X017255Y003311D02*
X018684Y003311D01*
X018684Y003213D02*
X017314Y003213D01*
X017347Y003114D02*
X018684Y003114D01*
X018684Y003016D02*
X016888Y003016D01*
X016888Y002917D02*
X016788Y002917D01*
X016788Y002819D02*
X016888Y002819D01*
X016888Y002720D02*
X016788Y002720D01*
X016788Y002622D02*
X016888Y002622D01*
X016888Y002523D02*
X016788Y002523D01*
X016631Y002523D02*
X016338Y002523D01*
X016338Y002425D02*
X017627Y002425D01*
X017672Y002441D02*
X017672Y002441D01*
X017361Y002328D02*
X017361Y002328D01*
X017359Y002326D02*
X016338Y002326D01*
X016338Y002227D02*
X017241Y002227D01*
X017124Y002129D02*
X016338Y002129D01*
X016338Y002030D02*
X017058Y002030D01*
X017001Y001932D02*
X016338Y001932D01*
X016338Y001833D02*
X016944Y001833D01*
X016925Y001735D02*
X016338Y001735D01*
X016338Y001636D02*
X016907Y001636D01*
X016890Y001538D02*
X016338Y001538D01*
X016338Y001439D02*
X016895Y001439D01*
X016884Y001501D02*
X016884Y001501D01*
X016699Y001341D02*
X016338Y001341D01*
X016338Y001242D02*
X016560Y001242D01*
X016500Y001144D02*
X016338Y001144D01*
X016338Y001045D02*
X016471Y001045D01*
X016471Y000946D02*
X016338Y000946D01*
X016338Y000848D02*
X016505Y000848D01*
X016571Y000749D02*
X016338Y000749D01*
X015338Y000749D02*
X014404Y000749D01*
X014522Y000848D02*
X015338Y000848D01*
X015338Y000946D02*
X014603Y000946D01*
X014569Y000888D02*
X014569Y000888D01*
X014569Y000888D01*
X014660Y001045D02*
X015338Y001045D01*
X015338Y001144D02*
X014717Y001144D01*
X014735Y001175D02*
X014735Y001175D01*
X014747Y001242D02*
X015338Y001242D01*
X015338Y001341D02*
X014764Y001341D01*
X014782Y001439D02*
X015338Y001439D01*
X015338Y001538D02*
X014786Y001538D01*
X014769Y001636D02*
X015338Y001636D01*
X015338Y001735D02*
X014751Y001735D01*
X014735Y001828D02*
X014735Y001828D01*
X014732Y001833D02*
X015338Y001833D01*
X015338Y001932D02*
X014675Y001932D01*
X014618Y002030D02*
X015338Y002030D01*
X015338Y002129D02*
X014552Y002129D01*
X014569Y002115D02*
X014569Y002115D01*
X014435Y002227D02*
X015338Y002227D01*
X015338Y002326D02*
X014317Y002326D01*
X014315Y002328D02*
X014315Y002328D01*
X014050Y002425D02*
X015338Y002425D01*
X015338Y002523D02*
X015045Y002523D01*
X014888Y002523D02*
X014788Y002523D01*
X014788Y002483D02*
X014788Y002951D01*
X014320Y002951D01*
X014331Y002879D01*
X014356Y002802D01*
X014393Y002729D01*
X014441Y002662D01*
X014499Y002605D01*
X014566Y002556D01*
X014638Y002519D01*
X014716Y002494D01*
X014788Y002483D01*
X014788Y002622D02*
X014888Y002622D01*
X014888Y002720D02*
X014788Y002720D01*
X014788Y002819D02*
X014888Y002819D01*
X014888Y002917D02*
X014788Y002917D01*
X014788Y003016D02*
X012992Y003016D01*
X012992Y003114D02*
X014330Y003114D01*
X014362Y003213D02*
X012992Y003213D01*
X012992Y003311D02*
X014421Y003311D01*
X014516Y003410D02*
X012992Y003410D01*
X012992Y003509D02*
X014617Y003509D01*
X014325Y002917D02*
X012992Y002917D01*
X012992Y002819D02*
X014351Y002819D01*
X014399Y002720D02*
X012992Y002720D01*
X012943Y002622D02*
X014482Y002622D01*
X014631Y002523D02*
X009045Y002523D01*
X008888Y002523D02*
X008788Y002523D01*
X008788Y002622D02*
X008888Y002622D01*
X008888Y002720D02*
X008788Y002720D01*
X008788Y002819D02*
X008888Y002819D01*
X008888Y002917D02*
X008788Y002917D01*
X008888Y003016D02*
X010684Y003016D01*
X010684Y003114D02*
X009347Y003114D01*
X009314Y003213D02*
X010684Y003213D01*
X010684Y003311D02*
X009255Y003311D01*
X009160Y003410D02*
X010684Y003410D01*
X010684Y003509D02*
X009060Y003509D01*
X009208Y003607D02*
X010692Y003607D01*
X010613Y003706D02*
X009300Y003706D01*
X009341Y003804D02*
X010521Y003804D01*
X010480Y003903D02*
X009378Y003903D01*
X009378Y004001D02*
X010470Y004001D01*
X010480Y004100D02*
X009378Y004100D01*
X009341Y004198D02*
X010521Y004198D01*
X010613Y004297D02*
X009300Y004297D01*
X009208Y004395D02*
X010692Y004395D01*
X010684Y004494D02*
X009060Y004494D01*
X009193Y004593D02*
X010684Y004593D01*
X010684Y004691D02*
X009292Y004691D01*
X009980Y004790D02*
X010684Y004790D01*
X010684Y004888D02*
X010079Y004888D01*
X010177Y004987D02*
X010684Y004987D01*
X010684Y005085D02*
X010276Y005085D01*
X010374Y005184D02*
X010684Y005184D01*
X010684Y005282D02*
X010473Y005282D01*
X010571Y005381D02*
X010733Y005381D01*
X008582Y005479D02*
X008548Y005479D01*
X009672Y007441D02*
X009672Y007441D01*
X010004Y007441D02*
X010004Y007441D01*
X010200Y008633D02*
X013476Y008633D01*
X013361Y008675D02*
X013672Y008561D01*
X013672Y008561D01*
X013751Y008561D01*
X013838Y008561D01*
X014004Y008561D01*
X014315Y008675D01*
X014569Y008888D01*
X014735Y009175D01*
X014793Y009501D01*
X014793Y009501D01*
X014735Y009828D01*
X014569Y010115D01*
X014315Y010328D01*
X014004Y010441D01*
X013925Y010441D01*
X013838Y010441D01*
X013836Y010441D01*
X013751Y010441D01*
X013672Y010441D01*
X013361Y010328D01*
X013107Y010115D01*
X013107Y010115D01*
X013107Y010115D01*
X012941Y009828D01*
X012884Y009501D01*
X012941Y009175D01*
X013107Y008888D01*
X013107Y008888D01*
X013361Y008675D01*
X013361Y008675D01*
X013293Y008731D02*
X010383Y008731D01*
X010500Y008830D02*
X013176Y008830D01*
X013083Y008928D02*
X010593Y008928D01*
X010650Y009027D02*
X013027Y009027D01*
X012970Y009126D02*
X010707Y009126D01*
X010744Y009224D02*
X012932Y009224D01*
X012915Y009323D02*
X010761Y009323D01*
X010778Y009421D02*
X012898Y009421D01*
X012887Y009520D02*
X010789Y009520D01*
X010772Y009618D02*
X012904Y009618D01*
X012922Y009717D02*
X010755Y009717D01*
X010737Y009815D02*
X012939Y009815D01*
X012991Y009914D02*
X010685Y009914D01*
X010628Y010012D02*
X013048Y010012D01*
X013105Y010111D02*
X010571Y010111D01*
X010456Y010209D02*
X013220Y010209D01*
X013337Y010308D02*
X010339Y010308D01*
X010099Y010407D02*
X013577Y010407D01*
X013672Y010441D02*
X013672Y010441D01*
X013361Y010328D02*
X013361Y010328D01*
X014004Y010441D02*
X014004Y010441D01*
X014099Y010407D02*
X015338Y010407D01*
X015338Y010505D02*
X014994Y010505D01*
X015176Y010604D02*
X015338Y010604D01*
X015338Y010702D02*
X015264Y010702D01*
X015319Y010801D02*
X015338Y010801D01*
X014501Y010604D02*
X012925Y010604D01*
X012992Y010702D02*
X014413Y010702D01*
X014357Y010801D02*
X012992Y010801D01*
X012992Y010899D02*
X014328Y010899D01*
X014315Y010328D02*
X014315Y010328D01*
X014339Y010308D02*
X015338Y010308D01*
X015338Y010209D02*
X014456Y010209D01*
X014569Y010115D02*
X014569Y010115D01*
X014571Y010111D02*
X015338Y010111D01*
X015338Y010012D02*
X014628Y010012D01*
X014685Y009914D02*
X015338Y009914D01*
X015338Y009815D02*
X014737Y009815D01*
X014735Y009828D02*
X014735Y009828D01*
X014755Y009717D02*
X015338Y009717D01*
X015338Y009618D02*
X014772Y009618D01*
X014789Y009520D02*
X015338Y009520D01*
X015338Y009421D02*
X014778Y009421D01*
X014761Y009323D02*
X015338Y009323D01*
X015338Y009224D02*
X014744Y009224D01*
X014735Y009175D02*
X014735Y009175D01*
X014707Y009126D02*
X015338Y009126D01*
X015338Y009027D02*
X014650Y009027D01*
X014593Y008928D02*
X015338Y008928D01*
X015338Y008830D02*
X014500Y008830D01*
X014569Y008888D02*
X014569Y008888D01*
X014569Y008888D01*
X014383Y008731D02*
X015338Y008731D01*
X015338Y008633D02*
X014200Y008633D01*
X014315Y008675D02*
X014315Y008675D01*
X014004Y008561D02*
X014004Y008561D01*
X015338Y008534D02*
X008548Y008534D01*
X008548Y008633D02*
X009476Y008633D01*
X009293Y008731D02*
X009087Y008731D01*
X009164Y008830D02*
X009176Y008830D01*
X008589Y008731D02*
X008548Y008731D01*
X008548Y009323D02*
X008655Y009323D01*
X008548Y009421D02*
X008898Y009421D01*
X008887Y009520D02*
X008548Y009520D01*
X008548Y009618D02*
X008904Y009618D01*
X008922Y009717D02*
X008548Y009717D01*
X008548Y009815D02*
X008939Y009815D01*
X011508Y010604D02*
X011539Y010604D01*
X012138Y010604D02*
X012169Y010604D01*
X010684Y011195D02*
X009322Y011195D01*
X009269Y011293D02*
X010684Y011293D01*
X010684Y011392D02*
X009183Y011392D01*
X009016Y011491D02*
X010684Y011491D01*
X010684Y011589D02*
X009190Y011589D01*
X009288Y011688D02*
X010633Y011688D01*
X010532Y011786D02*
X009333Y011786D01*
X009374Y011885D02*
X010488Y011885D01*
X010470Y011983D02*
X009378Y011983D01*
X009378Y012082D02*
X010473Y012082D01*
X010514Y012180D02*
X009348Y012180D01*
X009308Y012279D02*
X010595Y012279D01*
X010710Y012377D02*
X009226Y012377D01*
X009103Y012476D02*
X010684Y012476D01*
X010684Y012575D02*
X009175Y012575D01*
X009274Y012673D02*
X010684Y012673D01*
X010684Y012772D02*
X009937Y012772D01*
X010061Y012870D02*
X010684Y012870D01*
X010684Y012969D02*
X010159Y012969D01*
X010258Y013067D02*
X010684Y013067D01*
X010684Y013166D02*
X010356Y013166D01*
X010455Y013264D02*
X010684Y013264D01*
X010715Y013363D02*
X010553Y013363D01*
X010608Y013954D02*
X011570Y013954D01*
X011724Y014053D02*
X010664Y014053D01*
X012497Y012772D02*
X012597Y012772D01*
X012597Y012673D02*
X012497Y012673D01*
X012497Y012575D02*
X012597Y012575D01*
X012597Y012476D02*
X012497Y012476D01*
X012497Y012377D02*
X012597Y012377D01*
X012595Y012279D02*
X012081Y012279D01*
X012163Y012180D02*
X012514Y012180D01*
X012473Y012082D02*
X012204Y012082D01*
X012206Y011983D02*
X012467Y011983D01*
X012368Y011885D02*
X012189Y011885D01*
X012144Y011786D02*
X012308Y011786D01*
X012190Y011688D02*
X012116Y011688D01*
X020992Y003509D02*
X022617Y003509D01*
X022516Y003410D02*
X020992Y003410D01*
X020992Y003311D02*
X022421Y003311D01*
X022362Y003213D02*
X020992Y003213D01*
X020992Y003114D02*
X022330Y003114D01*
X022320Y002951D02*
X022331Y002879D01*
X022356Y002802D01*
X022393Y002729D01*
X022441Y002662D01*
X022499Y002605D01*
X022566Y002556D01*
X022638Y002519D01*
X022716Y002494D01*
X022788Y002483D01*
X022788Y002951D01*
X022320Y002951D01*
X022325Y002917D02*
X020992Y002917D01*
X020992Y002819D02*
X022351Y002819D01*
X022399Y002720D02*
X020992Y002720D01*
X020943Y002622D02*
X022482Y002622D01*
X022631Y002523D02*
X017045Y002523D01*
X017194Y002622D02*
X018733Y002622D01*
X018684Y002720D02*
X017277Y002720D01*
X017326Y002819D02*
X018684Y002819D01*
X018684Y002917D02*
X017351Y002917D01*
X016482Y002622D02*
X016338Y002622D01*
X016338Y002720D02*
X016399Y002720D01*
X016351Y002819D02*
X016338Y002819D01*
X015338Y002819D02*
X015326Y002819D01*
X015338Y002720D02*
X015277Y002720D01*
X015338Y002622D02*
X015194Y002622D01*
X014004Y002441D02*
X014004Y002441D01*
X013672Y002441D02*
X013672Y002441D01*
X013627Y002425D02*
X010050Y002425D01*
X010004Y002441D02*
X010004Y002441D01*
X010315Y002328D02*
X010315Y002328D01*
X010317Y002326D02*
X013359Y002326D01*
X013361Y002328D02*
X013361Y002328D01*
X013241Y002227D02*
X010435Y002227D01*
X010552Y002129D02*
X013124Y002129D01*
X013058Y002030D02*
X010618Y002030D01*
X010569Y002115D02*
X010569Y002115D01*
X010675Y001932D02*
X013001Y001932D01*
X012944Y001833D02*
X010732Y001833D01*
X010735Y001828D02*
X010735Y001828D01*
X010751Y001735D02*
X012925Y001735D01*
X012907Y001636D02*
X010769Y001636D01*
X010786Y001538D02*
X012890Y001538D01*
X012884Y001501D02*
X012884Y001501D01*
X012895Y001439D02*
X010782Y001439D01*
X010764Y001341D02*
X012912Y001341D01*
X012929Y001242D02*
X010747Y001242D01*
X010735Y001175D02*
X010735Y001175D01*
X010717Y001144D02*
X012959Y001144D01*
X012941Y001175D02*
X012941Y001175D01*
X013016Y001045D02*
X010660Y001045D01*
X010603Y000946D02*
X013073Y000946D01*
X013154Y000848D02*
X010522Y000848D01*
X010569Y000888D02*
X010569Y000888D01*
X010569Y000888D01*
X010404Y000749D02*
X013272Y000749D01*
X009124Y002129D02*
X008548Y002129D01*
X008548Y002227D02*
X009241Y002227D01*
X009359Y002326D02*
X008548Y002326D01*
X008548Y002425D02*
X009627Y002425D01*
X009672Y002441D02*
X009672Y002441D01*
X009361Y002328D02*
X009361Y002328D01*
X009194Y002622D02*
X010733Y002622D01*
X010684Y002720D02*
X009277Y002720D01*
X009326Y002819D02*
X010684Y002819D01*
X010684Y002917D02*
X009351Y002917D01*
X008631Y002523D02*
X008548Y002523D01*
X008548Y002030D02*
X009058Y002030D01*
X009001Y001932D02*
X008548Y001932D01*
X008548Y001833D02*
X008944Y001833D01*
X008925Y001735D02*
X008548Y001735D01*
X008548Y001636D02*
X008907Y001636D01*
X008890Y001538D02*
X008548Y001538D01*
X008548Y001439D02*
X008895Y001439D01*
X008884Y001501D02*
X008884Y001501D01*
X008699Y001341D02*
X008548Y001341D01*
X008548Y001242D02*
X008560Y001242D01*
X018004Y002441D02*
X018004Y002441D01*
X018050Y002425D02*
X021627Y002425D01*
X021672Y002441D02*
X021672Y002441D01*
X021361Y002328D02*
X021361Y002328D01*
X021359Y002326D02*
X018317Y002326D01*
X018315Y002328D02*
X018315Y002328D01*
X018435Y002227D02*
X021241Y002227D01*
X021124Y002129D02*
X018552Y002129D01*
X018569Y002115D02*
X018569Y002115D01*
X018618Y002030D02*
X021058Y002030D01*
X021001Y001932D02*
X018675Y001932D01*
X018732Y001833D02*
X020944Y001833D01*
X020925Y001735D02*
X018751Y001735D01*
X018735Y001828D02*
X018735Y001828D01*
X018769Y001636D02*
X020907Y001636D01*
X020890Y001538D02*
X018786Y001538D01*
X018782Y001439D02*
X020895Y001439D01*
X020884Y001501D02*
X020884Y001501D01*
X020912Y001341D02*
X018764Y001341D01*
X018747Y001242D02*
X020929Y001242D01*
X020941Y001175D02*
X020941Y001175D01*
X020959Y001144D02*
X018717Y001144D01*
X018735Y001175D02*
X018735Y001175D01*
X018660Y001045D02*
X021016Y001045D01*
X021073Y000946D02*
X018603Y000946D01*
X018569Y000888D02*
X018569Y000888D01*
X018569Y000888D01*
X018522Y000848D02*
X021154Y000848D01*
X021272Y000749D02*
X018404Y000749D01*
X022404Y000749D02*
X023128Y000749D01*
X023128Y000848D02*
X022522Y000848D01*
X022569Y000888D02*
X022569Y000888D01*
X022569Y000888D01*
X022603Y000946D02*
X023128Y000946D01*
X023128Y001045D02*
X022660Y001045D01*
X022717Y001144D02*
X023128Y001144D01*
X023128Y001242D02*
X022747Y001242D01*
X022735Y001175D02*
X022735Y001175D01*
X022764Y001341D02*
X023128Y001341D01*
X023128Y001439D02*
X022782Y001439D01*
X022786Y001538D02*
X023128Y001538D01*
X023128Y001636D02*
X022769Y001636D01*
X022751Y001735D02*
X023128Y001735D01*
X023128Y001833D02*
X022732Y001833D01*
X022735Y001828D02*
X022735Y001828D01*
X022675Y001932D02*
X023128Y001932D01*
X023128Y002030D02*
X022618Y002030D01*
X022569Y002115D02*
X022569Y002115D01*
X022552Y002129D02*
X023128Y002129D01*
X023128Y002227D02*
X022435Y002227D01*
X022317Y002326D02*
X023128Y002326D01*
X023128Y002425D02*
X022050Y002425D01*
X022004Y002441D02*
X022004Y002441D01*
X022315Y002328D02*
X022315Y002328D01*
X022788Y002523D02*
X022888Y002523D01*
X022888Y002622D02*
X022788Y002622D01*
X022788Y002720D02*
X022888Y002720D01*
X022888Y002819D02*
X022788Y002819D01*
X022788Y002917D02*
X022888Y002917D01*
X022788Y003016D02*
X020992Y003016D01*
X023045Y002523D02*
X023128Y002523D01*
M02*
