G75*
G70*
%OFA0B0*%
%FSLAX24Y24*%
%IPPOS*%
%LPD*%
%AMOC8*
5,1,8,0,0,1.08239X$1,22.5*
%
%ADD10C,0.0080*%
%ADD11C,0.0000*%
%ADD12C,0.0050*%
%ADD13R,0.0354X0.0276*%
%ADD14C,0.0394*%
%ADD15C,0.0740*%
%ADD16C,0.0160*%
%ADD17C,0.0397*%
%ADD18C,0.0100*%
D10*
X008338Y000501D02*
X015338Y000501D01*
X015338Y002501D01*
X015838Y003001D02*
X015882Y002999D01*
X015925Y002993D01*
X015967Y002984D01*
X016009Y002971D01*
X016049Y002954D01*
X016088Y002934D01*
X016125Y002911D01*
X016159Y002884D01*
X016192Y002855D01*
X016221Y002822D01*
X016248Y002788D01*
X016271Y002751D01*
X016291Y002712D01*
X016308Y002672D01*
X016321Y002630D01*
X016330Y002588D01*
X016336Y002545D01*
X016338Y002501D01*
X016338Y000501D01*
X023338Y000501D01*
X023338Y007501D01*
X021338Y007501D01*
X021294Y007503D01*
X021251Y007509D01*
X021209Y007518D01*
X021167Y007531D01*
X021127Y007548D01*
X021088Y007568D01*
X021051Y007591D01*
X021017Y007618D01*
X020984Y007647D01*
X020955Y007680D01*
X020928Y007714D01*
X020905Y007751D01*
X020885Y007790D01*
X020868Y007830D01*
X020855Y007872D01*
X020846Y007914D01*
X020840Y007957D01*
X020838Y008001D01*
X020840Y008045D01*
X020846Y008088D01*
X020855Y008130D01*
X020868Y008172D01*
X020885Y008212D01*
X020905Y008251D01*
X020928Y008288D01*
X020955Y008322D01*
X020984Y008355D01*
X021017Y008384D01*
X021051Y008411D01*
X021088Y008434D01*
X021127Y008454D01*
X021167Y008471D01*
X021209Y008484D01*
X021251Y008493D01*
X021294Y008499D01*
X021338Y008501D01*
X023338Y008501D01*
X023338Y015501D01*
X016338Y015501D01*
X016338Y013501D01*
X016336Y013457D01*
X016330Y013414D01*
X016321Y013372D01*
X016308Y013330D01*
X016291Y013290D01*
X016271Y013251D01*
X016248Y013214D01*
X016221Y013180D01*
X016192Y013147D01*
X016159Y013118D01*
X016125Y013091D01*
X016088Y013068D01*
X016049Y013048D01*
X016009Y013031D01*
X015967Y013018D01*
X015925Y013009D01*
X015882Y013003D01*
X015838Y013001D01*
X015794Y013003D01*
X015751Y013009D01*
X015709Y013018D01*
X015667Y013031D01*
X015627Y013048D01*
X015588Y013068D01*
X015551Y013091D01*
X015517Y013118D01*
X015484Y013147D01*
X015455Y013180D01*
X015428Y013214D01*
X015405Y013251D01*
X015385Y013290D01*
X015368Y013330D01*
X015355Y013372D01*
X015346Y013414D01*
X015340Y013457D01*
X015338Y013501D01*
X015338Y015501D01*
X008338Y015501D01*
X008338Y008501D01*
X010338Y008501D01*
X010382Y008499D01*
X010425Y008493D01*
X010467Y008484D01*
X010509Y008471D01*
X010549Y008454D01*
X010588Y008434D01*
X010625Y008411D01*
X010659Y008384D01*
X010692Y008355D01*
X010721Y008322D01*
X010748Y008288D01*
X010771Y008251D01*
X010791Y008212D01*
X010808Y008172D01*
X010821Y008130D01*
X010830Y008088D01*
X010836Y008045D01*
X010838Y008001D01*
X010836Y007957D01*
X010830Y007914D01*
X010821Y007872D01*
X010808Y007830D01*
X010791Y007790D01*
X010771Y007751D01*
X010748Y007714D01*
X010721Y007680D01*
X010692Y007647D01*
X010659Y007618D01*
X010625Y007591D01*
X010588Y007568D01*
X010549Y007548D01*
X010509Y007531D01*
X010467Y007518D01*
X010425Y007509D01*
X010382Y007503D01*
X010338Y007501D01*
X008338Y007501D01*
X008338Y000501D01*
X015338Y002501D02*
X015340Y002545D01*
X015346Y002588D01*
X015355Y002630D01*
X015368Y002672D01*
X015385Y002712D01*
X015405Y002751D01*
X015428Y002788D01*
X015455Y002822D01*
X015484Y002855D01*
X015517Y002884D01*
X015551Y002911D01*
X015588Y002934D01*
X015627Y002954D01*
X015667Y002971D01*
X015709Y002984D01*
X015751Y002993D01*
X015794Y002999D01*
X015838Y003001D01*
X015838Y005001D02*
X015794Y005003D01*
X015751Y005009D01*
X015709Y005018D01*
X015667Y005031D01*
X015627Y005048D01*
X015588Y005068D01*
X015551Y005091D01*
X015517Y005118D01*
X015484Y005147D01*
X015455Y005180D01*
X015428Y005214D01*
X015405Y005251D01*
X015385Y005290D01*
X015368Y005330D01*
X015355Y005372D01*
X015346Y005414D01*
X015340Y005457D01*
X015338Y005501D01*
X015338Y007501D01*
X013338Y007501D01*
X012838Y008001D02*
X012840Y008045D01*
X012846Y008088D01*
X012855Y008130D01*
X012868Y008172D01*
X012885Y008212D01*
X012905Y008251D01*
X012928Y008288D01*
X012955Y008322D01*
X012984Y008355D01*
X013017Y008384D01*
X013051Y008411D01*
X013088Y008434D01*
X013127Y008454D01*
X013167Y008471D01*
X013209Y008484D01*
X013251Y008493D01*
X013294Y008499D01*
X013338Y008501D01*
X015338Y008501D01*
X015338Y010501D01*
X015838Y011001D02*
X015882Y010999D01*
X015925Y010993D01*
X015967Y010984D01*
X016009Y010971D01*
X016049Y010954D01*
X016088Y010934D01*
X016125Y010911D01*
X016159Y010884D01*
X016192Y010855D01*
X016221Y010822D01*
X016248Y010788D01*
X016271Y010751D01*
X016291Y010712D01*
X016308Y010672D01*
X016321Y010630D01*
X016330Y010588D01*
X016336Y010545D01*
X016338Y010501D01*
X016338Y008501D01*
X018338Y008501D01*
X018838Y008001D02*
X018836Y007957D01*
X018830Y007914D01*
X018821Y007872D01*
X018808Y007830D01*
X018791Y007790D01*
X018771Y007751D01*
X018748Y007714D01*
X018721Y007680D01*
X018692Y007647D01*
X018659Y007618D01*
X018625Y007591D01*
X018588Y007568D01*
X018549Y007548D01*
X018509Y007531D01*
X018467Y007518D01*
X018425Y007509D01*
X018382Y007503D01*
X018338Y007501D01*
X016338Y007501D01*
X016338Y005501D01*
X016336Y005457D01*
X016330Y005414D01*
X016321Y005372D01*
X016308Y005330D01*
X016291Y005290D01*
X016271Y005251D01*
X016248Y005214D01*
X016221Y005180D01*
X016192Y005147D01*
X016159Y005118D01*
X016125Y005091D01*
X016088Y005068D01*
X016049Y005048D01*
X016009Y005031D01*
X015967Y005018D01*
X015925Y005009D01*
X015882Y005003D01*
X015838Y005001D01*
X013338Y007501D02*
X013294Y007503D01*
X013251Y007509D01*
X013209Y007518D01*
X013167Y007531D01*
X013127Y007548D01*
X013088Y007568D01*
X013051Y007591D01*
X013017Y007618D01*
X012984Y007647D01*
X012955Y007680D01*
X012928Y007714D01*
X012905Y007751D01*
X012885Y007790D01*
X012868Y007830D01*
X012855Y007872D01*
X012846Y007914D01*
X012840Y007957D01*
X012838Y008001D01*
X018338Y008501D02*
X018382Y008499D01*
X018425Y008493D01*
X018467Y008484D01*
X018509Y008471D01*
X018549Y008454D01*
X018588Y008434D01*
X018625Y008411D01*
X018659Y008384D01*
X018692Y008355D01*
X018721Y008322D01*
X018748Y008288D01*
X018771Y008251D01*
X018791Y008212D01*
X018808Y008172D01*
X018821Y008130D01*
X018830Y008088D01*
X018836Y008045D01*
X018838Y008001D01*
X015838Y011001D02*
X015794Y010999D01*
X015751Y010993D01*
X015709Y010984D01*
X015667Y010971D01*
X015627Y010954D01*
X015588Y010934D01*
X015551Y010911D01*
X015517Y010884D01*
X015484Y010855D01*
X015455Y010822D01*
X015428Y010788D01*
X015405Y010751D01*
X015385Y010712D01*
X015368Y010672D01*
X015355Y010630D01*
X015346Y010588D01*
X015340Y010545D01*
X015338Y010501D01*
D11*
X015440Y011201D02*
X015442Y011220D01*
X015447Y011239D01*
X015457Y011255D01*
X015469Y011270D01*
X015484Y011282D01*
X015500Y011292D01*
X015519Y011297D01*
X015538Y011299D01*
X015557Y011297D01*
X015576Y011292D01*
X015592Y011282D01*
X015607Y011270D01*
X015619Y011255D01*
X015629Y011239D01*
X015634Y011220D01*
X015636Y011201D01*
X015634Y011182D01*
X015629Y011163D01*
X015619Y011147D01*
X015607Y011132D01*
X015592Y011120D01*
X015576Y011110D01*
X015557Y011105D01*
X015538Y011103D01*
X015519Y011105D01*
X015500Y011110D01*
X015484Y011120D01*
X015469Y011132D01*
X015457Y011147D01*
X015447Y011163D01*
X015442Y011182D01*
X015440Y011201D01*
X016040Y011201D02*
X016042Y011220D01*
X016047Y011239D01*
X016057Y011255D01*
X016069Y011270D01*
X016084Y011282D01*
X016100Y011292D01*
X016119Y011297D01*
X016138Y011299D01*
X016157Y011297D01*
X016176Y011292D01*
X016192Y011282D01*
X016207Y011270D01*
X016219Y011255D01*
X016229Y011239D01*
X016234Y011220D01*
X016236Y011201D01*
X016234Y011182D01*
X016229Y011163D01*
X016219Y011147D01*
X016207Y011132D01*
X016192Y011120D01*
X016176Y011110D01*
X016157Y011105D01*
X016138Y011103D01*
X016119Y011105D01*
X016100Y011110D01*
X016084Y011120D01*
X016069Y011132D01*
X016057Y011147D01*
X016047Y011163D01*
X016042Y011182D01*
X016040Y011201D01*
X016040Y011701D02*
X016042Y011720D01*
X016047Y011739D01*
X016057Y011755D01*
X016069Y011770D01*
X016084Y011782D01*
X016100Y011792D01*
X016119Y011797D01*
X016138Y011799D01*
X016157Y011797D01*
X016176Y011792D01*
X016192Y011782D01*
X016207Y011770D01*
X016219Y011755D01*
X016229Y011739D01*
X016234Y011720D01*
X016236Y011701D01*
X016234Y011682D01*
X016229Y011663D01*
X016219Y011647D01*
X016207Y011632D01*
X016192Y011620D01*
X016176Y011610D01*
X016157Y011605D01*
X016138Y011603D01*
X016119Y011605D01*
X016100Y011610D01*
X016084Y011620D01*
X016069Y011632D01*
X016057Y011647D01*
X016047Y011663D01*
X016042Y011682D01*
X016040Y011701D01*
X015440Y011701D02*
X015442Y011720D01*
X015447Y011739D01*
X015457Y011755D01*
X015469Y011770D01*
X015484Y011782D01*
X015500Y011792D01*
X015519Y011797D01*
X015538Y011799D01*
X015557Y011797D01*
X015576Y011792D01*
X015592Y011782D01*
X015607Y011770D01*
X015619Y011755D01*
X015629Y011739D01*
X015634Y011720D01*
X015636Y011701D01*
X015634Y011682D01*
X015629Y011663D01*
X015619Y011647D01*
X015607Y011632D01*
X015592Y011620D01*
X015576Y011610D01*
X015557Y011605D01*
X015538Y011603D01*
X015519Y011605D01*
X015500Y011610D01*
X015484Y011620D01*
X015469Y011632D01*
X015457Y011647D01*
X015447Y011663D01*
X015442Y011682D01*
X015440Y011701D01*
X015440Y012301D02*
X015442Y012320D01*
X015447Y012339D01*
X015457Y012355D01*
X015469Y012370D01*
X015484Y012382D01*
X015500Y012392D01*
X015519Y012397D01*
X015538Y012399D01*
X015557Y012397D01*
X015576Y012392D01*
X015592Y012382D01*
X015607Y012370D01*
X015619Y012355D01*
X015629Y012339D01*
X015634Y012320D01*
X015636Y012301D01*
X015634Y012282D01*
X015629Y012263D01*
X015619Y012247D01*
X015607Y012232D01*
X015592Y012220D01*
X015576Y012210D01*
X015557Y012205D01*
X015538Y012203D01*
X015519Y012205D01*
X015500Y012210D01*
X015484Y012220D01*
X015469Y012232D01*
X015457Y012247D01*
X015447Y012263D01*
X015442Y012282D01*
X015440Y012301D01*
X016040Y012301D02*
X016042Y012320D01*
X016047Y012339D01*
X016057Y012355D01*
X016069Y012370D01*
X016084Y012382D01*
X016100Y012392D01*
X016119Y012397D01*
X016138Y012399D01*
X016157Y012397D01*
X016176Y012392D01*
X016192Y012382D01*
X016207Y012370D01*
X016219Y012355D01*
X016229Y012339D01*
X016234Y012320D01*
X016236Y012301D01*
X016234Y012282D01*
X016229Y012263D01*
X016219Y012247D01*
X016207Y012232D01*
X016192Y012220D01*
X016176Y012210D01*
X016157Y012205D01*
X016138Y012203D01*
X016119Y012205D01*
X016100Y012210D01*
X016084Y012220D01*
X016069Y012232D01*
X016057Y012247D01*
X016047Y012263D01*
X016042Y012282D01*
X016040Y012301D01*
X016040Y012801D02*
X016042Y012820D01*
X016047Y012839D01*
X016057Y012855D01*
X016069Y012870D01*
X016084Y012882D01*
X016100Y012892D01*
X016119Y012897D01*
X016138Y012899D01*
X016157Y012897D01*
X016176Y012892D01*
X016192Y012882D01*
X016207Y012870D01*
X016219Y012855D01*
X016229Y012839D01*
X016234Y012820D01*
X016236Y012801D01*
X016234Y012782D01*
X016229Y012763D01*
X016219Y012747D01*
X016207Y012732D01*
X016192Y012720D01*
X016176Y012710D01*
X016157Y012705D01*
X016138Y012703D01*
X016119Y012705D01*
X016100Y012710D01*
X016084Y012720D01*
X016069Y012732D01*
X016057Y012747D01*
X016047Y012763D01*
X016042Y012782D01*
X016040Y012801D01*
X015440Y012801D02*
X015442Y012820D01*
X015447Y012839D01*
X015457Y012855D01*
X015469Y012870D01*
X015484Y012882D01*
X015500Y012892D01*
X015519Y012897D01*
X015538Y012899D01*
X015557Y012897D01*
X015576Y012892D01*
X015592Y012882D01*
X015607Y012870D01*
X015619Y012855D01*
X015629Y012839D01*
X015634Y012820D01*
X015636Y012801D01*
X015634Y012782D01*
X015629Y012763D01*
X015619Y012747D01*
X015607Y012732D01*
X015592Y012720D01*
X015576Y012710D01*
X015557Y012705D01*
X015538Y012703D01*
X015519Y012705D01*
X015500Y012710D01*
X015484Y012720D01*
X015469Y012732D01*
X015457Y012747D01*
X015447Y012763D01*
X015442Y012782D01*
X015440Y012801D01*
X013188Y014501D02*
X013190Y014551D01*
X013196Y014601D01*
X013206Y014651D01*
X013219Y014699D01*
X013236Y014747D01*
X013257Y014793D01*
X013281Y014837D01*
X013309Y014879D01*
X013340Y014919D01*
X013374Y014956D01*
X013411Y014991D01*
X013450Y015022D01*
X013491Y015051D01*
X013535Y015076D01*
X013581Y015098D01*
X013628Y015116D01*
X013676Y015130D01*
X013725Y015141D01*
X013775Y015148D01*
X013825Y015151D01*
X013876Y015150D01*
X013926Y015145D01*
X013976Y015136D01*
X014024Y015124D01*
X014072Y015107D01*
X014118Y015087D01*
X014163Y015064D01*
X014206Y015037D01*
X014246Y015007D01*
X014284Y014974D01*
X014319Y014938D01*
X014352Y014899D01*
X014381Y014858D01*
X014407Y014815D01*
X014430Y014770D01*
X014449Y014723D01*
X014464Y014675D01*
X014476Y014626D01*
X014484Y014576D01*
X014488Y014526D01*
X014488Y014476D01*
X014484Y014426D01*
X014476Y014376D01*
X014464Y014327D01*
X014449Y014279D01*
X014430Y014232D01*
X014407Y014187D01*
X014381Y014144D01*
X014352Y014103D01*
X014319Y014064D01*
X014284Y014028D01*
X014246Y013995D01*
X014206Y013965D01*
X014163Y013938D01*
X014118Y013915D01*
X014072Y013895D01*
X014024Y013878D01*
X013976Y013866D01*
X013926Y013857D01*
X013876Y013852D01*
X013825Y013851D01*
X013775Y013854D01*
X013725Y013861D01*
X013676Y013872D01*
X013628Y013886D01*
X013581Y013904D01*
X013535Y013926D01*
X013491Y013951D01*
X013450Y013980D01*
X013411Y014011D01*
X013374Y014046D01*
X013340Y014083D01*
X013309Y014123D01*
X013281Y014165D01*
X013257Y014209D01*
X013236Y014255D01*
X013219Y014303D01*
X013206Y014351D01*
X013196Y014401D01*
X013190Y014451D01*
X013188Y014501D01*
X009188Y014501D02*
X009190Y014551D01*
X009196Y014601D01*
X009206Y014651D01*
X009219Y014699D01*
X009236Y014747D01*
X009257Y014793D01*
X009281Y014837D01*
X009309Y014879D01*
X009340Y014919D01*
X009374Y014956D01*
X009411Y014991D01*
X009450Y015022D01*
X009491Y015051D01*
X009535Y015076D01*
X009581Y015098D01*
X009628Y015116D01*
X009676Y015130D01*
X009725Y015141D01*
X009775Y015148D01*
X009825Y015151D01*
X009876Y015150D01*
X009926Y015145D01*
X009976Y015136D01*
X010024Y015124D01*
X010072Y015107D01*
X010118Y015087D01*
X010163Y015064D01*
X010206Y015037D01*
X010246Y015007D01*
X010284Y014974D01*
X010319Y014938D01*
X010352Y014899D01*
X010381Y014858D01*
X010407Y014815D01*
X010430Y014770D01*
X010449Y014723D01*
X010464Y014675D01*
X010476Y014626D01*
X010484Y014576D01*
X010488Y014526D01*
X010488Y014476D01*
X010484Y014426D01*
X010476Y014376D01*
X010464Y014327D01*
X010449Y014279D01*
X010430Y014232D01*
X010407Y014187D01*
X010381Y014144D01*
X010352Y014103D01*
X010319Y014064D01*
X010284Y014028D01*
X010246Y013995D01*
X010206Y013965D01*
X010163Y013938D01*
X010118Y013915D01*
X010072Y013895D01*
X010024Y013878D01*
X009976Y013866D01*
X009926Y013857D01*
X009876Y013852D01*
X009825Y013851D01*
X009775Y013854D01*
X009725Y013861D01*
X009676Y013872D01*
X009628Y013886D01*
X009581Y013904D01*
X009535Y013926D01*
X009491Y013951D01*
X009450Y013980D01*
X009411Y014011D01*
X009374Y014046D01*
X009340Y014083D01*
X009309Y014123D01*
X009281Y014165D01*
X009257Y014209D01*
X009236Y014255D01*
X009219Y014303D01*
X009206Y014351D01*
X009196Y014401D01*
X009190Y014451D01*
X009188Y014501D01*
X017188Y014501D02*
X017190Y014551D01*
X017196Y014601D01*
X017206Y014651D01*
X017219Y014699D01*
X017236Y014747D01*
X017257Y014793D01*
X017281Y014837D01*
X017309Y014879D01*
X017340Y014919D01*
X017374Y014956D01*
X017411Y014991D01*
X017450Y015022D01*
X017491Y015051D01*
X017535Y015076D01*
X017581Y015098D01*
X017628Y015116D01*
X017676Y015130D01*
X017725Y015141D01*
X017775Y015148D01*
X017825Y015151D01*
X017876Y015150D01*
X017926Y015145D01*
X017976Y015136D01*
X018024Y015124D01*
X018072Y015107D01*
X018118Y015087D01*
X018163Y015064D01*
X018206Y015037D01*
X018246Y015007D01*
X018284Y014974D01*
X018319Y014938D01*
X018352Y014899D01*
X018381Y014858D01*
X018407Y014815D01*
X018430Y014770D01*
X018449Y014723D01*
X018464Y014675D01*
X018476Y014626D01*
X018484Y014576D01*
X018488Y014526D01*
X018488Y014476D01*
X018484Y014426D01*
X018476Y014376D01*
X018464Y014327D01*
X018449Y014279D01*
X018430Y014232D01*
X018407Y014187D01*
X018381Y014144D01*
X018352Y014103D01*
X018319Y014064D01*
X018284Y014028D01*
X018246Y013995D01*
X018206Y013965D01*
X018163Y013938D01*
X018118Y013915D01*
X018072Y013895D01*
X018024Y013878D01*
X017976Y013866D01*
X017926Y013857D01*
X017876Y013852D01*
X017825Y013851D01*
X017775Y013854D01*
X017725Y013861D01*
X017676Y013872D01*
X017628Y013886D01*
X017581Y013904D01*
X017535Y013926D01*
X017491Y013951D01*
X017450Y013980D01*
X017411Y014011D01*
X017374Y014046D01*
X017340Y014083D01*
X017309Y014123D01*
X017281Y014165D01*
X017257Y014209D01*
X017236Y014255D01*
X017219Y014303D01*
X017206Y014351D01*
X017196Y014401D01*
X017190Y014451D01*
X017188Y014501D01*
X021188Y014501D02*
X021190Y014551D01*
X021196Y014601D01*
X021206Y014651D01*
X021219Y014699D01*
X021236Y014747D01*
X021257Y014793D01*
X021281Y014837D01*
X021309Y014879D01*
X021340Y014919D01*
X021374Y014956D01*
X021411Y014991D01*
X021450Y015022D01*
X021491Y015051D01*
X021535Y015076D01*
X021581Y015098D01*
X021628Y015116D01*
X021676Y015130D01*
X021725Y015141D01*
X021775Y015148D01*
X021825Y015151D01*
X021876Y015150D01*
X021926Y015145D01*
X021976Y015136D01*
X022024Y015124D01*
X022072Y015107D01*
X022118Y015087D01*
X022163Y015064D01*
X022206Y015037D01*
X022246Y015007D01*
X022284Y014974D01*
X022319Y014938D01*
X022352Y014899D01*
X022381Y014858D01*
X022407Y014815D01*
X022430Y014770D01*
X022449Y014723D01*
X022464Y014675D01*
X022476Y014626D01*
X022484Y014576D01*
X022488Y014526D01*
X022488Y014476D01*
X022484Y014426D01*
X022476Y014376D01*
X022464Y014327D01*
X022449Y014279D01*
X022430Y014232D01*
X022407Y014187D01*
X022381Y014144D01*
X022352Y014103D01*
X022319Y014064D01*
X022284Y014028D01*
X022246Y013995D01*
X022206Y013965D01*
X022163Y013938D01*
X022118Y013915D01*
X022072Y013895D01*
X022024Y013878D01*
X021976Y013866D01*
X021926Y013857D01*
X021876Y013852D01*
X021825Y013851D01*
X021775Y013854D01*
X021725Y013861D01*
X021676Y013872D01*
X021628Y013886D01*
X021581Y013904D01*
X021535Y013926D01*
X021491Y013951D01*
X021450Y013980D01*
X021411Y014011D01*
X021374Y014046D01*
X021340Y014083D01*
X021309Y014123D01*
X021281Y014165D01*
X021257Y014209D01*
X021236Y014255D01*
X021219Y014303D01*
X021206Y014351D01*
X021196Y014401D01*
X021190Y014451D01*
X021188Y014501D01*
X021188Y009501D02*
X021190Y009551D01*
X021196Y009601D01*
X021206Y009651D01*
X021219Y009699D01*
X021236Y009747D01*
X021257Y009793D01*
X021281Y009837D01*
X021309Y009879D01*
X021340Y009919D01*
X021374Y009956D01*
X021411Y009991D01*
X021450Y010022D01*
X021491Y010051D01*
X021535Y010076D01*
X021581Y010098D01*
X021628Y010116D01*
X021676Y010130D01*
X021725Y010141D01*
X021775Y010148D01*
X021825Y010151D01*
X021876Y010150D01*
X021926Y010145D01*
X021976Y010136D01*
X022024Y010124D01*
X022072Y010107D01*
X022118Y010087D01*
X022163Y010064D01*
X022206Y010037D01*
X022246Y010007D01*
X022284Y009974D01*
X022319Y009938D01*
X022352Y009899D01*
X022381Y009858D01*
X022407Y009815D01*
X022430Y009770D01*
X022449Y009723D01*
X022464Y009675D01*
X022476Y009626D01*
X022484Y009576D01*
X022488Y009526D01*
X022488Y009476D01*
X022484Y009426D01*
X022476Y009376D01*
X022464Y009327D01*
X022449Y009279D01*
X022430Y009232D01*
X022407Y009187D01*
X022381Y009144D01*
X022352Y009103D01*
X022319Y009064D01*
X022284Y009028D01*
X022246Y008995D01*
X022206Y008965D01*
X022163Y008938D01*
X022118Y008915D01*
X022072Y008895D01*
X022024Y008878D01*
X021976Y008866D01*
X021926Y008857D01*
X021876Y008852D01*
X021825Y008851D01*
X021775Y008854D01*
X021725Y008861D01*
X021676Y008872D01*
X021628Y008886D01*
X021581Y008904D01*
X021535Y008926D01*
X021491Y008951D01*
X021450Y008980D01*
X021411Y009011D01*
X021374Y009046D01*
X021340Y009083D01*
X021309Y009123D01*
X021281Y009165D01*
X021257Y009209D01*
X021236Y009255D01*
X021219Y009303D01*
X021206Y009351D01*
X021196Y009401D01*
X021190Y009451D01*
X021188Y009501D01*
X017188Y009501D02*
X017190Y009551D01*
X017196Y009601D01*
X017206Y009651D01*
X017219Y009699D01*
X017236Y009747D01*
X017257Y009793D01*
X017281Y009837D01*
X017309Y009879D01*
X017340Y009919D01*
X017374Y009956D01*
X017411Y009991D01*
X017450Y010022D01*
X017491Y010051D01*
X017535Y010076D01*
X017581Y010098D01*
X017628Y010116D01*
X017676Y010130D01*
X017725Y010141D01*
X017775Y010148D01*
X017825Y010151D01*
X017876Y010150D01*
X017926Y010145D01*
X017976Y010136D01*
X018024Y010124D01*
X018072Y010107D01*
X018118Y010087D01*
X018163Y010064D01*
X018206Y010037D01*
X018246Y010007D01*
X018284Y009974D01*
X018319Y009938D01*
X018352Y009899D01*
X018381Y009858D01*
X018407Y009815D01*
X018430Y009770D01*
X018449Y009723D01*
X018464Y009675D01*
X018476Y009626D01*
X018484Y009576D01*
X018488Y009526D01*
X018488Y009476D01*
X018484Y009426D01*
X018476Y009376D01*
X018464Y009327D01*
X018449Y009279D01*
X018430Y009232D01*
X018407Y009187D01*
X018381Y009144D01*
X018352Y009103D01*
X018319Y009064D01*
X018284Y009028D01*
X018246Y008995D01*
X018206Y008965D01*
X018163Y008938D01*
X018118Y008915D01*
X018072Y008895D01*
X018024Y008878D01*
X017976Y008866D01*
X017926Y008857D01*
X017876Y008852D01*
X017825Y008851D01*
X017775Y008854D01*
X017725Y008861D01*
X017676Y008872D01*
X017628Y008886D01*
X017581Y008904D01*
X017535Y008926D01*
X017491Y008951D01*
X017450Y008980D01*
X017411Y009011D01*
X017374Y009046D01*
X017340Y009083D01*
X017309Y009123D01*
X017281Y009165D01*
X017257Y009209D01*
X017236Y009255D01*
X017219Y009303D01*
X017206Y009351D01*
X017196Y009401D01*
X017190Y009451D01*
X017188Y009501D01*
X013188Y009501D02*
X013190Y009551D01*
X013196Y009601D01*
X013206Y009651D01*
X013219Y009699D01*
X013236Y009747D01*
X013257Y009793D01*
X013281Y009837D01*
X013309Y009879D01*
X013340Y009919D01*
X013374Y009956D01*
X013411Y009991D01*
X013450Y010022D01*
X013491Y010051D01*
X013535Y010076D01*
X013581Y010098D01*
X013628Y010116D01*
X013676Y010130D01*
X013725Y010141D01*
X013775Y010148D01*
X013825Y010151D01*
X013876Y010150D01*
X013926Y010145D01*
X013976Y010136D01*
X014024Y010124D01*
X014072Y010107D01*
X014118Y010087D01*
X014163Y010064D01*
X014206Y010037D01*
X014246Y010007D01*
X014284Y009974D01*
X014319Y009938D01*
X014352Y009899D01*
X014381Y009858D01*
X014407Y009815D01*
X014430Y009770D01*
X014449Y009723D01*
X014464Y009675D01*
X014476Y009626D01*
X014484Y009576D01*
X014488Y009526D01*
X014488Y009476D01*
X014484Y009426D01*
X014476Y009376D01*
X014464Y009327D01*
X014449Y009279D01*
X014430Y009232D01*
X014407Y009187D01*
X014381Y009144D01*
X014352Y009103D01*
X014319Y009064D01*
X014284Y009028D01*
X014246Y008995D01*
X014206Y008965D01*
X014163Y008938D01*
X014118Y008915D01*
X014072Y008895D01*
X014024Y008878D01*
X013976Y008866D01*
X013926Y008857D01*
X013876Y008852D01*
X013825Y008851D01*
X013775Y008854D01*
X013725Y008861D01*
X013676Y008872D01*
X013628Y008886D01*
X013581Y008904D01*
X013535Y008926D01*
X013491Y008951D01*
X013450Y008980D01*
X013411Y009011D01*
X013374Y009046D01*
X013340Y009083D01*
X013309Y009123D01*
X013281Y009165D01*
X013257Y009209D01*
X013236Y009255D01*
X013219Y009303D01*
X013206Y009351D01*
X013196Y009401D01*
X013190Y009451D01*
X013188Y009501D01*
X009188Y009501D02*
X009190Y009551D01*
X009196Y009601D01*
X009206Y009651D01*
X009219Y009699D01*
X009236Y009747D01*
X009257Y009793D01*
X009281Y009837D01*
X009309Y009879D01*
X009340Y009919D01*
X009374Y009956D01*
X009411Y009991D01*
X009450Y010022D01*
X009491Y010051D01*
X009535Y010076D01*
X009581Y010098D01*
X009628Y010116D01*
X009676Y010130D01*
X009725Y010141D01*
X009775Y010148D01*
X009825Y010151D01*
X009876Y010150D01*
X009926Y010145D01*
X009976Y010136D01*
X010024Y010124D01*
X010072Y010107D01*
X010118Y010087D01*
X010163Y010064D01*
X010206Y010037D01*
X010246Y010007D01*
X010284Y009974D01*
X010319Y009938D01*
X010352Y009899D01*
X010381Y009858D01*
X010407Y009815D01*
X010430Y009770D01*
X010449Y009723D01*
X010464Y009675D01*
X010476Y009626D01*
X010484Y009576D01*
X010488Y009526D01*
X010488Y009476D01*
X010484Y009426D01*
X010476Y009376D01*
X010464Y009327D01*
X010449Y009279D01*
X010430Y009232D01*
X010407Y009187D01*
X010381Y009144D01*
X010352Y009103D01*
X010319Y009064D01*
X010284Y009028D01*
X010246Y008995D01*
X010206Y008965D01*
X010163Y008938D01*
X010118Y008915D01*
X010072Y008895D01*
X010024Y008878D01*
X009976Y008866D01*
X009926Y008857D01*
X009876Y008852D01*
X009825Y008851D01*
X009775Y008854D01*
X009725Y008861D01*
X009676Y008872D01*
X009628Y008886D01*
X009581Y008904D01*
X009535Y008926D01*
X009491Y008951D01*
X009450Y008980D01*
X009411Y009011D01*
X009374Y009046D01*
X009340Y009083D01*
X009309Y009123D01*
X009281Y009165D01*
X009257Y009209D01*
X009236Y009255D01*
X009219Y009303D01*
X009206Y009351D01*
X009196Y009401D01*
X009190Y009451D01*
X009188Y009501D01*
X010940Y008301D02*
X010942Y008320D01*
X010947Y008339D01*
X010957Y008355D01*
X010969Y008370D01*
X010984Y008382D01*
X011000Y008392D01*
X011019Y008397D01*
X011038Y008399D01*
X011057Y008397D01*
X011076Y008392D01*
X011092Y008382D01*
X011107Y008370D01*
X011119Y008355D01*
X011129Y008339D01*
X011134Y008320D01*
X011136Y008301D01*
X011134Y008282D01*
X011129Y008263D01*
X011119Y008247D01*
X011107Y008232D01*
X011092Y008220D01*
X011076Y008210D01*
X011057Y008205D01*
X011038Y008203D01*
X011019Y008205D01*
X011000Y008210D01*
X010984Y008220D01*
X010969Y008232D01*
X010957Y008247D01*
X010947Y008263D01*
X010942Y008282D01*
X010940Y008301D01*
X011440Y008301D02*
X011442Y008320D01*
X011447Y008339D01*
X011457Y008355D01*
X011469Y008370D01*
X011484Y008382D01*
X011500Y008392D01*
X011519Y008397D01*
X011538Y008399D01*
X011557Y008397D01*
X011576Y008392D01*
X011592Y008382D01*
X011607Y008370D01*
X011619Y008355D01*
X011629Y008339D01*
X011634Y008320D01*
X011636Y008301D01*
X011634Y008282D01*
X011629Y008263D01*
X011619Y008247D01*
X011607Y008232D01*
X011592Y008220D01*
X011576Y008210D01*
X011557Y008205D01*
X011538Y008203D01*
X011519Y008205D01*
X011500Y008210D01*
X011484Y008220D01*
X011469Y008232D01*
X011457Y008247D01*
X011447Y008263D01*
X011442Y008282D01*
X011440Y008301D01*
X012040Y008301D02*
X012042Y008320D01*
X012047Y008339D01*
X012057Y008355D01*
X012069Y008370D01*
X012084Y008382D01*
X012100Y008392D01*
X012119Y008397D01*
X012138Y008399D01*
X012157Y008397D01*
X012176Y008392D01*
X012192Y008382D01*
X012207Y008370D01*
X012219Y008355D01*
X012229Y008339D01*
X012234Y008320D01*
X012236Y008301D01*
X012234Y008282D01*
X012229Y008263D01*
X012219Y008247D01*
X012207Y008232D01*
X012192Y008220D01*
X012176Y008210D01*
X012157Y008205D01*
X012138Y008203D01*
X012119Y008205D01*
X012100Y008210D01*
X012084Y008220D01*
X012069Y008232D01*
X012057Y008247D01*
X012047Y008263D01*
X012042Y008282D01*
X012040Y008301D01*
X012540Y008301D02*
X012542Y008320D01*
X012547Y008339D01*
X012557Y008355D01*
X012569Y008370D01*
X012584Y008382D01*
X012600Y008392D01*
X012619Y008397D01*
X012638Y008399D01*
X012657Y008397D01*
X012676Y008392D01*
X012692Y008382D01*
X012707Y008370D01*
X012719Y008355D01*
X012729Y008339D01*
X012734Y008320D01*
X012736Y008301D01*
X012734Y008282D01*
X012729Y008263D01*
X012719Y008247D01*
X012707Y008232D01*
X012692Y008220D01*
X012676Y008210D01*
X012657Y008205D01*
X012638Y008203D01*
X012619Y008205D01*
X012600Y008210D01*
X012584Y008220D01*
X012569Y008232D01*
X012557Y008247D01*
X012547Y008263D01*
X012542Y008282D01*
X012540Y008301D01*
X012540Y007701D02*
X012542Y007720D01*
X012547Y007739D01*
X012557Y007755D01*
X012569Y007770D01*
X012584Y007782D01*
X012600Y007792D01*
X012619Y007797D01*
X012638Y007799D01*
X012657Y007797D01*
X012676Y007792D01*
X012692Y007782D01*
X012707Y007770D01*
X012719Y007755D01*
X012729Y007739D01*
X012734Y007720D01*
X012736Y007701D01*
X012734Y007682D01*
X012729Y007663D01*
X012719Y007647D01*
X012707Y007632D01*
X012692Y007620D01*
X012676Y007610D01*
X012657Y007605D01*
X012638Y007603D01*
X012619Y007605D01*
X012600Y007610D01*
X012584Y007620D01*
X012569Y007632D01*
X012557Y007647D01*
X012547Y007663D01*
X012542Y007682D01*
X012540Y007701D01*
X012040Y007701D02*
X012042Y007720D01*
X012047Y007739D01*
X012057Y007755D01*
X012069Y007770D01*
X012084Y007782D01*
X012100Y007792D01*
X012119Y007797D01*
X012138Y007799D01*
X012157Y007797D01*
X012176Y007792D01*
X012192Y007782D01*
X012207Y007770D01*
X012219Y007755D01*
X012229Y007739D01*
X012234Y007720D01*
X012236Y007701D01*
X012234Y007682D01*
X012229Y007663D01*
X012219Y007647D01*
X012207Y007632D01*
X012192Y007620D01*
X012176Y007610D01*
X012157Y007605D01*
X012138Y007603D01*
X012119Y007605D01*
X012100Y007610D01*
X012084Y007620D01*
X012069Y007632D01*
X012057Y007647D01*
X012047Y007663D01*
X012042Y007682D01*
X012040Y007701D01*
X011440Y007701D02*
X011442Y007720D01*
X011447Y007739D01*
X011457Y007755D01*
X011469Y007770D01*
X011484Y007782D01*
X011500Y007792D01*
X011519Y007797D01*
X011538Y007799D01*
X011557Y007797D01*
X011576Y007792D01*
X011592Y007782D01*
X011607Y007770D01*
X011619Y007755D01*
X011629Y007739D01*
X011634Y007720D01*
X011636Y007701D01*
X011634Y007682D01*
X011629Y007663D01*
X011619Y007647D01*
X011607Y007632D01*
X011592Y007620D01*
X011576Y007610D01*
X011557Y007605D01*
X011538Y007603D01*
X011519Y007605D01*
X011500Y007610D01*
X011484Y007620D01*
X011469Y007632D01*
X011457Y007647D01*
X011447Y007663D01*
X011442Y007682D01*
X011440Y007701D01*
X010940Y007701D02*
X010942Y007720D01*
X010947Y007739D01*
X010957Y007755D01*
X010969Y007770D01*
X010984Y007782D01*
X011000Y007792D01*
X011019Y007797D01*
X011038Y007799D01*
X011057Y007797D01*
X011076Y007792D01*
X011092Y007782D01*
X011107Y007770D01*
X011119Y007755D01*
X011129Y007739D01*
X011134Y007720D01*
X011136Y007701D01*
X011134Y007682D01*
X011129Y007663D01*
X011119Y007647D01*
X011107Y007632D01*
X011092Y007620D01*
X011076Y007610D01*
X011057Y007605D01*
X011038Y007603D01*
X011019Y007605D01*
X011000Y007610D01*
X010984Y007620D01*
X010969Y007632D01*
X010957Y007647D01*
X010947Y007663D01*
X010942Y007682D01*
X010940Y007701D01*
X009188Y006501D02*
X009190Y006551D01*
X009196Y006601D01*
X009206Y006651D01*
X009219Y006699D01*
X009236Y006747D01*
X009257Y006793D01*
X009281Y006837D01*
X009309Y006879D01*
X009340Y006919D01*
X009374Y006956D01*
X009411Y006991D01*
X009450Y007022D01*
X009491Y007051D01*
X009535Y007076D01*
X009581Y007098D01*
X009628Y007116D01*
X009676Y007130D01*
X009725Y007141D01*
X009775Y007148D01*
X009825Y007151D01*
X009876Y007150D01*
X009926Y007145D01*
X009976Y007136D01*
X010024Y007124D01*
X010072Y007107D01*
X010118Y007087D01*
X010163Y007064D01*
X010206Y007037D01*
X010246Y007007D01*
X010284Y006974D01*
X010319Y006938D01*
X010352Y006899D01*
X010381Y006858D01*
X010407Y006815D01*
X010430Y006770D01*
X010449Y006723D01*
X010464Y006675D01*
X010476Y006626D01*
X010484Y006576D01*
X010488Y006526D01*
X010488Y006476D01*
X010484Y006426D01*
X010476Y006376D01*
X010464Y006327D01*
X010449Y006279D01*
X010430Y006232D01*
X010407Y006187D01*
X010381Y006144D01*
X010352Y006103D01*
X010319Y006064D01*
X010284Y006028D01*
X010246Y005995D01*
X010206Y005965D01*
X010163Y005938D01*
X010118Y005915D01*
X010072Y005895D01*
X010024Y005878D01*
X009976Y005866D01*
X009926Y005857D01*
X009876Y005852D01*
X009825Y005851D01*
X009775Y005854D01*
X009725Y005861D01*
X009676Y005872D01*
X009628Y005886D01*
X009581Y005904D01*
X009535Y005926D01*
X009491Y005951D01*
X009450Y005980D01*
X009411Y006011D01*
X009374Y006046D01*
X009340Y006083D01*
X009309Y006123D01*
X009281Y006165D01*
X009257Y006209D01*
X009236Y006255D01*
X009219Y006303D01*
X009206Y006351D01*
X009196Y006401D01*
X009190Y006451D01*
X009188Y006501D01*
X013188Y006501D02*
X013190Y006551D01*
X013196Y006601D01*
X013206Y006651D01*
X013219Y006699D01*
X013236Y006747D01*
X013257Y006793D01*
X013281Y006837D01*
X013309Y006879D01*
X013340Y006919D01*
X013374Y006956D01*
X013411Y006991D01*
X013450Y007022D01*
X013491Y007051D01*
X013535Y007076D01*
X013581Y007098D01*
X013628Y007116D01*
X013676Y007130D01*
X013725Y007141D01*
X013775Y007148D01*
X013825Y007151D01*
X013876Y007150D01*
X013926Y007145D01*
X013976Y007136D01*
X014024Y007124D01*
X014072Y007107D01*
X014118Y007087D01*
X014163Y007064D01*
X014206Y007037D01*
X014246Y007007D01*
X014284Y006974D01*
X014319Y006938D01*
X014352Y006899D01*
X014381Y006858D01*
X014407Y006815D01*
X014430Y006770D01*
X014449Y006723D01*
X014464Y006675D01*
X014476Y006626D01*
X014484Y006576D01*
X014488Y006526D01*
X014488Y006476D01*
X014484Y006426D01*
X014476Y006376D01*
X014464Y006327D01*
X014449Y006279D01*
X014430Y006232D01*
X014407Y006187D01*
X014381Y006144D01*
X014352Y006103D01*
X014319Y006064D01*
X014284Y006028D01*
X014246Y005995D01*
X014206Y005965D01*
X014163Y005938D01*
X014118Y005915D01*
X014072Y005895D01*
X014024Y005878D01*
X013976Y005866D01*
X013926Y005857D01*
X013876Y005852D01*
X013825Y005851D01*
X013775Y005854D01*
X013725Y005861D01*
X013676Y005872D01*
X013628Y005886D01*
X013581Y005904D01*
X013535Y005926D01*
X013491Y005951D01*
X013450Y005980D01*
X013411Y006011D01*
X013374Y006046D01*
X013340Y006083D01*
X013309Y006123D01*
X013281Y006165D01*
X013257Y006209D01*
X013236Y006255D01*
X013219Y006303D01*
X013206Y006351D01*
X013196Y006401D01*
X013190Y006451D01*
X013188Y006501D01*
X017188Y006501D02*
X017190Y006551D01*
X017196Y006601D01*
X017206Y006651D01*
X017219Y006699D01*
X017236Y006747D01*
X017257Y006793D01*
X017281Y006837D01*
X017309Y006879D01*
X017340Y006919D01*
X017374Y006956D01*
X017411Y006991D01*
X017450Y007022D01*
X017491Y007051D01*
X017535Y007076D01*
X017581Y007098D01*
X017628Y007116D01*
X017676Y007130D01*
X017725Y007141D01*
X017775Y007148D01*
X017825Y007151D01*
X017876Y007150D01*
X017926Y007145D01*
X017976Y007136D01*
X018024Y007124D01*
X018072Y007107D01*
X018118Y007087D01*
X018163Y007064D01*
X018206Y007037D01*
X018246Y007007D01*
X018284Y006974D01*
X018319Y006938D01*
X018352Y006899D01*
X018381Y006858D01*
X018407Y006815D01*
X018430Y006770D01*
X018449Y006723D01*
X018464Y006675D01*
X018476Y006626D01*
X018484Y006576D01*
X018488Y006526D01*
X018488Y006476D01*
X018484Y006426D01*
X018476Y006376D01*
X018464Y006327D01*
X018449Y006279D01*
X018430Y006232D01*
X018407Y006187D01*
X018381Y006144D01*
X018352Y006103D01*
X018319Y006064D01*
X018284Y006028D01*
X018246Y005995D01*
X018206Y005965D01*
X018163Y005938D01*
X018118Y005915D01*
X018072Y005895D01*
X018024Y005878D01*
X017976Y005866D01*
X017926Y005857D01*
X017876Y005852D01*
X017825Y005851D01*
X017775Y005854D01*
X017725Y005861D01*
X017676Y005872D01*
X017628Y005886D01*
X017581Y005904D01*
X017535Y005926D01*
X017491Y005951D01*
X017450Y005980D01*
X017411Y006011D01*
X017374Y006046D01*
X017340Y006083D01*
X017309Y006123D01*
X017281Y006165D01*
X017257Y006209D01*
X017236Y006255D01*
X017219Y006303D01*
X017206Y006351D01*
X017196Y006401D01*
X017190Y006451D01*
X017188Y006501D01*
X018940Y007701D02*
X018942Y007720D01*
X018947Y007739D01*
X018957Y007755D01*
X018969Y007770D01*
X018984Y007782D01*
X019000Y007792D01*
X019019Y007797D01*
X019038Y007799D01*
X019057Y007797D01*
X019076Y007792D01*
X019092Y007782D01*
X019107Y007770D01*
X019119Y007755D01*
X019129Y007739D01*
X019134Y007720D01*
X019136Y007701D01*
X019134Y007682D01*
X019129Y007663D01*
X019119Y007647D01*
X019107Y007632D01*
X019092Y007620D01*
X019076Y007610D01*
X019057Y007605D01*
X019038Y007603D01*
X019019Y007605D01*
X019000Y007610D01*
X018984Y007620D01*
X018969Y007632D01*
X018957Y007647D01*
X018947Y007663D01*
X018942Y007682D01*
X018940Y007701D01*
X019440Y007701D02*
X019442Y007720D01*
X019447Y007739D01*
X019457Y007755D01*
X019469Y007770D01*
X019484Y007782D01*
X019500Y007792D01*
X019519Y007797D01*
X019538Y007799D01*
X019557Y007797D01*
X019576Y007792D01*
X019592Y007782D01*
X019607Y007770D01*
X019619Y007755D01*
X019629Y007739D01*
X019634Y007720D01*
X019636Y007701D01*
X019634Y007682D01*
X019629Y007663D01*
X019619Y007647D01*
X019607Y007632D01*
X019592Y007620D01*
X019576Y007610D01*
X019557Y007605D01*
X019538Y007603D01*
X019519Y007605D01*
X019500Y007610D01*
X019484Y007620D01*
X019469Y007632D01*
X019457Y007647D01*
X019447Y007663D01*
X019442Y007682D01*
X019440Y007701D01*
X020040Y007701D02*
X020042Y007720D01*
X020047Y007739D01*
X020057Y007755D01*
X020069Y007770D01*
X020084Y007782D01*
X020100Y007792D01*
X020119Y007797D01*
X020138Y007799D01*
X020157Y007797D01*
X020176Y007792D01*
X020192Y007782D01*
X020207Y007770D01*
X020219Y007755D01*
X020229Y007739D01*
X020234Y007720D01*
X020236Y007701D01*
X020234Y007682D01*
X020229Y007663D01*
X020219Y007647D01*
X020207Y007632D01*
X020192Y007620D01*
X020176Y007610D01*
X020157Y007605D01*
X020138Y007603D01*
X020119Y007605D01*
X020100Y007610D01*
X020084Y007620D01*
X020069Y007632D01*
X020057Y007647D01*
X020047Y007663D01*
X020042Y007682D01*
X020040Y007701D01*
X020540Y007701D02*
X020542Y007720D01*
X020547Y007739D01*
X020557Y007755D01*
X020569Y007770D01*
X020584Y007782D01*
X020600Y007792D01*
X020619Y007797D01*
X020638Y007799D01*
X020657Y007797D01*
X020676Y007792D01*
X020692Y007782D01*
X020707Y007770D01*
X020719Y007755D01*
X020729Y007739D01*
X020734Y007720D01*
X020736Y007701D01*
X020734Y007682D01*
X020729Y007663D01*
X020719Y007647D01*
X020707Y007632D01*
X020692Y007620D01*
X020676Y007610D01*
X020657Y007605D01*
X020638Y007603D01*
X020619Y007605D01*
X020600Y007610D01*
X020584Y007620D01*
X020569Y007632D01*
X020557Y007647D01*
X020547Y007663D01*
X020542Y007682D01*
X020540Y007701D01*
X020540Y008301D02*
X020542Y008320D01*
X020547Y008339D01*
X020557Y008355D01*
X020569Y008370D01*
X020584Y008382D01*
X020600Y008392D01*
X020619Y008397D01*
X020638Y008399D01*
X020657Y008397D01*
X020676Y008392D01*
X020692Y008382D01*
X020707Y008370D01*
X020719Y008355D01*
X020729Y008339D01*
X020734Y008320D01*
X020736Y008301D01*
X020734Y008282D01*
X020729Y008263D01*
X020719Y008247D01*
X020707Y008232D01*
X020692Y008220D01*
X020676Y008210D01*
X020657Y008205D01*
X020638Y008203D01*
X020619Y008205D01*
X020600Y008210D01*
X020584Y008220D01*
X020569Y008232D01*
X020557Y008247D01*
X020547Y008263D01*
X020542Y008282D01*
X020540Y008301D01*
X020040Y008301D02*
X020042Y008320D01*
X020047Y008339D01*
X020057Y008355D01*
X020069Y008370D01*
X020084Y008382D01*
X020100Y008392D01*
X020119Y008397D01*
X020138Y008399D01*
X020157Y008397D01*
X020176Y008392D01*
X020192Y008382D01*
X020207Y008370D01*
X020219Y008355D01*
X020229Y008339D01*
X020234Y008320D01*
X020236Y008301D01*
X020234Y008282D01*
X020229Y008263D01*
X020219Y008247D01*
X020207Y008232D01*
X020192Y008220D01*
X020176Y008210D01*
X020157Y008205D01*
X020138Y008203D01*
X020119Y008205D01*
X020100Y008210D01*
X020084Y008220D01*
X020069Y008232D01*
X020057Y008247D01*
X020047Y008263D01*
X020042Y008282D01*
X020040Y008301D01*
X019440Y008301D02*
X019442Y008320D01*
X019447Y008339D01*
X019457Y008355D01*
X019469Y008370D01*
X019484Y008382D01*
X019500Y008392D01*
X019519Y008397D01*
X019538Y008399D01*
X019557Y008397D01*
X019576Y008392D01*
X019592Y008382D01*
X019607Y008370D01*
X019619Y008355D01*
X019629Y008339D01*
X019634Y008320D01*
X019636Y008301D01*
X019634Y008282D01*
X019629Y008263D01*
X019619Y008247D01*
X019607Y008232D01*
X019592Y008220D01*
X019576Y008210D01*
X019557Y008205D01*
X019538Y008203D01*
X019519Y008205D01*
X019500Y008210D01*
X019484Y008220D01*
X019469Y008232D01*
X019457Y008247D01*
X019447Y008263D01*
X019442Y008282D01*
X019440Y008301D01*
X018940Y008301D02*
X018942Y008320D01*
X018947Y008339D01*
X018957Y008355D01*
X018969Y008370D01*
X018984Y008382D01*
X019000Y008392D01*
X019019Y008397D01*
X019038Y008399D01*
X019057Y008397D01*
X019076Y008392D01*
X019092Y008382D01*
X019107Y008370D01*
X019119Y008355D01*
X019129Y008339D01*
X019134Y008320D01*
X019136Y008301D01*
X019134Y008282D01*
X019129Y008263D01*
X019119Y008247D01*
X019107Y008232D01*
X019092Y008220D01*
X019076Y008210D01*
X019057Y008205D01*
X019038Y008203D01*
X019019Y008205D01*
X019000Y008210D01*
X018984Y008220D01*
X018969Y008232D01*
X018957Y008247D01*
X018947Y008263D01*
X018942Y008282D01*
X018940Y008301D01*
X021188Y006501D02*
X021190Y006551D01*
X021196Y006601D01*
X021206Y006651D01*
X021219Y006699D01*
X021236Y006747D01*
X021257Y006793D01*
X021281Y006837D01*
X021309Y006879D01*
X021340Y006919D01*
X021374Y006956D01*
X021411Y006991D01*
X021450Y007022D01*
X021491Y007051D01*
X021535Y007076D01*
X021581Y007098D01*
X021628Y007116D01*
X021676Y007130D01*
X021725Y007141D01*
X021775Y007148D01*
X021825Y007151D01*
X021876Y007150D01*
X021926Y007145D01*
X021976Y007136D01*
X022024Y007124D01*
X022072Y007107D01*
X022118Y007087D01*
X022163Y007064D01*
X022206Y007037D01*
X022246Y007007D01*
X022284Y006974D01*
X022319Y006938D01*
X022352Y006899D01*
X022381Y006858D01*
X022407Y006815D01*
X022430Y006770D01*
X022449Y006723D01*
X022464Y006675D01*
X022476Y006626D01*
X022484Y006576D01*
X022488Y006526D01*
X022488Y006476D01*
X022484Y006426D01*
X022476Y006376D01*
X022464Y006327D01*
X022449Y006279D01*
X022430Y006232D01*
X022407Y006187D01*
X022381Y006144D01*
X022352Y006103D01*
X022319Y006064D01*
X022284Y006028D01*
X022246Y005995D01*
X022206Y005965D01*
X022163Y005938D01*
X022118Y005915D01*
X022072Y005895D01*
X022024Y005878D01*
X021976Y005866D01*
X021926Y005857D01*
X021876Y005852D01*
X021825Y005851D01*
X021775Y005854D01*
X021725Y005861D01*
X021676Y005872D01*
X021628Y005886D01*
X021581Y005904D01*
X021535Y005926D01*
X021491Y005951D01*
X021450Y005980D01*
X021411Y006011D01*
X021374Y006046D01*
X021340Y006083D01*
X021309Y006123D01*
X021281Y006165D01*
X021257Y006209D01*
X021236Y006255D01*
X021219Y006303D01*
X021206Y006351D01*
X021196Y006401D01*
X021190Y006451D01*
X021188Y006501D01*
X016040Y004801D02*
X016042Y004820D01*
X016047Y004839D01*
X016057Y004855D01*
X016069Y004870D01*
X016084Y004882D01*
X016100Y004892D01*
X016119Y004897D01*
X016138Y004899D01*
X016157Y004897D01*
X016176Y004892D01*
X016192Y004882D01*
X016207Y004870D01*
X016219Y004855D01*
X016229Y004839D01*
X016234Y004820D01*
X016236Y004801D01*
X016234Y004782D01*
X016229Y004763D01*
X016219Y004747D01*
X016207Y004732D01*
X016192Y004720D01*
X016176Y004710D01*
X016157Y004705D01*
X016138Y004703D01*
X016119Y004705D01*
X016100Y004710D01*
X016084Y004720D01*
X016069Y004732D01*
X016057Y004747D01*
X016047Y004763D01*
X016042Y004782D01*
X016040Y004801D01*
X015440Y004801D02*
X015442Y004820D01*
X015447Y004839D01*
X015457Y004855D01*
X015469Y004870D01*
X015484Y004882D01*
X015500Y004892D01*
X015519Y004897D01*
X015538Y004899D01*
X015557Y004897D01*
X015576Y004892D01*
X015592Y004882D01*
X015607Y004870D01*
X015619Y004855D01*
X015629Y004839D01*
X015634Y004820D01*
X015636Y004801D01*
X015634Y004782D01*
X015629Y004763D01*
X015619Y004747D01*
X015607Y004732D01*
X015592Y004720D01*
X015576Y004710D01*
X015557Y004705D01*
X015538Y004703D01*
X015519Y004705D01*
X015500Y004710D01*
X015484Y004720D01*
X015469Y004732D01*
X015457Y004747D01*
X015447Y004763D01*
X015442Y004782D01*
X015440Y004801D01*
X015440Y004301D02*
X015442Y004320D01*
X015447Y004339D01*
X015457Y004355D01*
X015469Y004370D01*
X015484Y004382D01*
X015500Y004392D01*
X015519Y004397D01*
X015538Y004399D01*
X015557Y004397D01*
X015576Y004392D01*
X015592Y004382D01*
X015607Y004370D01*
X015619Y004355D01*
X015629Y004339D01*
X015634Y004320D01*
X015636Y004301D01*
X015634Y004282D01*
X015629Y004263D01*
X015619Y004247D01*
X015607Y004232D01*
X015592Y004220D01*
X015576Y004210D01*
X015557Y004205D01*
X015538Y004203D01*
X015519Y004205D01*
X015500Y004210D01*
X015484Y004220D01*
X015469Y004232D01*
X015457Y004247D01*
X015447Y004263D01*
X015442Y004282D01*
X015440Y004301D01*
X016040Y004301D02*
X016042Y004320D01*
X016047Y004339D01*
X016057Y004355D01*
X016069Y004370D01*
X016084Y004382D01*
X016100Y004392D01*
X016119Y004397D01*
X016138Y004399D01*
X016157Y004397D01*
X016176Y004392D01*
X016192Y004382D01*
X016207Y004370D01*
X016219Y004355D01*
X016229Y004339D01*
X016234Y004320D01*
X016236Y004301D01*
X016234Y004282D01*
X016229Y004263D01*
X016219Y004247D01*
X016207Y004232D01*
X016192Y004220D01*
X016176Y004210D01*
X016157Y004205D01*
X016138Y004203D01*
X016119Y004205D01*
X016100Y004210D01*
X016084Y004220D01*
X016069Y004232D01*
X016057Y004247D01*
X016047Y004263D01*
X016042Y004282D01*
X016040Y004301D01*
X016040Y003701D02*
X016042Y003720D01*
X016047Y003739D01*
X016057Y003755D01*
X016069Y003770D01*
X016084Y003782D01*
X016100Y003792D01*
X016119Y003797D01*
X016138Y003799D01*
X016157Y003797D01*
X016176Y003792D01*
X016192Y003782D01*
X016207Y003770D01*
X016219Y003755D01*
X016229Y003739D01*
X016234Y003720D01*
X016236Y003701D01*
X016234Y003682D01*
X016229Y003663D01*
X016219Y003647D01*
X016207Y003632D01*
X016192Y003620D01*
X016176Y003610D01*
X016157Y003605D01*
X016138Y003603D01*
X016119Y003605D01*
X016100Y003610D01*
X016084Y003620D01*
X016069Y003632D01*
X016057Y003647D01*
X016047Y003663D01*
X016042Y003682D01*
X016040Y003701D01*
X015440Y003701D02*
X015442Y003720D01*
X015447Y003739D01*
X015457Y003755D01*
X015469Y003770D01*
X015484Y003782D01*
X015500Y003792D01*
X015519Y003797D01*
X015538Y003799D01*
X015557Y003797D01*
X015576Y003792D01*
X015592Y003782D01*
X015607Y003770D01*
X015619Y003755D01*
X015629Y003739D01*
X015634Y003720D01*
X015636Y003701D01*
X015634Y003682D01*
X015629Y003663D01*
X015619Y003647D01*
X015607Y003632D01*
X015592Y003620D01*
X015576Y003610D01*
X015557Y003605D01*
X015538Y003603D01*
X015519Y003605D01*
X015500Y003610D01*
X015484Y003620D01*
X015469Y003632D01*
X015457Y003647D01*
X015447Y003663D01*
X015442Y003682D01*
X015440Y003701D01*
X015440Y003201D02*
X015442Y003220D01*
X015447Y003239D01*
X015457Y003255D01*
X015469Y003270D01*
X015484Y003282D01*
X015500Y003292D01*
X015519Y003297D01*
X015538Y003299D01*
X015557Y003297D01*
X015576Y003292D01*
X015592Y003282D01*
X015607Y003270D01*
X015619Y003255D01*
X015629Y003239D01*
X015634Y003220D01*
X015636Y003201D01*
X015634Y003182D01*
X015629Y003163D01*
X015619Y003147D01*
X015607Y003132D01*
X015592Y003120D01*
X015576Y003110D01*
X015557Y003105D01*
X015538Y003103D01*
X015519Y003105D01*
X015500Y003110D01*
X015484Y003120D01*
X015469Y003132D01*
X015457Y003147D01*
X015447Y003163D01*
X015442Y003182D01*
X015440Y003201D01*
X016040Y003201D02*
X016042Y003220D01*
X016047Y003239D01*
X016057Y003255D01*
X016069Y003270D01*
X016084Y003282D01*
X016100Y003292D01*
X016119Y003297D01*
X016138Y003299D01*
X016157Y003297D01*
X016176Y003292D01*
X016192Y003282D01*
X016207Y003270D01*
X016219Y003255D01*
X016229Y003239D01*
X016234Y003220D01*
X016236Y003201D01*
X016234Y003182D01*
X016229Y003163D01*
X016219Y003147D01*
X016207Y003132D01*
X016192Y003120D01*
X016176Y003110D01*
X016157Y003105D01*
X016138Y003103D01*
X016119Y003105D01*
X016100Y003110D01*
X016084Y003120D01*
X016069Y003132D01*
X016057Y003147D01*
X016047Y003163D01*
X016042Y003182D01*
X016040Y003201D01*
X017188Y001501D02*
X017190Y001551D01*
X017196Y001601D01*
X017206Y001651D01*
X017219Y001699D01*
X017236Y001747D01*
X017257Y001793D01*
X017281Y001837D01*
X017309Y001879D01*
X017340Y001919D01*
X017374Y001956D01*
X017411Y001991D01*
X017450Y002022D01*
X017491Y002051D01*
X017535Y002076D01*
X017581Y002098D01*
X017628Y002116D01*
X017676Y002130D01*
X017725Y002141D01*
X017775Y002148D01*
X017825Y002151D01*
X017876Y002150D01*
X017926Y002145D01*
X017976Y002136D01*
X018024Y002124D01*
X018072Y002107D01*
X018118Y002087D01*
X018163Y002064D01*
X018206Y002037D01*
X018246Y002007D01*
X018284Y001974D01*
X018319Y001938D01*
X018352Y001899D01*
X018381Y001858D01*
X018407Y001815D01*
X018430Y001770D01*
X018449Y001723D01*
X018464Y001675D01*
X018476Y001626D01*
X018484Y001576D01*
X018488Y001526D01*
X018488Y001476D01*
X018484Y001426D01*
X018476Y001376D01*
X018464Y001327D01*
X018449Y001279D01*
X018430Y001232D01*
X018407Y001187D01*
X018381Y001144D01*
X018352Y001103D01*
X018319Y001064D01*
X018284Y001028D01*
X018246Y000995D01*
X018206Y000965D01*
X018163Y000938D01*
X018118Y000915D01*
X018072Y000895D01*
X018024Y000878D01*
X017976Y000866D01*
X017926Y000857D01*
X017876Y000852D01*
X017825Y000851D01*
X017775Y000854D01*
X017725Y000861D01*
X017676Y000872D01*
X017628Y000886D01*
X017581Y000904D01*
X017535Y000926D01*
X017491Y000951D01*
X017450Y000980D01*
X017411Y001011D01*
X017374Y001046D01*
X017340Y001083D01*
X017309Y001123D01*
X017281Y001165D01*
X017257Y001209D01*
X017236Y001255D01*
X017219Y001303D01*
X017206Y001351D01*
X017196Y001401D01*
X017190Y001451D01*
X017188Y001501D01*
X013188Y001501D02*
X013190Y001551D01*
X013196Y001601D01*
X013206Y001651D01*
X013219Y001699D01*
X013236Y001747D01*
X013257Y001793D01*
X013281Y001837D01*
X013309Y001879D01*
X013340Y001919D01*
X013374Y001956D01*
X013411Y001991D01*
X013450Y002022D01*
X013491Y002051D01*
X013535Y002076D01*
X013581Y002098D01*
X013628Y002116D01*
X013676Y002130D01*
X013725Y002141D01*
X013775Y002148D01*
X013825Y002151D01*
X013876Y002150D01*
X013926Y002145D01*
X013976Y002136D01*
X014024Y002124D01*
X014072Y002107D01*
X014118Y002087D01*
X014163Y002064D01*
X014206Y002037D01*
X014246Y002007D01*
X014284Y001974D01*
X014319Y001938D01*
X014352Y001899D01*
X014381Y001858D01*
X014407Y001815D01*
X014430Y001770D01*
X014449Y001723D01*
X014464Y001675D01*
X014476Y001626D01*
X014484Y001576D01*
X014488Y001526D01*
X014488Y001476D01*
X014484Y001426D01*
X014476Y001376D01*
X014464Y001327D01*
X014449Y001279D01*
X014430Y001232D01*
X014407Y001187D01*
X014381Y001144D01*
X014352Y001103D01*
X014319Y001064D01*
X014284Y001028D01*
X014246Y000995D01*
X014206Y000965D01*
X014163Y000938D01*
X014118Y000915D01*
X014072Y000895D01*
X014024Y000878D01*
X013976Y000866D01*
X013926Y000857D01*
X013876Y000852D01*
X013825Y000851D01*
X013775Y000854D01*
X013725Y000861D01*
X013676Y000872D01*
X013628Y000886D01*
X013581Y000904D01*
X013535Y000926D01*
X013491Y000951D01*
X013450Y000980D01*
X013411Y001011D01*
X013374Y001046D01*
X013340Y001083D01*
X013309Y001123D01*
X013281Y001165D01*
X013257Y001209D01*
X013236Y001255D01*
X013219Y001303D01*
X013206Y001351D01*
X013196Y001401D01*
X013190Y001451D01*
X013188Y001501D01*
X009188Y001501D02*
X009190Y001551D01*
X009196Y001601D01*
X009206Y001651D01*
X009219Y001699D01*
X009236Y001747D01*
X009257Y001793D01*
X009281Y001837D01*
X009309Y001879D01*
X009340Y001919D01*
X009374Y001956D01*
X009411Y001991D01*
X009450Y002022D01*
X009491Y002051D01*
X009535Y002076D01*
X009581Y002098D01*
X009628Y002116D01*
X009676Y002130D01*
X009725Y002141D01*
X009775Y002148D01*
X009825Y002151D01*
X009876Y002150D01*
X009926Y002145D01*
X009976Y002136D01*
X010024Y002124D01*
X010072Y002107D01*
X010118Y002087D01*
X010163Y002064D01*
X010206Y002037D01*
X010246Y002007D01*
X010284Y001974D01*
X010319Y001938D01*
X010352Y001899D01*
X010381Y001858D01*
X010407Y001815D01*
X010430Y001770D01*
X010449Y001723D01*
X010464Y001675D01*
X010476Y001626D01*
X010484Y001576D01*
X010488Y001526D01*
X010488Y001476D01*
X010484Y001426D01*
X010476Y001376D01*
X010464Y001327D01*
X010449Y001279D01*
X010430Y001232D01*
X010407Y001187D01*
X010381Y001144D01*
X010352Y001103D01*
X010319Y001064D01*
X010284Y001028D01*
X010246Y000995D01*
X010206Y000965D01*
X010163Y000938D01*
X010118Y000915D01*
X010072Y000895D01*
X010024Y000878D01*
X009976Y000866D01*
X009926Y000857D01*
X009876Y000852D01*
X009825Y000851D01*
X009775Y000854D01*
X009725Y000861D01*
X009676Y000872D01*
X009628Y000886D01*
X009581Y000904D01*
X009535Y000926D01*
X009491Y000951D01*
X009450Y000980D01*
X009411Y001011D01*
X009374Y001046D01*
X009340Y001083D01*
X009309Y001123D01*
X009281Y001165D01*
X009257Y001209D01*
X009236Y001255D01*
X009219Y001303D01*
X009206Y001351D01*
X009196Y001401D01*
X009190Y001451D01*
X009188Y001501D01*
X021188Y001501D02*
X021190Y001551D01*
X021196Y001601D01*
X021206Y001651D01*
X021219Y001699D01*
X021236Y001747D01*
X021257Y001793D01*
X021281Y001837D01*
X021309Y001879D01*
X021340Y001919D01*
X021374Y001956D01*
X021411Y001991D01*
X021450Y002022D01*
X021491Y002051D01*
X021535Y002076D01*
X021581Y002098D01*
X021628Y002116D01*
X021676Y002130D01*
X021725Y002141D01*
X021775Y002148D01*
X021825Y002151D01*
X021876Y002150D01*
X021926Y002145D01*
X021976Y002136D01*
X022024Y002124D01*
X022072Y002107D01*
X022118Y002087D01*
X022163Y002064D01*
X022206Y002037D01*
X022246Y002007D01*
X022284Y001974D01*
X022319Y001938D01*
X022352Y001899D01*
X022381Y001858D01*
X022407Y001815D01*
X022430Y001770D01*
X022449Y001723D01*
X022464Y001675D01*
X022476Y001626D01*
X022484Y001576D01*
X022488Y001526D01*
X022488Y001476D01*
X022484Y001426D01*
X022476Y001376D01*
X022464Y001327D01*
X022449Y001279D01*
X022430Y001232D01*
X022407Y001187D01*
X022381Y001144D01*
X022352Y001103D01*
X022319Y001064D01*
X022284Y001028D01*
X022246Y000995D01*
X022206Y000965D01*
X022163Y000938D01*
X022118Y000915D01*
X022072Y000895D01*
X022024Y000878D01*
X021976Y000866D01*
X021926Y000857D01*
X021876Y000852D01*
X021825Y000851D01*
X021775Y000854D01*
X021725Y000861D01*
X021676Y000872D01*
X021628Y000886D01*
X021581Y000904D01*
X021535Y000926D01*
X021491Y000951D01*
X021450Y000980D01*
X021411Y001011D01*
X021374Y001046D01*
X021340Y001083D01*
X021309Y001123D01*
X021281Y001165D01*
X021257Y001209D01*
X021236Y001255D01*
X021219Y001303D01*
X021206Y001351D01*
X021196Y001401D01*
X021190Y001451D01*
X021188Y001501D01*
D12*
X020872Y000926D02*
X020722Y000776D01*
X020922Y000776D01*
X020872Y000626D02*
X020872Y000926D01*
X020499Y000926D02*
X020499Y000626D01*
X020399Y000626D02*
X020599Y000626D01*
X020277Y000926D02*
X020077Y000626D01*
X019955Y000876D02*
X019755Y000676D01*
X019755Y000626D01*
X019433Y000626D02*
X019633Y000926D01*
X019755Y000926D02*
X019955Y000926D01*
X019955Y000876D01*
X020399Y000826D02*
X020499Y000926D01*
X019311Y000626D02*
X019110Y000626D01*
X019210Y000626D02*
X019210Y000926D01*
X019110Y000826D01*
X018888Y000926D02*
X018888Y000626D01*
X018788Y000626D02*
X018988Y000626D01*
X018788Y000826D02*
X018888Y000926D01*
X012922Y000776D02*
X012722Y000776D01*
X012872Y000926D01*
X012872Y000626D01*
X012599Y000626D02*
X012399Y000626D01*
X012499Y000626D02*
X012499Y000926D01*
X012399Y000826D01*
X012277Y000926D02*
X012077Y000626D01*
X011955Y000876D02*
X011755Y000676D01*
X011755Y000626D01*
X011433Y000626D02*
X011633Y000926D01*
X011755Y000926D02*
X011955Y000926D01*
X011955Y000876D01*
X011311Y000626D02*
X011110Y000626D01*
X011210Y000626D02*
X011210Y000926D01*
X011110Y000826D01*
X010888Y000926D02*
X010888Y000626D01*
X010788Y000626D02*
X010988Y000626D01*
X010788Y000826D02*
X010888Y000926D01*
X010888Y008626D02*
X010888Y008926D01*
X010788Y008826D01*
X011110Y008826D02*
X011210Y008926D01*
X011210Y008626D01*
X011110Y008626D02*
X011311Y008626D01*
X011433Y008626D02*
X011633Y008926D01*
X011755Y008926D02*
X011955Y008926D01*
X011955Y008876D01*
X011755Y008676D01*
X011755Y008626D01*
X012077Y008626D02*
X012277Y008926D01*
X012399Y008826D02*
X012499Y008926D01*
X012499Y008626D01*
X012399Y008626D02*
X012599Y008626D01*
X012722Y008776D02*
X012922Y008776D01*
X012872Y008626D02*
X012872Y008926D01*
X012722Y008776D01*
X010988Y008626D02*
X010788Y008626D01*
X018788Y008626D02*
X018988Y008626D01*
X018888Y008626D02*
X018888Y008926D01*
X018788Y008826D01*
X019110Y008826D02*
X019210Y008926D01*
X019210Y008626D01*
X019110Y008626D02*
X019311Y008626D01*
X019433Y008626D02*
X019633Y008926D01*
X019755Y008926D02*
X019955Y008926D01*
X019955Y008876D01*
X019755Y008676D01*
X019755Y008626D01*
X020077Y008626D02*
X020277Y008926D01*
X020399Y008826D02*
X020499Y008926D01*
X020499Y008626D01*
X020399Y008626D02*
X020599Y008626D01*
X020722Y008776D02*
X020922Y008776D01*
X020872Y008626D02*
X020872Y008926D01*
X020722Y008776D01*
D13*
X020338Y009245D03*
X019338Y009245D03*
X019338Y009757D03*
X020338Y009757D03*
X012338Y009757D03*
X011338Y009757D03*
X011338Y009245D03*
X012338Y009245D03*
X011838Y006757D03*
X011838Y006245D03*
X019838Y006245D03*
X019838Y006757D03*
X019338Y001757D03*
X020338Y001757D03*
X020338Y001245D03*
X019338Y001245D03*
X012338Y001245D03*
X011338Y001245D03*
X011338Y001757D03*
X012338Y001757D03*
X011838Y014245D03*
X011838Y014757D03*
X019838Y014757D03*
X019838Y014245D03*
D14*
X022838Y015001D03*
X014838Y015001D03*
X016838Y009001D03*
X014838Y007001D03*
X008838Y009001D03*
X022838Y007001D03*
X016838Y001001D03*
X008838Y001001D03*
D15*
X008838Y003001D03*
X008838Y004001D03*
X008838Y005001D03*
X014838Y005001D03*
X016838Y005001D03*
X016838Y004001D03*
X014838Y004001D03*
X014838Y003001D03*
X016838Y003001D03*
X022838Y003001D03*
X022838Y004001D03*
X022838Y005001D03*
X022838Y011001D03*
X022838Y012001D03*
X022838Y013001D03*
X016838Y013001D03*
X014838Y013001D03*
X014838Y012001D03*
X016838Y012001D03*
X016838Y011001D03*
X014838Y011001D03*
X008838Y011001D03*
X008838Y012001D03*
X008838Y013001D03*
D16*
X010338Y013001D01*
X010838Y013501D01*
X011838Y013501D01*
X011838Y014245D01*
X012094Y014245D01*
X012338Y014001D01*
X011838Y013501D02*
X013338Y013501D01*
X013838Y013001D01*
X014838Y013001D01*
X016838Y013001D02*
X018338Y013001D01*
X018838Y013501D01*
X019838Y013501D01*
X019838Y014245D01*
X020094Y014245D01*
X020338Y014001D01*
X019838Y013501D02*
X021338Y013501D01*
X021838Y013001D01*
X022838Y013001D01*
X022838Y012001D02*
X020838Y010001D01*
X020838Y009501D01*
X020582Y009245D01*
X020338Y009245D01*
X019338Y009245D02*
X019094Y009245D01*
X018838Y009501D01*
X018838Y010001D01*
X016838Y012001D01*
X014838Y012001D02*
X012838Y010001D01*
X012838Y009501D01*
X012582Y009245D01*
X012338Y009245D01*
X011338Y009245D02*
X011094Y009245D01*
X010838Y009501D01*
X010838Y010001D01*
X008838Y012001D01*
X011338Y010501D02*
X011338Y009757D01*
X012338Y009757D02*
X012338Y010501D01*
X019338Y010501D02*
X019338Y009757D01*
X020338Y009757D02*
X020338Y010501D01*
X020094Y006245D02*
X019838Y006245D01*
X019838Y005501D01*
X021338Y005501D01*
X021838Y005001D01*
X022838Y005001D01*
X022838Y004001D02*
X020838Y002001D01*
X020838Y001501D01*
X020582Y001245D01*
X020338Y001245D01*
X019338Y001245D02*
X019094Y001245D01*
X018838Y001501D01*
X018838Y002001D01*
X016838Y004001D01*
X014838Y004001D02*
X012838Y002001D01*
X012838Y001501D01*
X012582Y001245D01*
X012338Y001245D01*
X011338Y001245D02*
X011094Y001245D01*
X010838Y001501D01*
X010838Y002001D01*
X008838Y004001D01*
X008838Y005001D02*
X010338Y005001D01*
X010838Y005501D01*
X011838Y005501D01*
X011838Y006245D01*
X012094Y006245D01*
X012338Y006001D01*
X011838Y005501D02*
X013338Y005501D01*
X013838Y005001D01*
X014838Y005001D01*
X016838Y005001D02*
X018338Y005001D01*
X018838Y005501D01*
X019838Y005501D01*
X020338Y006001D02*
X020094Y006245D01*
X020338Y002501D02*
X020338Y001757D01*
X019338Y001757D02*
X019338Y002501D01*
X012338Y002501D02*
X012338Y001757D01*
X011338Y001757D02*
X011338Y002501D01*
D17*
X011338Y002501D03*
X012338Y002501D03*
X014838Y002001D03*
X016838Y002001D03*
X019338Y002501D03*
X020338Y002501D03*
X022838Y002001D03*
X017838Y004501D03*
X016838Y006001D03*
X014838Y006001D03*
X012338Y006001D03*
X008838Y006001D03*
X009838Y004501D03*
X008838Y002001D03*
X020338Y006001D03*
X022838Y006001D03*
X022838Y010001D03*
X020338Y010501D03*
X019338Y010501D03*
X016838Y010001D03*
X014838Y010001D03*
X012338Y010501D03*
X011338Y010501D03*
X008838Y010001D03*
X009838Y012501D03*
X008838Y014001D03*
X012338Y014001D03*
X014838Y014001D03*
X016838Y014001D03*
X020338Y014001D03*
X022838Y014001D03*
X017838Y012501D03*
D18*
X017308Y012279D02*
X022369Y012279D01*
X022380Y012307D02*
X022298Y012109D01*
X022298Y011894D01*
X022321Y011838D01*
X020626Y010143D01*
X020591Y010059D01*
X020588Y010062D01*
X020588Y010230D01*
X020650Y010293D01*
X020706Y010428D01*
X020706Y010575D01*
X020650Y010710D01*
X020547Y010814D01*
X020411Y010870D01*
X020265Y010870D01*
X020129Y010814D01*
X020026Y010710D01*
X019970Y010575D01*
X019970Y010428D01*
X020026Y010293D01*
X020088Y010230D01*
X020088Y010062D01*
X019991Y009965D01*
X019991Y009549D01*
X020039Y009501D01*
X019991Y009454D01*
X019991Y009121D01*
X019874Y009121D01*
X019692Y009121D01*
X019685Y009126D01*
X019685Y009454D01*
X019638Y009501D01*
X019685Y009549D01*
X019685Y009965D01*
X019588Y010062D01*
X019588Y010230D01*
X019650Y010293D01*
X019706Y010428D01*
X019706Y010575D01*
X019650Y010710D01*
X019547Y010814D01*
X019411Y010870D01*
X019265Y010870D01*
X019129Y010814D01*
X019026Y010710D01*
X018970Y010575D01*
X018970Y010428D01*
X019026Y010293D01*
X019088Y010230D01*
X019088Y010062D01*
X019085Y010059D01*
X019050Y010143D01*
X017355Y011838D01*
X017378Y011894D01*
X017378Y012109D01*
X017296Y012307D01*
X017144Y012459D01*
X017042Y012501D01*
X017144Y012543D01*
X017296Y012695D01*
X017319Y012751D01*
X018288Y012751D01*
X018388Y012751D01*
X018480Y012789D01*
X018942Y013251D01*
X019788Y013251D01*
X021235Y013251D01*
X021626Y012860D01*
X021626Y012860D01*
X021696Y012789D01*
X021788Y012751D01*
X022357Y012751D01*
X022380Y012695D01*
X022532Y012543D01*
X022634Y012501D01*
X022532Y012459D01*
X022380Y012307D01*
X022451Y012377D02*
X017226Y012377D01*
X017103Y012476D02*
X022573Y012476D01*
X022501Y012575D02*
X017175Y012575D01*
X017274Y012673D02*
X022403Y012673D01*
X021739Y012772D02*
X018437Y012772D01*
X018561Y012870D02*
X021616Y012870D01*
X021517Y012969D02*
X018659Y012969D01*
X018758Y013067D02*
X021419Y013067D01*
X021320Y013166D02*
X018856Y013166D01*
X018626Y013643D02*
X018235Y013251D01*
X017319Y013251D01*
X017296Y013307D01*
X017144Y013459D01*
X016946Y013541D01*
X016731Y013541D01*
X016548Y013466D01*
X016548Y015291D01*
X017317Y015291D01*
X017107Y015115D01*
X017107Y015115D01*
X017107Y015115D01*
X016941Y014828D01*
X016941Y014828D01*
X016884Y014501D01*
X016941Y014175D01*
X017107Y013888D01*
X017107Y013888D01*
X017361Y013675D01*
X017672Y013561D01*
X017672Y013561D01*
X017751Y013561D01*
X017838Y013561D01*
X018004Y013561D01*
X018315Y013675D01*
X018569Y013888D01*
X018735Y014175D01*
X018793Y014501D01*
X018735Y014828D01*
X018569Y015115D01*
X018359Y015291D01*
X021317Y015291D01*
X021107Y015115D01*
X021107Y015115D01*
X021107Y015115D01*
X020941Y014828D01*
X020941Y014828D01*
X020884Y014501D01*
X020941Y014175D01*
X021107Y013888D01*
X021270Y013751D01*
X020609Y013751D01*
X020650Y013793D01*
X020706Y013928D01*
X020706Y014075D01*
X020650Y014210D01*
X020547Y014314D01*
X020411Y014370D01*
X020323Y014370D01*
X020236Y014457D01*
X020144Y014495D01*
X020143Y014495D01*
X020123Y014515D01*
X020135Y014527D01*
X020155Y014561D01*
X020165Y014600D01*
X020165Y014738D01*
X019857Y014738D01*
X019857Y014776D01*
X020165Y014776D01*
X020165Y014915D01*
X020155Y014953D01*
X020135Y014987D01*
X020107Y015015D01*
X020073Y015035D01*
X020035Y015045D01*
X019857Y015045D01*
X019857Y014776D01*
X019819Y014776D01*
X019819Y014738D01*
X019511Y014738D01*
X019511Y014600D01*
X019521Y014561D01*
X019541Y014527D01*
X019553Y014515D01*
X019491Y014454D01*
X019491Y014037D01*
X019588Y013940D01*
X019588Y013751D01*
X018788Y013751D01*
X018696Y013713D01*
X018626Y013643D01*
X018642Y013659D02*
X018271Y013659D01*
X018315Y013675D02*
X018315Y013675D01*
X018414Y013757D02*
X019588Y013757D01*
X019588Y013856D02*
X018531Y013856D01*
X018569Y013888D02*
X018569Y013888D01*
X018569Y013888D01*
X018608Y013954D02*
X019574Y013954D01*
X019491Y014053D02*
X018664Y014053D01*
X018721Y014151D02*
X019491Y014151D01*
X019491Y014250D02*
X018748Y014250D01*
X018735Y014175D02*
X018735Y014175D01*
X018766Y014348D02*
X019491Y014348D01*
X019491Y014447D02*
X018783Y014447D01*
X018793Y014501D02*
X018793Y014501D01*
X018785Y014545D02*
X019530Y014545D01*
X019511Y014644D02*
X018767Y014644D01*
X018750Y014742D02*
X019819Y014742D01*
X019819Y014776D02*
X019511Y014776D01*
X019511Y014915D01*
X019521Y014953D01*
X019541Y014987D01*
X019569Y015015D01*
X019603Y015035D01*
X019641Y015045D01*
X019819Y015045D01*
X019819Y014776D01*
X019857Y014742D02*
X020926Y014742D01*
X020909Y014644D02*
X020165Y014644D01*
X020146Y014545D02*
X020891Y014545D01*
X020884Y014501D02*
X020884Y014501D01*
X020893Y014447D02*
X020246Y014447D01*
X020463Y014348D02*
X020911Y014348D01*
X020928Y014250D02*
X020611Y014250D01*
X020675Y014151D02*
X020955Y014151D01*
X020941Y014175D02*
X020941Y014175D01*
X021012Y014053D02*
X020706Y014053D01*
X020706Y013954D02*
X021069Y013954D01*
X021107Y013888D02*
X021107Y013888D01*
X021145Y013856D02*
X020676Y013856D01*
X020615Y013757D02*
X021263Y013757D01*
X021608Y013585D02*
X021942Y013251D01*
X022357Y013251D01*
X022380Y013307D01*
X022532Y013459D01*
X022731Y013541D01*
X022946Y013541D01*
X023128Y013466D01*
X023128Y014772D01*
X023046Y014690D01*
X022911Y014634D01*
X022769Y014634D01*
X022793Y014501D01*
X022793Y014501D01*
X022735Y014175D01*
X022735Y014175D01*
X022569Y013888D01*
X022569Y013888D01*
X022569Y013888D01*
X022315Y013675D01*
X022315Y013675D01*
X022004Y013561D01*
X022004Y013561D01*
X021838Y013561D01*
X021751Y013561D01*
X021672Y013561D01*
X021608Y013585D01*
X021633Y013560D02*
X023128Y013560D01*
X023128Y013659D02*
X022271Y013659D01*
X022414Y013757D02*
X023128Y013757D01*
X023128Y013856D02*
X022531Y013856D01*
X022608Y013954D02*
X023128Y013954D01*
X023128Y014053D02*
X022664Y014053D01*
X022721Y014151D02*
X023128Y014151D01*
X023128Y014250D02*
X022748Y014250D01*
X022766Y014348D02*
X023128Y014348D01*
X023128Y014447D02*
X022783Y014447D01*
X022785Y014545D02*
X023128Y014545D01*
X023128Y014644D02*
X022934Y014644D01*
X023098Y014742D02*
X023128Y014742D01*
X021251Y015235D02*
X018426Y015235D01*
X018543Y015137D02*
X021133Y015137D01*
X021063Y015038D02*
X020060Y015038D01*
X020159Y014940D02*
X021006Y014940D01*
X020949Y014841D02*
X020165Y014841D01*
X019857Y014841D02*
X019819Y014841D01*
X019819Y014940D02*
X019857Y014940D01*
X019857Y015038D02*
X019819Y015038D01*
X019616Y015038D02*
X018614Y015038D01*
X018569Y015115D02*
X018569Y015115D01*
X018670Y014940D02*
X019518Y014940D01*
X019511Y014841D02*
X018727Y014841D01*
X017251Y015235D02*
X016548Y015235D01*
X016548Y015137D02*
X017133Y015137D01*
X017063Y015038D02*
X016548Y015038D01*
X016548Y014940D02*
X017006Y014940D01*
X016949Y014841D02*
X016548Y014841D01*
X016548Y014742D02*
X016926Y014742D01*
X016909Y014644D02*
X016548Y014644D01*
X016548Y014545D02*
X016891Y014545D01*
X016884Y014501D02*
X016884Y014501D01*
X016893Y014447D02*
X016548Y014447D01*
X016548Y014348D02*
X016911Y014348D01*
X016928Y014250D02*
X016548Y014250D01*
X016548Y014151D02*
X016955Y014151D01*
X016941Y014175D02*
X016941Y014175D01*
X017012Y014053D02*
X016548Y014053D01*
X016548Y013954D02*
X017069Y013954D01*
X017145Y013856D02*
X016548Y013856D01*
X016548Y013757D02*
X017263Y013757D01*
X017361Y013675D02*
X017361Y013675D01*
X017405Y013659D02*
X016548Y013659D01*
X016548Y013560D02*
X018543Y013560D01*
X018445Y013461D02*
X017138Y013461D01*
X017240Y013363D02*
X018346Y013363D01*
X018248Y013264D02*
X017314Y013264D01*
X018004Y013561D02*
X018004Y013561D01*
X015128Y013552D02*
X015128Y013466D01*
X014946Y013541D01*
X014731Y013541D01*
X014532Y013459D01*
X014380Y013307D01*
X014357Y013251D01*
X013942Y013251D01*
X013608Y013585D01*
X013672Y013561D01*
X013672Y013561D01*
X013751Y013561D01*
X013838Y013561D01*
X014004Y013561D01*
X014315Y013675D01*
X014569Y013888D01*
X014569Y013888D01*
X014735Y014175D01*
X014793Y014501D01*
X014793Y014501D01*
X014769Y014634D01*
X014911Y014634D01*
X015046Y014690D01*
X015128Y014772D01*
X015128Y013588D01*
X015128Y013552D01*
X015128Y013560D02*
X013633Y013560D01*
X013731Y013461D02*
X014538Y013461D01*
X014436Y013363D02*
X013830Y013363D01*
X013929Y013264D02*
X014363Y013264D01*
X014271Y013659D02*
X015128Y013659D01*
X015128Y013757D02*
X014414Y013757D01*
X014531Y013856D02*
X015128Y013856D01*
X015128Y013954D02*
X014608Y013954D01*
X014664Y014053D02*
X015128Y014053D01*
X015128Y014151D02*
X014721Y014151D01*
X014735Y014175D02*
X014735Y014175D01*
X014748Y014250D02*
X015128Y014250D01*
X015128Y014348D02*
X014766Y014348D01*
X014783Y014447D02*
X015128Y014447D01*
X015128Y014545D02*
X014785Y014545D01*
X014934Y014644D02*
X015128Y014644D01*
X015128Y014742D02*
X015098Y014742D01*
X013317Y015291D02*
X013107Y015115D01*
X013107Y015115D01*
X013107Y015115D01*
X012941Y014828D01*
X012941Y014828D01*
X012884Y014501D01*
X012941Y014175D01*
X013107Y013888D01*
X013107Y013888D01*
X013270Y013751D01*
X012609Y013751D01*
X012650Y013793D01*
X012706Y013928D01*
X012706Y014075D01*
X012650Y014210D01*
X012547Y014314D01*
X012411Y014370D01*
X012323Y014370D01*
X012236Y014457D01*
X012144Y014495D01*
X012143Y014495D01*
X012123Y014515D01*
X012135Y014527D01*
X012155Y014561D01*
X012165Y014600D01*
X012165Y014738D01*
X011857Y014738D01*
X011857Y014776D01*
X012165Y014776D01*
X012165Y014915D01*
X012155Y014953D01*
X012135Y014987D01*
X012107Y015015D01*
X012073Y015035D01*
X012035Y015045D01*
X011857Y015045D01*
X011857Y014776D01*
X011819Y014776D01*
X011819Y014738D01*
X011511Y014738D01*
X011511Y014600D01*
X011521Y014561D01*
X011541Y014527D01*
X011553Y014515D01*
X011491Y014454D01*
X011491Y014037D01*
X011588Y013940D01*
X011588Y013751D01*
X010788Y013751D01*
X010696Y013713D01*
X010626Y013643D01*
X010235Y013251D01*
X009319Y013251D01*
X009296Y013307D01*
X009144Y013459D01*
X008946Y013541D01*
X008731Y013541D01*
X008548Y013466D01*
X008548Y015291D01*
X009317Y015291D01*
X009107Y015115D01*
X009107Y015115D01*
X009107Y015115D01*
X008941Y014828D01*
X008941Y014828D01*
X008884Y014501D01*
X008941Y014175D01*
X009107Y013888D01*
X009107Y013888D01*
X009361Y013675D01*
X009672Y013561D01*
X009672Y013561D01*
X009838Y013561D01*
X009925Y013561D01*
X010004Y013561D01*
X010315Y013675D01*
X010569Y013888D01*
X010735Y014175D01*
X010793Y014501D01*
X010793Y014501D01*
X010735Y014828D01*
X010569Y015115D01*
X010359Y015291D01*
X013317Y015291D01*
X013251Y015235D02*
X010426Y015235D01*
X010543Y015137D02*
X013133Y015137D01*
X013063Y015038D02*
X012060Y015038D01*
X012159Y014940D02*
X013006Y014940D01*
X012949Y014841D02*
X012165Y014841D01*
X012165Y014644D02*
X012909Y014644D01*
X012926Y014742D02*
X011857Y014742D01*
X011819Y014742D02*
X010750Y014742D01*
X010735Y014828D02*
X010735Y014828D01*
X010727Y014841D02*
X011511Y014841D01*
X011511Y014776D02*
X011511Y014915D01*
X011521Y014953D01*
X011541Y014987D01*
X011569Y015015D01*
X011603Y015035D01*
X011641Y015045D01*
X011819Y015045D01*
X011819Y014776D01*
X011511Y014776D01*
X011511Y014644D02*
X010767Y014644D01*
X010785Y014545D02*
X011530Y014545D01*
X011491Y014447D02*
X010783Y014447D01*
X010766Y014348D02*
X011491Y014348D01*
X011491Y014250D02*
X010748Y014250D01*
X010735Y014175D02*
X010735Y014175D01*
X010721Y014151D02*
X011491Y014151D01*
X011491Y014053D02*
X010664Y014053D01*
X010608Y013954D02*
X011574Y013954D01*
X011588Y013856D02*
X010531Y013856D01*
X010569Y013888D02*
X010569Y013888D01*
X010569Y013888D01*
X010414Y013757D02*
X011588Y013757D01*
X010642Y013659D02*
X010271Y013659D01*
X010315Y013675D02*
X010315Y013675D01*
X010445Y013461D02*
X009138Y013461D01*
X009240Y013363D02*
X010346Y013363D01*
X010248Y013264D02*
X009314Y013264D01*
X009405Y013659D02*
X008548Y013659D01*
X008548Y013757D02*
X009263Y013757D01*
X009361Y013675D02*
X009361Y013675D01*
X010004Y013561D02*
X010004Y013561D01*
X010543Y013560D02*
X008548Y013560D01*
X008548Y013856D02*
X009145Y013856D01*
X009069Y013954D02*
X008548Y013954D01*
X008548Y014053D02*
X009012Y014053D01*
X008955Y014151D02*
X008548Y014151D01*
X008548Y014250D02*
X008928Y014250D01*
X008941Y014175D02*
X008941Y014175D01*
X008911Y014348D02*
X008548Y014348D01*
X008548Y014447D02*
X008893Y014447D01*
X008884Y014501D02*
X008884Y014501D01*
X008891Y014545D02*
X008548Y014545D01*
X008548Y014644D02*
X008909Y014644D01*
X008926Y014742D02*
X008548Y014742D01*
X008548Y014841D02*
X008949Y014841D01*
X009006Y014940D02*
X008548Y014940D01*
X008548Y015038D02*
X009063Y015038D01*
X009133Y015137D02*
X008548Y015137D01*
X008548Y015235D02*
X009251Y015235D01*
X010569Y015115D02*
X010569Y015115D01*
X010614Y015038D02*
X011616Y015038D01*
X011518Y014940D02*
X010670Y014940D01*
X011819Y014940D02*
X011857Y014940D01*
X011857Y015038D02*
X011819Y015038D01*
X011819Y014841D02*
X011857Y014841D01*
X012146Y014545D02*
X012891Y014545D01*
X012884Y014501D02*
X012884Y014501D01*
X012893Y014447D02*
X012246Y014447D01*
X012463Y014348D02*
X012911Y014348D01*
X012928Y014250D02*
X012611Y014250D01*
X012675Y014151D02*
X012955Y014151D01*
X012941Y014175D02*
X012941Y014175D01*
X013012Y014053D02*
X012706Y014053D01*
X012706Y013954D02*
X013069Y013954D01*
X013145Y013856D02*
X012676Y013856D01*
X012615Y013757D02*
X013263Y013757D01*
X014004Y013561D02*
X014004Y013561D01*
X013626Y012860D02*
X013235Y013251D01*
X011888Y013251D01*
X011788Y013251D01*
X010942Y013251D01*
X010480Y012789D01*
X010388Y012751D01*
X010288Y012751D01*
X009319Y012751D01*
X009296Y012695D01*
X009144Y012543D01*
X009042Y012501D01*
X009144Y012459D01*
X009296Y012307D01*
X009378Y012109D01*
X009378Y011894D01*
X009355Y011838D01*
X010980Y010213D01*
X010980Y010213D01*
X011050Y010143D01*
X011085Y010059D01*
X011088Y010063D01*
X011088Y010230D01*
X011026Y010293D01*
X010970Y010428D01*
X010970Y010575D01*
X011026Y010710D01*
X011129Y010814D01*
X011265Y010870D01*
X011411Y010870D01*
X011547Y010814D01*
X011650Y010710D01*
X011706Y010575D01*
X011706Y010428D01*
X011650Y010293D01*
X011588Y010230D01*
X011588Y010063D01*
X011685Y009965D01*
X011685Y009549D01*
X011638Y009501D01*
X011685Y009454D01*
X011685Y009126D01*
X011692Y009121D01*
X011874Y009121D01*
X011991Y009121D01*
X011991Y009454D01*
X012039Y009501D01*
X011991Y009549D01*
X011991Y009965D01*
X012088Y010063D01*
X012088Y010230D01*
X012026Y010293D01*
X011970Y010428D01*
X011970Y010575D01*
X012026Y010710D01*
X012129Y010814D01*
X012265Y010870D01*
X012411Y010870D01*
X012547Y010814D01*
X012650Y010710D01*
X012706Y010575D01*
X012706Y010428D01*
X012650Y010293D01*
X012588Y010230D01*
X012588Y010063D01*
X012591Y010059D01*
X012626Y010143D01*
X014321Y011838D01*
X014298Y011894D01*
X014298Y012109D01*
X014380Y012307D01*
X014532Y012459D01*
X014634Y012501D01*
X014532Y012543D01*
X014380Y012695D01*
X014357Y012751D01*
X013788Y012751D01*
X013696Y012789D01*
X013626Y012860D01*
X013616Y012870D02*
X010561Y012870D01*
X010659Y012969D02*
X013517Y012969D01*
X013419Y013067D02*
X010758Y013067D01*
X010856Y013166D02*
X013320Y013166D01*
X013739Y012772D02*
X010437Y012772D01*
X009274Y012673D02*
X014403Y012673D01*
X014501Y012575D02*
X009175Y012575D01*
X009103Y012476D02*
X014573Y012476D01*
X014451Y012377D02*
X009226Y012377D01*
X009308Y012279D02*
X014369Y012279D01*
X014328Y012180D02*
X009348Y012180D01*
X009378Y012082D02*
X014298Y012082D01*
X014298Y011983D02*
X009378Y011983D01*
X009374Y011885D02*
X014302Y011885D01*
X014270Y011786D02*
X009407Y011786D01*
X009505Y011688D02*
X014171Y011688D01*
X014072Y011589D02*
X009604Y011589D01*
X009702Y011491D02*
X013974Y011491D01*
X013875Y011392D02*
X009801Y011392D01*
X009899Y011293D02*
X013777Y011293D01*
X013678Y011195D02*
X009998Y011195D01*
X010096Y011096D02*
X013580Y011096D01*
X013481Y010998D02*
X010195Y010998D01*
X010294Y010899D02*
X013383Y010899D01*
X013284Y010801D02*
X012560Y010801D01*
X012654Y010702D02*
X013186Y010702D01*
X013087Y010604D02*
X012694Y010604D01*
X012706Y010505D02*
X012989Y010505D01*
X012890Y010407D02*
X012698Y010407D01*
X012657Y010308D02*
X012791Y010308D01*
X012693Y010209D02*
X012588Y010209D01*
X012588Y010111D02*
X012613Y010111D01*
X012088Y010111D02*
X011588Y010111D01*
X011588Y010209D02*
X012088Y010209D01*
X012019Y010308D02*
X011657Y010308D01*
X011698Y010407D02*
X011979Y010407D01*
X011970Y010505D02*
X011706Y010505D01*
X011694Y010604D02*
X011982Y010604D01*
X012023Y010702D02*
X011654Y010702D01*
X011560Y010801D02*
X012117Y010801D01*
X011117Y010801D02*
X010392Y010801D01*
X010491Y010702D02*
X011023Y010702D01*
X010982Y010604D02*
X010589Y010604D01*
X010688Y010505D02*
X010970Y010505D01*
X010979Y010407D02*
X010786Y010407D01*
X010885Y010308D02*
X011019Y010308D01*
X010983Y010209D02*
X011088Y010209D01*
X011088Y010111D02*
X011063Y010111D01*
X011638Y010012D02*
X012038Y010012D01*
X011991Y009914D02*
X011685Y009914D01*
X011685Y009815D02*
X011991Y009815D01*
X011991Y009717D02*
X011685Y009717D01*
X011685Y009618D02*
X011991Y009618D01*
X012020Y009520D02*
X011656Y009520D01*
X011685Y009421D02*
X011991Y009421D01*
X011991Y009323D02*
X011685Y009323D01*
X011685Y009224D02*
X011991Y009224D01*
X011991Y009126D02*
X011686Y009126D01*
X009107Y010115D02*
X008941Y009828D01*
X008941Y009828D01*
X008884Y009501D01*
X008907Y009368D01*
X008765Y009368D01*
X008630Y009312D01*
X008548Y009230D01*
X008548Y010569D01*
X008566Y010556D01*
X008638Y010519D01*
X008716Y010494D01*
X008788Y010483D01*
X008788Y010951D01*
X008888Y010951D01*
X008888Y010483D01*
X008960Y010494D01*
X009038Y010519D01*
X009111Y010556D01*
X009177Y010605D01*
X009235Y010662D01*
X009283Y010729D01*
X009320Y010802D01*
X009345Y010879D01*
X009357Y010951D01*
X008888Y010951D01*
X008888Y011051D01*
X009357Y011051D01*
X009345Y011123D01*
X009337Y011149D01*
X010068Y010418D01*
X010004Y010441D01*
X009925Y010441D01*
X009838Y010441D01*
X009751Y010441D01*
X009672Y010441D01*
X009361Y010328D01*
X009107Y010115D01*
X009107Y010115D01*
X009107Y010115D01*
X009105Y010111D02*
X008548Y010111D01*
X008548Y010209D02*
X009220Y010209D01*
X009337Y010308D02*
X008548Y010308D01*
X008548Y010407D02*
X009577Y010407D01*
X009882Y010604D02*
X009176Y010604D01*
X009264Y010702D02*
X009784Y010702D01*
X009685Y010801D02*
X009319Y010801D01*
X009348Y010899D02*
X009587Y010899D01*
X009488Y010998D02*
X008888Y010998D01*
X008888Y010899D02*
X008788Y010899D01*
X008788Y010801D02*
X008888Y010801D01*
X008888Y010702D02*
X008788Y010702D01*
X008788Y010604D02*
X008888Y010604D01*
X008888Y010505D02*
X008788Y010505D01*
X008682Y010505D02*
X008548Y010505D01*
X008994Y010505D02*
X009981Y010505D01*
X010004Y010441D02*
X010004Y010441D01*
X009048Y010012D02*
X008548Y010012D01*
X008548Y009914D02*
X008991Y009914D01*
X008939Y009815D02*
X008548Y009815D01*
X008548Y009717D02*
X008922Y009717D01*
X008904Y009618D02*
X008548Y009618D01*
X008548Y009520D02*
X008887Y009520D01*
X008884Y009501D02*
X008884Y009501D01*
X008898Y009421D02*
X008548Y009421D01*
X008548Y009323D02*
X008655Y009323D01*
X013608Y010418D02*
X014339Y011149D01*
X014331Y011123D01*
X014320Y011051D01*
X014788Y011051D01*
X014788Y010951D01*
X014888Y010951D01*
X014888Y010483D01*
X014960Y010494D01*
X015038Y010519D01*
X015111Y010556D01*
X015128Y010569D01*
X015128Y010501D01*
X015128Y010414D01*
X015128Y008711D01*
X014359Y008711D01*
X014569Y008888D01*
X014735Y009175D01*
X014793Y009501D01*
X014793Y009501D01*
X014735Y009828D01*
X014569Y010115D01*
X014315Y010328D01*
X014004Y010441D01*
X013925Y010441D01*
X013838Y010441D01*
X013810Y010441D01*
X013751Y010441D01*
X013672Y010441D01*
X013608Y010418D01*
X013672Y010441D02*
X013672Y010441D01*
X013695Y010505D02*
X014682Y010505D01*
X014716Y010494D02*
X014788Y010483D01*
X014788Y010951D01*
X014320Y010951D01*
X014331Y010879D01*
X014356Y010802D01*
X014393Y010729D01*
X014441Y010662D01*
X014499Y010605D01*
X014566Y010556D01*
X014638Y010519D01*
X014716Y010494D01*
X014788Y010505D02*
X014888Y010505D01*
X014888Y010604D02*
X014788Y010604D01*
X014788Y010702D02*
X014888Y010702D01*
X014888Y010801D02*
X014788Y010801D01*
X014788Y010899D02*
X014888Y010899D01*
X014788Y010998D02*
X014188Y010998D01*
X014090Y010899D02*
X014328Y010899D01*
X014357Y010801D02*
X013991Y010801D01*
X013893Y010702D02*
X014413Y010702D01*
X014501Y010604D02*
X013794Y010604D01*
X014004Y010441D02*
X014004Y010441D01*
X014099Y010407D02*
X015128Y010407D01*
X015128Y010505D02*
X014994Y010505D01*
X015128Y010308D02*
X014339Y010308D01*
X014315Y010328D02*
X014315Y010328D01*
X014456Y010209D02*
X015128Y010209D01*
X015128Y010111D02*
X014571Y010111D01*
X014569Y010115D02*
X014569Y010115D01*
X014628Y010012D02*
X015128Y010012D01*
X015128Y009914D02*
X014685Y009914D01*
X014735Y009828D02*
X014735Y009828D01*
X014737Y009815D02*
X015128Y009815D01*
X015128Y009717D02*
X014755Y009717D01*
X014772Y009618D02*
X015128Y009618D01*
X015128Y009520D02*
X014789Y009520D01*
X014778Y009421D02*
X015128Y009421D01*
X015128Y009323D02*
X014761Y009323D01*
X014744Y009224D02*
X015128Y009224D01*
X015128Y009126D02*
X014707Y009126D01*
X014735Y009175D02*
X014735Y009175D01*
X014650Y009027D02*
X015128Y009027D01*
X015128Y008928D02*
X014593Y008928D01*
X014569Y008888D02*
X014569Y008888D01*
X014569Y008888D01*
X014500Y008830D02*
X015128Y008830D01*
X015128Y008731D02*
X014383Y008731D01*
X016548Y009230D02*
X016630Y009312D01*
X016765Y009368D01*
X016907Y009368D01*
X016884Y009501D01*
X016884Y009501D01*
X016941Y009828D01*
X016941Y009828D01*
X017107Y010115D01*
X017107Y010115D01*
X017107Y010115D01*
X017361Y010328D01*
X017361Y010328D01*
X017672Y010441D01*
X017672Y010441D01*
X017751Y010441D01*
X017821Y010441D01*
X017838Y010441D01*
X017925Y010441D01*
X018004Y010441D01*
X018068Y010418D01*
X017337Y011149D01*
X017345Y011123D01*
X017357Y011051D01*
X016888Y011051D01*
X016888Y010951D01*
X016888Y010483D01*
X016960Y010494D01*
X017038Y010519D01*
X017111Y010556D01*
X017177Y010605D01*
X017235Y010662D01*
X017283Y010729D01*
X017320Y010802D01*
X017345Y010879D01*
X017357Y010951D01*
X016888Y010951D01*
X016788Y010951D01*
X016788Y010483D01*
X016716Y010494D01*
X016638Y010519D01*
X016566Y010556D01*
X016548Y010569D01*
X016548Y009230D01*
X016548Y009323D02*
X016655Y009323D01*
X016548Y009421D02*
X016898Y009421D01*
X016887Y009520D02*
X016548Y009520D01*
X016548Y009618D02*
X016904Y009618D01*
X016922Y009717D02*
X016548Y009717D01*
X016548Y009815D02*
X016939Y009815D01*
X016991Y009914D02*
X016548Y009914D01*
X016548Y010012D02*
X017048Y010012D01*
X017105Y010111D02*
X016548Y010111D01*
X016548Y010209D02*
X017220Y010209D01*
X017337Y010308D02*
X016548Y010308D01*
X016548Y010407D02*
X017577Y010407D01*
X017882Y010604D02*
X017176Y010604D01*
X017264Y010702D02*
X017784Y010702D01*
X017685Y010801D02*
X017319Y010801D01*
X017348Y010899D02*
X017587Y010899D01*
X017488Y010998D02*
X016888Y010998D01*
X016888Y010899D02*
X016788Y010899D01*
X016788Y010801D02*
X016888Y010801D01*
X016888Y010702D02*
X016788Y010702D01*
X016788Y010604D02*
X016888Y010604D01*
X016888Y010505D02*
X016788Y010505D01*
X016682Y010505D02*
X016548Y010505D01*
X016994Y010505D02*
X017981Y010505D01*
X018004Y010441D02*
X018004Y010441D01*
X018589Y010604D02*
X018982Y010604D01*
X018970Y010505D02*
X018688Y010505D01*
X018786Y010407D02*
X018979Y010407D01*
X019019Y010308D02*
X018885Y010308D01*
X018983Y010209D02*
X019088Y010209D01*
X019088Y010111D02*
X019063Y010111D01*
X019588Y010111D02*
X020088Y010111D01*
X020088Y010209D02*
X019588Y010209D01*
X019657Y010308D02*
X020019Y010308D01*
X019979Y010407D02*
X019698Y010407D01*
X019706Y010505D02*
X019970Y010505D01*
X019982Y010604D02*
X019694Y010604D01*
X019654Y010702D02*
X020023Y010702D01*
X020117Y010801D02*
X019560Y010801D01*
X019117Y010801D02*
X018392Y010801D01*
X018294Y010899D02*
X021383Y010899D01*
X021481Y010998D02*
X018195Y010998D01*
X018096Y011096D02*
X021580Y011096D01*
X021678Y011195D02*
X017998Y011195D01*
X017899Y011293D02*
X021777Y011293D01*
X021875Y011392D02*
X017801Y011392D01*
X017702Y011491D02*
X021974Y011491D01*
X022072Y011589D02*
X017604Y011589D01*
X017505Y011688D02*
X022171Y011688D01*
X022270Y011786D02*
X017407Y011786D01*
X017374Y011885D02*
X022302Y011885D01*
X022298Y011983D02*
X017378Y011983D01*
X017378Y012082D02*
X022298Y012082D01*
X022328Y012180D02*
X017348Y012180D01*
X017349Y011096D02*
X017389Y011096D01*
X018491Y010702D02*
X019023Y010702D01*
X020560Y010801D02*
X021284Y010801D01*
X021186Y010702D02*
X020654Y010702D01*
X020694Y010604D02*
X021087Y010604D01*
X020989Y010505D02*
X020706Y010505D01*
X020698Y010407D02*
X020890Y010407D01*
X020791Y010308D02*
X020657Y010308D01*
X020693Y010209D02*
X020588Y010209D01*
X020588Y010111D02*
X020613Y010111D01*
X020038Y010012D02*
X019638Y010012D01*
X019685Y009914D02*
X019991Y009914D01*
X019991Y009815D02*
X019685Y009815D01*
X019685Y009717D02*
X019991Y009717D01*
X019991Y009618D02*
X019685Y009618D01*
X019656Y009520D02*
X020020Y009520D01*
X019991Y009421D02*
X019685Y009421D01*
X019685Y009323D02*
X019991Y009323D01*
X019991Y009224D02*
X019685Y009224D01*
X019686Y009126D02*
X019991Y009126D01*
X022359Y008711D02*
X022569Y008888D01*
X022735Y009175D01*
X022793Y009501D01*
X022793Y009501D01*
X022735Y009828D01*
X022569Y010115D01*
X022315Y010328D01*
X022004Y010441D01*
X021925Y010441D01*
X021838Y010441D01*
X021836Y010441D01*
X021751Y010441D01*
X021672Y010441D01*
X021608Y010418D01*
X022339Y011149D01*
X022331Y011123D01*
X022320Y011051D01*
X022788Y011051D01*
X022788Y010951D01*
X022888Y010951D01*
X022888Y010483D01*
X022960Y010494D01*
X023038Y010519D01*
X023111Y010556D01*
X023128Y010569D01*
X023128Y008711D01*
X022359Y008711D01*
X022383Y008731D02*
X023128Y008731D01*
X023128Y008830D02*
X022500Y008830D01*
X022569Y008888D02*
X022569Y008888D01*
X022569Y008888D01*
X022593Y008928D02*
X023128Y008928D01*
X023128Y009027D02*
X022650Y009027D01*
X022707Y009126D02*
X023128Y009126D01*
X023128Y009224D02*
X022744Y009224D01*
X022735Y009175D02*
X022735Y009175D01*
X022761Y009323D02*
X023128Y009323D01*
X023128Y009421D02*
X022778Y009421D01*
X022789Y009520D02*
X023128Y009520D01*
X023128Y009618D02*
X022772Y009618D01*
X022755Y009717D02*
X023128Y009717D01*
X023128Y009815D02*
X022737Y009815D01*
X022735Y009828D02*
X022735Y009828D01*
X022685Y009914D02*
X023128Y009914D01*
X023128Y010012D02*
X022628Y010012D01*
X022571Y010111D02*
X023128Y010111D01*
X023128Y010209D02*
X022456Y010209D01*
X022569Y010115D02*
X022569Y010115D01*
X022339Y010308D02*
X023128Y010308D01*
X023128Y010407D02*
X022099Y010407D01*
X022004Y010441D02*
X022004Y010441D01*
X021794Y010604D02*
X022501Y010604D01*
X022499Y010605D02*
X022566Y010556D01*
X022638Y010519D01*
X022716Y010494D01*
X022788Y010483D01*
X022788Y010951D01*
X022320Y010951D01*
X022331Y010879D01*
X022356Y010802D01*
X022393Y010729D01*
X022441Y010662D01*
X022499Y010605D01*
X022413Y010702D02*
X021893Y010702D01*
X021991Y010801D02*
X022357Y010801D01*
X022328Y010899D02*
X022090Y010899D01*
X022188Y010998D02*
X022788Y010998D01*
X022788Y010899D02*
X022888Y010899D01*
X022888Y010801D02*
X022788Y010801D01*
X022788Y010702D02*
X022888Y010702D01*
X022888Y010604D02*
X022788Y010604D01*
X022788Y010505D02*
X022888Y010505D01*
X022994Y010505D02*
X023128Y010505D01*
X022682Y010505D02*
X021695Y010505D01*
X021672Y010441D02*
X021672Y010441D01*
X022315Y010328D02*
X022315Y010328D01*
X022287Y011096D02*
X022327Y011096D01*
X022363Y013264D02*
X021928Y013264D01*
X021830Y013363D02*
X022436Y013363D01*
X022538Y013461D02*
X021731Y013461D01*
X014327Y011096D02*
X014287Y011096D01*
X009389Y011096D02*
X009349Y011096D01*
X010842Y007501D02*
X010859Y007501D01*
X010886Y007474D01*
X010985Y007433D01*
X011091Y007433D01*
X011190Y007474D01*
X011218Y007501D01*
X011359Y007501D01*
X011386Y007474D01*
X011485Y007433D01*
X011591Y007433D01*
X011690Y007474D01*
X011718Y007501D01*
X011959Y007501D01*
X011986Y007474D01*
X012085Y007433D01*
X012191Y007433D01*
X012290Y007474D01*
X012318Y007501D01*
X012459Y007501D01*
X012486Y007474D01*
X012585Y007433D01*
X012691Y007433D01*
X012790Y007474D01*
X012818Y007501D01*
X012834Y007501D01*
X012936Y007399D01*
X013197Y007291D01*
X013317Y007291D01*
X013107Y007115D01*
X013107Y007115D01*
X013107Y007115D01*
X012941Y006828D01*
X012941Y006828D01*
X012884Y006501D01*
X012941Y006175D01*
X013107Y005888D01*
X013107Y005888D01*
X013270Y005751D01*
X012609Y005751D01*
X012650Y005793D01*
X012706Y005928D01*
X012706Y006075D01*
X012650Y006210D01*
X012547Y006314D01*
X012411Y006370D01*
X012323Y006370D01*
X012236Y006457D01*
X012144Y006495D01*
X012143Y006495D01*
X012123Y006515D01*
X012135Y006527D01*
X012155Y006561D01*
X012165Y006600D01*
X012165Y006738D01*
X011857Y006738D01*
X011857Y006776D01*
X012165Y006776D01*
X012165Y006915D01*
X012155Y006953D01*
X012135Y006987D01*
X012107Y007015D01*
X012073Y007035D01*
X012035Y007045D01*
X011857Y007045D01*
X011857Y006776D01*
X011819Y006776D01*
X011819Y006738D01*
X011511Y006738D01*
X011511Y006600D01*
X011521Y006561D01*
X011541Y006527D01*
X011553Y006515D01*
X011491Y006454D01*
X011491Y006037D01*
X011588Y005940D01*
X011588Y005751D01*
X010788Y005751D01*
X010696Y005713D01*
X010626Y005643D01*
X010235Y005251D01*
X009319Y005251D01*
X009296Y005307D01*
X009144Y005459D01*
X008946Y005541D01*
X008731Y005541D01*
X008548Y005466D01*
X008548Y007291D01*
X009317Y007291D01*
X009107Y007115D01*
X009107Y007115D01*
X009107Y007115D01*
X008941Y006828D01*
X008941Y006828D01*
X008884Y006501D01*
X008941Y006175D01*
X009107Y005888D01*
X009107Y005888D01*
X009361Y005675D01*
X009672Y005561D01*
X009672Y005561D01*
X009751Y005561D01*
X009838Y005561D01*
X010004Y005561D01*
X010315Y005675D01*
X010569Y005888D01*
X010735Y006175D01*
X010793Y006501D01*
X010793Y006501D01*
X010735Y006828D01*
X010569Y007115D01*
X010359Y007291D01*
X010425Y007291D01*
X010479Y007291D01*
X010479Y007291D01*
X010740Y007399D01*
X010740Y007399D01*
X010842Y007501D01*
X010791Y007450D02*
X010943Y007450D01*
X011134Y007450D02*
X011443Y007450D01*
X011634Y007450D02*
X012043Y007450D01*
X012234Y007450D02*
X012543Y007450D01*
X012734Y007450D02*
X012885Y007450D01*
X012936Y007399D02*
X012936Y007399D01*
X013051Y007352D02*
X010625Y007352D01*
X010522Y007155D02*
X013155Y007155D01*
X013073Y007056D02*
X010603Y007056D01*
X010569Y007115D02*
X010569Y007115D01*
X010660Y006958D02*
X011524Y006958D01*
X011521Y006953D02*
X011511Y006915D01*
X011511Y006776D01*
X011819Y006776D01*
X011819Y007045D01*
X011641Y007045D01*
X011603Y007035D01*
X011569Y007015D01*
X011541Y006987D01*
X011521Y006953D01*
X011511Y006859D02*
X010717Y006859D01*
X010735Y006828D02*
X010735Y006828D01*
X010747Y006760D02*
X011819Y006760D01*
X011857Y006760D02*
X012929Y006760D01*
X012912Y006662D02*
X012165Y006662D01*
X012156Y006563D02*
X012895Y006563D01*
X012884Y006501D02*
X012884Y006501D01*
X012890Y006465D02*
X012217Y006465D01*
X012419Y006366D02*
X012907Y006366D01*
X012925Y006268D02*
X012593Y006268D01*
X012667Y006169D02*
X012944Y006169D01*
X012941Y006175D02*
X012941Y006175D01*
X013001Y006071D02*
X012706Y006071D01*
X012706Y005972D02*
X013058Y005972D01*
X013124Y005874D02*
X012684Y005874D01*
X012633Y005775D02*
X013241Y005775D01*
X013608Y005585D02*
X013942Y005251D01*
X014357Y005251D01*
X014380Y005307D01*
X014532Y005459D01*
X014731Y005541D01*
X014946Y005541D01*
X015128Y005466D01*
X015128Y006772D01*
X015046Y006690D01*
X014911Y006634D01*
X014769Y006634D01*
X014793Y006501D01*
X014793Y006501D01*
X014735Y006175D01*
X014735Y006175D01*
X014569Y005888D01*
X014569Y005888D01*
X014569Y005888D01*
X014315Y005675D01*
X014315Y005675D01*
X014004Y005561D01*
X014004Y005561D01*
X013925Y005561D01*
X013838Y005561D01*
X013672Y005561D01*
X013672Y005561D01*
X013608Y005585D01*
X013615Y005578D02*
X013627Y005578D01*
X013713Y005479D02*
X014581Y005479D01*
X014454Y005381D02*
X013812Y005381D01*
X013911Y005282D02*
X014370Y005282D01*
X015095Y005479D02*
X015128Y005479D01*
X015128Y005578D02*
X014050Y005578D01*
X014318Y005676D02*
X015128Y005676D01*
X015128Y005775D02*
X014435Y005775D01*
X014552Y005874D02*
X015128Y005874D01*
X015128Y005972D02*
X014618Y005972D01*
X014675Y006071D02*
X015128Y006071D01*
X015128Y006169D02*
X014732Y006169D01*
X014751Y006268D02*
X015128Y006268D01*
X015128Y006366D02*
X014769Y006366D01*
X014786Y006465D02*
X015128Y006465D01*
X015128Y006563D02*
X014782Y006563D01*
X014978Y006662D02*
X015128Y006662D01*
X015116Y006760D02*
X015128Y006760D01*
X016548Y006760D02*
X016929Y006760D01*
X016941Y006828D02*
X016884Y006501D01*
X016941Y006175D01*
X017107Y005888D01*
X017107Y005888D01*
X017361Y005675D01*
X017672Y005561D01*
X017672Y005561D01*
X017751Y005561D01*
X017838Y005561D01*
X018004Y005561D01*
X018315Y005675D01*
X018569Y005888D01*
X018735Y006175D01*
X018793Y006501D01*
X018793Y006501D01*
X018735Y006828D01*
X018569Y007115D01*
X018359Y007291D01*
X018425Y007291D01*
X018479Y007291D01*
X018479Y007291D01*
X018740Y007399D01*
X018740Y007399D01*
X018842Y007501D01*
X018859Y007501D01*
X018886Y007474D01*
X018985Y007433D01*
X019091Y007433D01*
X019190Y007474D01*
X019218Y007501D01*
X019359Y007501D01*
X019386Y007474D01*
X019485Y007433D01*
X019591Y007433D01*
X019690Y007474D01*
X019718Y007501D01*
X019959Y007501D01*
X019986Y007474D01*
X020085Y007433D01*
X020191Y007433D01*
X020290Y007474D01*
X020318Y007501D01*
X020459Y007501D01*
X020486Y007474D01*
X020585Y007433D01*
X020691Y007433D01*
X020790Y007474D01*
X020818Y007501D01*
X020834Y007501D01*
X020936Y007399D01*
X021197Y007291D01*
X021251Y007291D01*
X021317Y007291D01*
X021107Y007115D01*
X021107Y007115D01*
X021107Y007115D01*
X020941Y006828D01*
X020941Y006828D01*
X020884Y006501D01*
X020941Y006175D01*
X021107Y005888D01*
X021107Y005888D01*
X021270Y005751D01*
X020609Y005751D01*
X020650Y005793D01*
X020706Y005928D01*
X020706Y006075D01*
X020650Y006210D01*
X020547Y006314D01*
X020411Y006370D01*
X020323Y006370D01*
X020236Y006457D01*
X020144Y006495D01*
X020143Y006495D01*
X020123Y006515D01*
X020135Y006527D01*
X020155Y006561D01*
X020165Y006600D01*
X020165Y006738D01*
X019857Y006738D01*
X019857Y006776D01*
X020165Y006776D01*
X020165Y006915D01*
X020155Y006953D01*
X020135Y006987D01*
X020107Y007015D01*
X020073Y007035D01*
X020035Y007045D01*
X019857Y007045D01*
X019857Y006776D01*
X019819Y006776D01*
X019819Y006738D01*
X019511Y006738D01*
X019511Y006600D01*
X019521Y006561D01*
X019541Y006527D01*
X019553Y006515D01*
X019491Y006454D01*
X019491Y006037D01*
X019588Y005940D01*
X019588Y005751D01*
X018788Y005751D01*
X018696Y005713D01*
X018626Y005643D01*
X018235Y005251D01*
X017319Y005251D01*
X017296Y005307D01*
X017144Y005459D01*
X016946Y005541D01*
X016731Y005541D01*
X016548Y005466D01*
X016548Y005501D01*
X016548Y005588D01*
X016548Y007291D01*
X017317Y007291D01*
X017107Y007115D01*
X017107Y007115D01*
X017107Y007115D01*
X016941Y006828D01*
X016941Y006828D01*
X016959Y006859D02*
X016548Y006859D01*
X016548Y006958D02*
X017016Y006958D01*
X017073Y007056D02*
X016548Y007056D01*
X016548Y007155D02*
X017155Y007155D01*
X017272Y007253D02*
X016548Y007253D01*
X016548Y006662D02*
X016912Y006662D01*
X016895Y006563D02*
X016548Y006563D01*
X016548Y006465D02*
X016890Y006465D01*
X016884Y006501D02*
X016884Y006501D01*
X016907Y006366D02*
X016548Y006366D01*
X016548Y006268D02*
X016925Y006268D01*
X016941Y006175D02*
X016941Y006175D01*
X016944Y006169D02*
X016548Y006169D01*
X016548Y006071D02*
X017001Y006071D01*
X017058Y005972D02*
X016548Y005972D01*
X016548Y005874D02*
X017124Y005874D01*
X017241Y005775D02*
X016548Y005775D01*
X016548Y005676D02*
X017359Y005676D01*
X017361Y005675D02*
X017361Y005675D01*
X017626Y005578D02*
X016548Y005578D01*
X016548Y005479D02*
X016582Y005479D01*
X017095Y005479D02*
X018463Y005479D01*
X018364Y005381D02*
X017222Y005381D01*
X017306Y005282D02*
X018266Y005282D01*
X018776Y005085D02*
X021401Y005085D01*
X021499Y004987D02*
X018677Y004987D01*
X018579Y004888D02*
X021598Y004888D01*
X021626Y004860D02*
X021696Y004789D01*
X021788Y004751D01*
X022357Y004751D01*
X022380Y004695D01*
X022532Y004543D01*
X022634Y004501D01*
X022532Y004459D01*
X022380Y004307D01*
X022298Y004109D01*
X022298Y003894D01*
X022321Y003838D01*
X020626Y002143D01*
X020591Y002059D01*
X020588Y002062D01*
X020588Y002230D01*
X020650Y002293D01*
X020706Y002428D01*
X020706Y002575D01*
X020650Y002710D01*
X020547Y002814D01*
X020411Y002870D01*
X020265Y002870D01*
X020129Y002814D01*
X020026Y002710D01*
X019970Y002575D01*
X019970Y002428D01*
X020026Y002293D01*
X020088Y002230D01*
X020088Y002062D01*
X019991Y001965D01*
X019991Y001549D01*
X020039Y001501D01*
X019991Y001454D01*
X019991Y001121D01*
X019874Y001121D01*
X019692Y001121D01*
X019685Y001126D01*
X019685Y001454D01*
X019638Y001501D01*
X019685Y001549D01*
X019685Y001965D01*
X019588Y002062D01*
X019588Y002230D01*
X019650Y002293D01*
X019706Y002428D01*
X019706Y002575D01*
X019650Y002710D01*
X019547Y002814D01*
X019411Y002870D01*
X019265Y002870D01*
X019129Y002814D01*
X019026Y002710D01*
X018970Y002575D01*
X018970Y002428D01*
X019026Y002293D01*
X019088Y002230D01*
X019088Y002062D01*
X019085Y002059D01*
X019050Y002143D01*
X017355Y003838D01*
X017378Y003894D01*
X017378Y004109D01*
X017296Y004307D01*
X017144Y004459D01*
X017042Y004501D01*
X017144Y004543D01*
X017296Y004695D01*
X017319Y004751D01*
X018288Y004751D01*
X018388Y004751D01*
X018480Y004789D01*
X018942Y005251D01*
X019788Y005251D01*
X019888Y005251D01*
X021235Y005251D01*
X021626Y004860D01*
X021696Y004790D02*
X018480Y004790D01*
X018874Y005184D02*
X021302Y005184D01*
X021911Y005282D02*
X022370Y005282D01*
X022380Y005307D02*
X022357Y005251D01*
X021942Y005251D01*
X021608Y005585D01*
X021672Y005561D01*
X021672Y005561D01*
X021838Y005561D01*
X021925Y005561D01*
X022004Y005561D01*
X022315Y005675D01*
X022569Y005888D01*
X022735Y006175D01*
X022793Y006501D01*
X022793Y006501D01*
X022769Y006634D01*
X022911Y006634D01*
X023046Y006690D01*
X023128Y006772D01*
X023128Y005466D01*
X022946Y005541D01*
X022731Y005541D01*
X022532Y005459D01*
X022380Y005307D01*
X022454Y005381D02*
X021812Y005381D01*
X021713Y005479D02*
X022581Y005479D01*
X023095Y005479D02*
X023128Y005479D01*
X023128Y005578D02*
X022050Y005578D01*
X022004Y005561D02*
X022004Y005561D01*
X022315Y005675D02*
X022315Y005675D01*
X022318Y005676D02*
X023128Y005676D01*
X023128Y005775D02*
X022435Y005775D01*
X022552Y005874D02*
X023128Y005874D01*
X023128Y005972D02*
X022618Y005972D01*
X022569Y005888D02*
X022569Y005888D01*
X022569Y005888D01*
X022675Y006071D02*
X023128Y006071D01*
X023128Y006169D02*
X022732Y006169D01*
X022735Y006175D02*
X022735Y006175D01*
X022751Y006268D02*
X023128Y006268D01*
X023128Y006366D02*
X022769Y006366D01*
X022786Y006465D02*
X023128Y006465D01*
X023128Y006563D02*
X022782Y006563D01*
X022978Y006662D02*
X023128Y006662D01*
X023116Y006760D02*
X023128Y006760D01*
X021272Y007253D02*
X018404Y007253D01*
X018522Y007155D02*
X021155Y007155D01*
X021073Y007056D02*
X018603Y007056D01*
X018569Y007115D02*
X018569Y007115D01*
X018660Y006958D02*
X019524Y006958D01*
X019521Y006953D02*
X019511Y006915D01*
X019511Y006776D01*
X019819Y006776D01*
X019819Y007045D01*
X019641Y007045D01*
X019603Y007035D01*
X019569Y007015D01*
X019541Y006987D01*
X019521Y006953D01*
X019511Y006859D02*
X018717Y006859D01*
X018735Y006828D02*
X018735Y006828D01*
X018747Y006760D02*
X019819Y006760D01*
X019857Y006760D02*
X020929Y006760D01*
X020912Y006662D02*
X020165Y006662D01*
X020156Y006563D02*
X020895Y006563D01*
X020884Y006501D02*
X020884Y006501D01*
X020890Y006465D02*
X020217Y006465D01*
X020419Y006366D02*
X020907Y006366D01*
X020925Y006268D02*
X020593Y006268D01*
X020667Y006169D02*
X020944Y006169D01*
X020941Y006175D02*
X020941Y006175D01*
X021001Y006071D02*
X020706Y006071D01*
X020706Y005972D02*
X021058Y005972D01*
X021124Y005874D02*
X020684Y005874D01*
X020633Y005775D02*
X021241Y005775D01*
X021615Y005578D02*
X021626Y005578D01*
X019588Y005775D02*
X018435Y005775D01*
X018552Y005874D02*
X019588Y005874D01*
X019556Y005972D02*
X018618Y005972D01*
X018569Y005888D02*
X018569Y005888D01*
X018569Y005888D01*
X018675Y006071D02*
X019491Y006071D01*
X019491Y006169D02*
X018732Y006169D01*
X018735Y006175D02*
X018735Y006175D01*
X018751Y006268D02*
X019491Y006268D01*
X019491Y006366D02*
X018769Y006366D01*
X018786Y006465D02*
X019502Y006465D01*
X019521Y006563D02*
X018782Y006563D01*
X018764Y006662D02*
X019511Y006662D01*
X019819Y006859D02*
X019857Y006859D01*
X019857Y006958D02*
X019819Y006958D01*
X020152Y006958D02*
X021016Y006958D01*
X020959Y006859D02*
X020165Y006859D01*
X021051Y007352D02*
X018625Y007352D01*
X018791Y007450D02*
X018943Y007450D01*
X019134Y007450D02*
X019443Y007450D01*
X019634Y007450D02*
X020043Y007450D01*
X020234Y007450D02*
X020543Y007450D01*
X020734Y007450D02*
X020885Y007450D01*
X020936Y007399D02*
X020936Y007399D01*
X021197Y007291D02*
X021197Y007291D01*
X018660Y005676D02*
X018318Y005676D01*
X018315Y005675D02*
X018315Y005675D01*
X018561Y005578D02*
X018050Y005578D01*
X018004Y005561D02*
X018004Y005561D01*
X017292Y004691D02*
X022385Y004691D01*
X022483Y004593D02*
X017193Y004593D01*
X017060Y004494D02*
X022617Y004494D01*
X022469Y004395D02*
X017208Y004395D01*
X017300Y004297D02*
X022376Y004297D01*
X022335Y004198D02*
X017341Y004198D01*
X017378Y004100D02*
X022298Y004100D01*
X022298Y004001D02*
X017378Y004001D01*
X017378Y003903D02*
X022298Y003903D01*
X022288Y003804D02*
X017389Y003804D01*
X017487Y003706D02*
X022189Y003706D01*
X022090Y003607D02*
X017586Y003607D01*
X017684Y003509D02*
X021992Y003509D01*
X021893Y003410D02*
X017783Y003410D01*
X017881Y003311D02*
X021795Y003311D01*
X021696Y003213D02*
X017980Y003213D01*
X018078Y003114D02*
X021598Y003114D01*
X021499Y003016D02*
X018177Y003016D01*
X018276Y002917D02*
X021401Y002917D01*
X021302Y002819D02*
X020534Y002819D01*
X020640Y002720D02*
X021204Y002720D01*
X021105Y002622D02*
X020687Y002622D01*
X020706Y002523D02*
X021006Y002523D01*
X020908Y002425D02*
X020705Y002425D01*
X020664Y002326D02*
X020809Y002326D01*
X020711Y002227D02*
X020588Y002227D01*
X020588Y002129D02*
X020620Y002129D01*
X020088Y002129D02*
X019588Y002129D01*
X019588Y002227D02*
X020088Y002227D01*
X020012Y002326D02*
X019664Y002326D01*
X019705Y002425D02*
X019971Y002425D01*
X019970Y002523D02*
X019706Y002523D01*
X019687Y002622D02*
X019989Y002622D01*
X020036Y002720D02*
X019640Y002720D01*
X019534Y002819D02*
X020142Y002819D01*
X019142Y002819D02*
X018374Y002819D01*
X018473Y002720D02*
X019036Y002720D01*
X018989Y002622D02*
X018571Y002622D01*
X018670Y002523D02*
X018970Y002523D01*
X018971Y002425D02*
X018768Y002425D01*
X018867Y002326D02*
X019012Y002326D01*
X018965Y002227D02*
X019088Y002227D01*
X019088Y002129D02*
X019056Y002129D01*
X019620Y002030D02*
X020056Y002030D01*
X019991Y001932D02*
X019685Y001932D01*
X019685Y001833D02*
X019991Y001833D01*
X019991Y001735D02*
X019685Y001735D01*
X019685Y001636D02*
X019991Y001636D01*
X020002Y001538D02*
X019674Y001538D01*
X019685Y001439D02*
X019991Y001439D01*
X019991Y001341D02*
X019685Y001341D01*
X019685Y001242D02*
X019991Y001242D01*
X019991Y001144D02*
X019685Y001144D01*
X022359Y000711D02*
X022569Y000888D01*
X022735Y001175D01*
X022793Y001501D01*
X022793Y001501D01*
X022735Y001828D01*
X022569Y002115D01*
X022315Y002328D01*
X022004Y002441D01*
X021925Y002441D01*
X021838Y002441D01*
X021831Y002441D01*
X021751Y002441D01*
X021672Y002441D01*
X021608Y002418D01*
X022339Y003149D01*
X022331Y003123D01*
X022320Y003051D01*
X022788Y003051D01*
X022788Y002951D01*
X022888Y002951D01*
X022888Y002483D01*
X022960Y002494D01*
X023038Y002519D01*
X023111Y002556D01*
X023128Y002569D01*
X023128Y000711D01*
X022359Y000711D01*
X022404Y000749D02*
X023128Y000749D01*
X023128Y000848D02*
X022522Y000848D01*
X022569Y000888D02*
X022569Y000888D01*
X022569Y000888D01*
X022603Y000946D02*
X023128Y000946D01*
X023128Y001045D02*
X022660Y001045D01*
X022717Y001144D02*
X023128Y001144D01*
X023128Y001242D02*
X022747Y001242D01*
X022735Y001175D02*
X022735Y001175D01*
X022764Y001341D02*
X023128Y001341D01*
X023128Y001439D02*
X022782Y001439D01*
X022786Y001538D02*
X023128Y001538D01*
X023128Y001636D02*
X022769Y001636D01*
X022751Y001735D02*
X023128Y001735D01*
X023128Y001833D02*
X022732Y001833D01*
X022735Y001828D02*
X022735Y001828D01*
X022675Y001932D02*
X023128Y001932D01*
X023128Y002030D02*
X022618Y002030D01*
X022569Y002115D02*
X022569Y002115D01*
X022552Y002129D02*
X023128Y002129D01*
X023128Y002227D02*
X022435Y002227D01*
X022317Y002326D02*
X023128Y002326D01*
X023128Y002425D02*
X022050Y002425D01*
X022004Y002441D02*
X022004Y002441D01*
X021812Y002622D02*
X022482Y002622D01*
X022499Y002605D02*
X022566Y002556D01*
X022638Y002519D01*
X022716Y002494D01*
X022788Y002483D01*
X022788Y002951D01*
X022320Y002951D01*
X022331Y002879D01*
X022356Y002802D01*
X022393Y002729D01*
X022441Y002662D01*
X022499Y002605D01*
X022399Y002720D02*
X021911Y002720D01*
X022009Y002819D02*
X022351Y002819D01*
X022325Y002917D02*
X022108Y002917D01*
X022206Y003016D02*
X022788Y003016D01*
X022788Y002917D02*
X022888Y002917D01*
X022888Y002819D02*
X022788Y002819D01*
X022788Y002720D02*
X022888Y002720D01*
X022888Y002622D02*
X022788Y002622D01*
X022788Y002523D02*
X022888Y002523D01*
X023045Y002523D02*
X023128Y002523D01*
X022631Y002523D02*
X021713Y002523D01*
X021672Y002441D02*
X021672Y002441D01*
X021627Y002425D02*
X021615Y002425D01*
X022315Y002328D02*
X022315Y002328D01*
X022305Y003114D02*
X022330Y003114D01*
X018068Y002418D02*
X018004Y002441D01*
X017925Y002441D01*
X017838Y002441D01*
X017802Y002441D01*
X017751Y002441D01*
X017672Y002441D01*
X017361Y002328D01*
X017107Y002115D01*
X017107Y002115D01*
X017107Y002115D01*
X016941Y001828D01*
X016941Y001828D01*
X016884Y001501D01*
X016907Y001368D01*
X016765Y001368D01*
X016630Y001312D01*
X016548Y001230D01*
X016548Y002569D01*
X016566Y002556D01*
X016638Y002519D01*
X016716Y002494D01*
X016788Y002483D01*
X016788Y002951D01*
X016888Y002951D01*
X016888Y002483D01*
X016960Y002494D01*
X017038Y002519D01*
X017111Y002556D01*
X017177Y002605D01*
X017235Y002662D01*
X017283Y002729D01*
X017320Y002802D01*
X017345Y002879D01*
X017357Y002951D01*
X016888Y002951D01*
X016888Y003051D01*
X017357Y003051D01*
X017345Y003123D01*
X017337Y003149D01*
X018068Y002418D01*
X018061Y002425D02*
X018050Y002425D01*
X018004Y002441D02*
X018004Y002441D01*
X017963Y002523D02*
X017045Y002523D01*
X016888Y002523D02*
X016788Y002523D01*
X016788Y002622D02*
X016888Y002622D01*
X016888Y002720D02*
X016788Y002720D01*
X016788Y002819D02*
X016888Y002819D01*
X016888Y002917D02*
X016788Y002917D01*
X016888Y003016D02*
X017470Y003016D01*
X017371Y003114D02*
X017347Y003114D01*
X017351Y002917D02*
X017569Y002917D01*
X017667Y002819D02*
X017326Y002819D01*
X017277Y002720D02*
X017766Y002720D01*
X017864Y002622D02*
X017194Y002622D01*
X017627Y002425D02*
X016548Y002425D01*
X016548Y002523D02*
X016631Y002523D01*
X016548Y002326D02*
X017359Y002326D01*
X017361Y002328D02*
X017361Y002328D01*
X017241Y002227D02*
X016548Y002227D01*
X016548Y002129D02*
X017124Y002129D01*
X017058Y002030D02*
X016548Y002030D01*
X016548Y001932D02*
X017001Y001932D01*
X016944Y001833D02*
X016548Y001833D01*
X016548Y001735D02*
X016925Y001735D01*
X016907Y001636D02*
X016548Y001636D01*
X016548Y001538D02*
X016890Y001538D01*
X016884Y001501D02*
X016884Y001501D01*
X016895Y001439D02*
X016548Y001439D01*
X016548Y001341D02*
X016699Y001341D01*
X016560Y001242D02*
X016548Y001242D01*
X015128Y001242D02*
X014747Y001242D01*
X014735Y001175D02*
X014793Y001501D01*
X014793Y001501D01*
X014735Y001828D01*
X014569Y002115D01*
X014315Y002328D01*
X014004Y002441D01*
X013925Y002441D01*
X013838Y002441D01*
X013824Y002441D01*
X013751Y002441D01*
X013672Y002441D01*
X013608Y002418D01*
X014339Y003149D01*
X014331Y003123D01*
X014320Y003051D01*
X014788Y003051D01*
X014788Y002951D01*
X014888Y002951D01*
X014888Y002483D01*
X014960Y002494D01*
X015038Y002519D01*
X015111Y002556D01*
X015128Y002569D01*
X015128Y002501D01*
X015128Y002414D01*
X015128Y000711D01*
X014359Y000711D01*
X014569Y000888D01*
X014735Y001175D01*
X014735Y001175D01*
X014717Y001144D02*
X015128Y001144D01*
X015128Y001045D02*
X014660Y001045D01*
X014603Y000946D02*
X015128Y000946D01*
X015128Y000848D02*
X014522Y000848D01*
X014569Y000888D02*
X014569Y000888D01*
X014569Y000888D01*
X014404Y000749D02*
X015128Y000749D01*
X015128Y001341D02*
X014764Y001341D01*
X014782Y001439D02*
X015128Y001439D01*
X015128Y001538D02*
X014786Y001538D01*
X014769Y001636D02*
X015128Y001636D01*
X015128Y001735D02*
X014751Y001735D01*
X014735Y001828D02*
X014735Y001828D01*
X014732Y001833D02*
X015128Y001833D01*
X015128Y001932D02*
X014675Y001932D01*
X014618Y002030D02*
X015128Y002030D01*
X015128Y002129D02*
X014552Y002129D01*
X014569Y002115D02*
X014569Y002115D01*
X014435Y002227D02*
X015128Y002227D01*
X015128Y002326D02*
X014317Y002326D01*
X014315Y002328D02*
X014315Y002328D01*
X014050Y002425D02*
X015128Y002425D01*
X015128Y002523D02*
X015045Y002523D01*
X014888Y002523D02*
X014788Y002523D01*
X014788Y002483D02*
X014788Y002951D01*
X014320Y002951D01*
X014331Y002879D01*
X014356Y002802D01*
X014393Y002729D01*
X014441Y002662D01*
X014499Y002605D01*
X014566Y002556D01*
X014638Y002519D01*
X014716Y002494D01*
X014788Y002483D01*
X014788Y002622D02*
X014888Y002622D01*
X014888Y002720D02*
X014788Y002720D01*
X014788Y002819D02*
X014888Y002819D01*
X014888Y002917D02*
X014788Y002917D01*
X014788Y003016D02*
X014206Y003016D01*
X014108Y002917D02*
X014325Y002917D01*
X014351Y002819D02*
X014009Y002819D01*
X013911Y002720D02*
X014399Y002720D01*
X014482Y002622D02*
X013812Y002622D01*
X013713Y002523D02*
X014631Y002523D01*
X014004Y002441D02*
X014004Y002441D01*
X013672Y002441D02*
X013672Y002441D01*
X013627Y002425D02*
X013615Y002425D01*
X013105Y002622D02*
X012687Y002622D01*
X012706Y002575D02*
X012650Y002710D01*
X012547Y002814D01*
X012411Y002870D01*
X012265Y002870D01*
X012129Y002814D01*
X012026Y002710D01*
X011970Y002575D01*
X011970Y002428D01*
X012026Y002293D01*
X012088Y002230D01*
X012088Y002063D01*
X011991Y001965D01*
X011991Y001549D01*
X012039Y001501D01*
X011991Y001454D01*
X011991Y001121D01*
X011874Y001121D01*
X011692Y001121D01*
X011685Y001126D01*
X011685Y001454D01*
X011638Y001501D01*
X011685Y001549D01*
X011685Y001965D01*
X011588Y002063D01*
X011588Y002230D01*
X011650Y002293D01*
X011706Y002428D01*
X011706Y002575D01*
X011650Y002710D01*
X011547Y002814D01*
X011411Y002870D01*
X011265Y002870D01*
X011129Y002814D01*
X011026Y002710D01*
X010970Y002575D01*
X010970Y002428D01*
X011026Y002293D01*
X011088Y002230D01*
X011088Y002063D01*
X011085Y002059D01*
X011050Y002143D01*
X009355Y003838D01*
X009378Y003894D01*
X009378Y004109D01*
X009296Y004307D01*
X009144Y004459D01*
X009042Y004501D01*
X009144Y004543D01*
X009296Y004695D01*
X009319Y004751D01*
X010288Y004751D01*
X010388Y004751D01*
X010480Y004789D01*
X010942Y005251D01*
X011788Y005251D01*
X011888Y005251D01*
X013235Y005251D01*
X013626Y004860D01*
X013696Y004789D01*
X013788Y004751D01*
X014357Y004751D01*
X014380Y004695D01*
X014532Y004543D01*
X014634Y004501D01*
X014532Y004459D01*
X014380Y004307D01*
X014298Y004109D01*
X014298Y003894D01*
X014321Y003838D01*
X012626Y002143D01*
X012591Y002059D01*
X012588Y002063D01*
X012588Y002230D01*
X012650Y002293D01*
X012706Y002428D01*
X012706Y002575D01*
X012706Y002523D02*
X013006Y002523D01*
X012908Y002425D02*
X012705Y002425D01*
X012664Y002326D02*
X012809Y002326D01*
X012711Y002227D02*
X012588Y002227D01*
X012588Y002129D02*
X012620Y002129D01*
X012088Y002129D02*
X011588Y002129D01*
X011588Y002227D02*
X012088Y002227D01*
X012012Y002326D02*
X011664Y002326D01*
X011705Y002425D02*
X011971Y002425D01*
X011970Y002523D02*
X011706Y002523D01*
X011687Y002622D02*
X011989Y002622D01*
X012036Y002720D02*
X011640Y002720D01*
X011534Y002819D02*
X012142Y002819D01*
X012534Y002819D02*
X013302Y002819D01*
X013401Y002917D02*
X010276Y002917D01*
X010374Y002819D02*
X011142Y002819D01*
X011036Y002720D02*
X010473Y002720D01*
X010571Y002622D02*
X010989Y002622D01*
X010970Y002523D02*
X010670Y002523D01*
X010768Y002425D02*
X010971Y002425D01*
X011012Y002326D02*
X010867Y002326D01*
X010965Y002227D02*
X011088Y002227D01*
X011088Y002129D02*
X011056Y002129D01*
X011620Y002030D02*
X012056Y002030D01*
X011991Y001932D02*
X011685Y001932D01*
X011685Y001833D02*
X011991Y001833D01*
X011991Y001735D02*
X011685Y001735D01*
X011685Y001636D02*
X011991Y001636D01*
X012002Y001538D02*
X011674Y001538D01*
X011685Y001439D02*
X011991Y001439D01*
X011991Y001341D02*
X011685Y001341D01*
X011685Y001242D02*
X011991Y001242D01*
X011991Y001144D02*
X011685Y001144D01*
X009107Y002115D02*
X008941Y001828D01*
X008941Y001828D01*
X008884Y001501D01*
X008907Y001368D01*
X008765Y001368D01*
X008630Y001312D01*
X008548Y001230D01*
X008548Y002569D01*
X008566Y002556D01*
X008638Y002519D01*
X008716Y002494D01*
X008788Y002483D01*
X008788Y002951D01*
X008888Y002951D01*
X008888Y002483D01*
X008960Y002494D01*
X009038Y002519D01*
X009111Y002556D01*
X009177Y002605D01*
X009235Y002662D01*
X009283Y002729D01*
X009320Y002802D01*
X009345Y002879D01*
X009357Y002951D01*
X008888Y002951D01*
X008888Y003051D01*
X009357Y003051D01*
X009345Y003123D01*
X009337Y003149D01*
X010068Y002418D01*
X010004Y002441D01*
X009925Y002441D01*
X009838Y002441D01*
X009672Y002441D01*
X009361Y002328D01*
X009107Y002115D01*
X009107Y002115D01*
X009107Y002115D01*
X009124Y002129D02*
X008548Y002129D01*
X008548Y002227D02*
X009241Y002227D01*
X009359Y002326D02*
X008548Y002326D01*
X008548Y002425D02*
X009627Y002425D01*
X009672Y002441D02*
X009672Y002441D01*
X009864Y002622D02*
X009194Y002622D01*
X009277Y002720D02*
X009766Y002720D01*
X009667Y002819D02*
X009326Y002819D01*
X009351Y002917D02*
X009569Y002917D01*
X009470Y003016D02*
X008888Y003016D01*
X008888Y002917D02*
X008788Y002917D01*
X008788Y002819D02*
X008888Y002819D01*
X008888Y002720D02*
X008788Y002720D01*
X008788Y002622D02*
X008888Y002622D01*
X008888Y002523D02*
X008788Y002523D01*
X008631Y002523D02*
X008548Y002523D01*
X009045Y002523D02*
X009963Y002523D01*
X010004Y002441D02*
X010004Y002441D01*
X010050Y002425D02*
X010061Y002425D01*
X009361Y002328D02*
X009361Y002328D01*
X009058Y002030D02*
X008548Y002030D01*
X008548Y001932D02*
X009001Y001932D01*
X008944Y001833D02*
X008548Y001833D01*
X008548Y001735D02*
X008925Y001735D01*
X008907Y001636D02*
X008548Y001636D01*
X008548Y001538D02*
X008890Y001538D01*
X008884Y001501D02*
X008884Y001501D01*
X008895Y001439D02*
X008548Y001439D01*
X008548Y001341D02*
X008699Y001341D01*
X008560Y001242D02*
X008548Y001242D01*
X012640Y002720D02*
X013204Y002720D01*
X013499Y003016D02*
X010177Y003016D01*
X010078Y003114D02*
X013598Y003114D01*
X013696Y003213D02*
X009980Y003213D01*
X009881Y003311D02*
X013795Y003311D01*
X013893Y003410D02*
X009783Y003410D01*
X009684Y003509D02*
X013992Y003509D01*
X014090Y003607D02*
X009586Y003607D01*
X009487Y003706D02*
X014189Y003706D01*
X014288Y003804D02*
X009389Y003804D01*
X009378Y003903D02*
X014298Y003903D01*
X014298Y004001D02*
X009378Y004001D01*
X009378Y004100D02*
X014298Y004100D01*
X014335Y004198D02*
X009341Y004198D01*
X009300Y004297D02*
X014376Y004297D01*
X014469Y004395D02*
X009208Y004395D01*
X009060Y004494D02*
X014617Y004494D01*
X014483Y004593D02*
X009193Y004593D01*
X009292Y004691D02*
X014385Y004691D01*
X013696Y004790D02*
X010480Y004790D01*
X010579Y004888D02*
X013598Y004888D01*
X013499Y004987D02*
X010677Y004987D01*
X010776Y005085D02*
X013401Y005085D01*
X013302Y005184D02*
X010874Y005184D01*
X010266Y005282D02*
X009306Y005282D01*
X009222Y005381D02*
X010364Y005381D01*
X010463Y005479D02*
X009095Y005479D01*
X008582Y005479D02*
X008548Y005479D01*
X008548Y005578D02*
X009626Y005578D01*
X009361Y005675D02*
X009361Y005675D01*
X009359Y005676D02*
X008548Y005676D01*
X008548Y005775D02*
X009241Y005775D01*
X009124Y005874D02*
X008548Y005874D01*
X008548Y005972D02*
X009058Y005972D01*
X009001Y006071D02*
X008548Y006071D01*
X008548Y006169D02*
X008944Y006169D01*
X008925Y006268D02*
X008548Y006268D01*
X008548Y006366D02*
X008907Y006366D01*
X008890Y006465D02*
X008548Y006465D01*
X008548Y006563D02*
X008895Y006563D01*
X008884Y006501D02*
X008884Y006501D01*
X008912Y006662D02*
X008548Y006662D01*
X008548Y006760D02*
X008929Y006760D01*
X008959Y006859D02*
X008548Y006859D01*
X008548Y006958D02*
X009016Y006958D01*
X009073Y007056D02*
X008548Y007056D01*
X008548Y007155D02*
X009155Y007155D01*
X009272Y007253D02*
X008548Y007253D01*
X010404Y007253D02*
X013272Y007253D01*
X013197Y007291D02*
X013197Y007291D01*
X013016Y006958D02*
X012152Y006958D01*
X012165Y006859D02*
X012959Y006859D01*
X011857Y006859D02*
X011819Y006859D01*
X011819Y006958D02*
X011857Y006958D01*
X011511Y006662D02*
X010764Y006662D01*
X010782Y006563D02*
X011521Y006563D01*
X011502Y006465D02*
X010786Y006465D01*
X010769Y006366D02*
X011491Y006366D01*
X011491Y006268D02*
X010751Y006268D01*
X010735Y006175D02*
X010735Y006175D01*
X010732Y006169D02*
X011491Y006169D01*
X011491Y006071D02*
X010675Y006071D01*
X010618Y005972D02*
X011556Y005972D01*
X011588Y005874D02*
X010552Y005874D01*
X010569Y005888D02*
X010569Y005888D01*
X010569Y005888D01*
X010435Y005775D02*
X011588Y005775D01*
X010660Y005676D02*
X010318Y005676D01*
X010315Y005675D02*
X010315Y005675D01*
X010561Y005578D02*
X010050Y005578D01*
X010004Y005561D02*
X010004Y005561D01*
X009371Y003114D02*
X009347Y003114D01*
X014305Y003114D02*
X014330Y003114D01*
X017672Y002441D02*
X017672Y002441D01*
M02*
