G75*
G70*
%OFA0B0*%
%FSLAX24Y24*%
%IPPOS*%
%LPD*%
%AMOC8*
5,1,8,0,0,1.08239X$1,22.5*
%
%ADD10C,0.0080*%
%ADD11C,0.0000*%
D10*
X008338Y000501D02*
X008338Y015501D01*
X023338Y015501D01*
X023338Y000501D01*
X008338Y000501D01*
X009526Y002841D02*
X009473Y002895D01*
X009473Y003108D01*
X009526Y003161D01*
X009686Y003161D01*
X009686Y002841D01*
X009526Y002841D01*
X009841Y002841D02*
X009841Y003161D01*
X010055Y003161D02*
X009841Y002841D01*
X010055Y002841D02*
X010055Y003161D01*
X010210Y003108D02*
X010263Y003161D01*
X010370Y003161D01*
X010423Y003108D01*
X010423Y002895D01*
X010370Y002841D01*
X010263Y002841D01*
X010210Y002895D01*
X010210Y003001D01*
X010316Y003001D01*
X010854Y003608D02*
X010854Y004395D01*
X010300Y004108D02*
X010300Y004055D01*
X010247Y004001D01*
X010140Y004001D01*
X010087Y003948D01*
X010087Y003895D01*
X010140Y003841D01*
X010247Y003841D01*
X010300Y003895D01*
X009932Y003841D02*
X009772Y003841D01*
X009718Y003895D01*
X009718Y004108D01*
X009772Y004161D01*
X009932Y004161D01*
X009932Y003841D01*
X009564Y003841D02*
X009457Y003841D01*
X009510Y003841D02*
X009510Y004161D01*
X009457Y004161D02*
X009564Y004161D01*
X010087Y004108D02*
X010140Y004161D01*
X010247Y004161D01*
X010300Y004108D01*
X010316Y004841D02*
X010210Y004948D01*
X010210Y005161D01*
X010055Y005108D02*
X010055Y004895D01*
X010001Y004841D01*
X009895Y004841D01*
X009841Y004895D01*
X009686Y004895D02*
X009633Y004841D01*
X009526Y004841D01*
X009473Y004895D01*
X009473Y005108D02*
X009526Y005161D01*
X009633Y005161D01*
X009686Y005108D01*
X009686Y004895D01*
X009841Y005108D02*
X009895Y005161D01*
X010001Y005161D01*
X010055Y005108D01*
X010423Y005161D02*
X010423Y004948D01*
X010316Y004841D01*
X011484Y004986D02*
X011563Y004986D01*
X012114Y004986D02*
X012192Y004986D01*
X013268Y004895D02*
X013321Y004841D01*
X013428Y004841D01*
X013481Y004895D01*
X013481Y005108D01*
X013428Y005161D01*
X013321Y005161D01*
X013268Y005108D01*
X013636Y005108D02*
X013690Y005161D01*
X013796Y005161D01*
X013850Y005108D01*
X013850Y004895D01*
X013796Y004841D01*
X013690Y004841D01*
X013636Y004895D01*
X014005Y004948D02*
X014111Y004841D01*
X014218Y004948D01*
X014218Y005161D01*
X014005Y005161D02*
X014005Y004948D01*
X012822Y004395D02*
X012822Y003608D01*
X012538Y003726D02*
X012540Y003744D01*
X012546Y003762D01*
X012555Y003778D01*
X012567Y003791D01*
X012582Y003802D01*
X012599Y003810D01*
X012617Y003814D01*
X012635Y003814D01*
X012653Y003810D01*
X012670Y003802D01*
X012685Y003791D01*
X012697Y003778D01*
X012706Y003762D01*
X012712Y003744D01*
X012714Y003726D01*
X012712Y003708D01*
X012706Y003690D01*
X012697Y003674D01*
X012685Y003661D01*
X012670Y003650D01*
X012653Y003642D01*
X012635Y003638D01*
X012617Y003638D01*
X012599Y003642D01*
X012582Y003650D01*
X012567Y003661D01*
X012555Y003674D01*
X012546Y003690D01*
X012540Y003708D01*
X012538Y003726D01*
X013268Y003895D02*
X013268Y004108D01*
X013321Y004161D01*
X013428Y004161D01*
X013481Y004108D01*
X013481Y003895D01*
X013428Y003841D01*
X013321Y003841D01*
X013268Y003895D01*
X013636Y003895D02*
X013636Y004108D01*
X013690Y004161D01*
X013850Y004161D01*
X013850Y003841D01*
X013690Y003841D01*
X013636Y003895D01*
X014005Y003895D02*
X014005Y003948D01*
X014058Y004001D01*
X014165Y004001D01*
X014218Y004055D01*
X014218Y004108D01*
X014165Y004161D01*
X014058Y004161D01*
X014005Y004108D01*
X014005Y003895D02*
X014058Y003841D01*
X014165Y003841D01*
X014218Y003895D01*
X014165Y003161D02*
X014218Y003108D01*
X014218Y002895D01*
X014165Y002841D01*
X014058Y002841D01*
X014005Y002895D01*
X014005Y003001D01*
X014111Y003001D01*
X014005Y003108D02*
X014058Y003161D01*
X014165Y003161D01*
X013850Y003161D02*
X013636Y002841D01*
X013636Y003161D01*
X013481Y003161D02*
X013321Y003161D01*
X013268Y003108D01*
X013268Y002895D01*
X013321Y002841D01*
X013481Y002841D01*
X013481Y003161D01*
X013850Y003161D02*
X013850Y002841D01*
X012192Y003017D02*
X012114Y003017D01*
X011563Y003017D02*
X011484Y003017D01*
X017473Y003108D02*
X017473Y002895D01*
X017526Y002841D01*
X017686Y002841D01*
X017686Y003161D01*
X017526Y003161D01*
X017473Y003108D01*
X017841Y003161D02*
X017841Y002841D01*
X018055Y003161D01*
X018055Y002841D01*
X018210Y002895D02*
X018210Y003001D01*
X018316Y003001D01*
X018210Y002895D02*
X018263Y002841D01*
X018370Y002841D01*
X018423Y002895D01*
X018423Y003108D01*
X018370Y003161D01*
X018263Y003161D01*
X018210Y003108D01*
X018854Y003608D02*
X018854Y004395D01*
X018300Y004108D02*
X018300Y004055D01*
X018247Y004001D01*
X018140Y004001D01*
X018087Y003948D01*
X018087Y003895D01*
X018140Y003841D01*
X018247Y003841D01*
X018300Y003895D01*
X017932Y003841D02*
X017772Y003841D01*
X017718Y003895D01*
X017718Y004108D01*
X017772Y004161D01*
X017932Y004161D01*
X017932Y003841D01*
X017564Y003841D02*
X017457Y003841D01*
X017510Y003841D02*
X017510Y004161D01*
X017457Y004161D02*
X017564Y004161D01*
X018087Y004108D02*
X018140Y004161D01*
X018247Y004161D01*
X018300Y004108D01*
X018316Y004841D02*
X018210Y004948D01*
X018210Y005161D01*
X018055Y005108D02*
X018055Y004895D01*
X018001Y004841D01*
X017895Y004841D01*
X017841Y004895D01*
X017686Y004895D02*
X017633Y004841D01*
X017526Y004841D01*
X017473Y004895D01*
X017473Y005108D02*
X017526Y005161D01*
X017633Y005161D01*
X017686Y005108D01*
X017686Y004895D01*
X017841Y005108D02*
X017895Y005161D01*
X018001Y005161D01*
X018055Y005108D01*
X018423Y005161D02*
X018423Y004948D01*
X018316Y004841D01*
X019484Y004986D02*
X019563Y004986D01*
X020114Y004986D02*
X020192Y004986D01*
X021268Y004895D02*
X021321Y004841D01*
X021428Y004841D01*
X021481Y004895D01*
X021481Y005108D01*
X021428Y005161D01*
X021321Y005161D01*
X021268Y005108D01*
X021636Y005108D02*
X021690Y005161D01*
X021796Y005161D01*
X021850Y005108D01*
X021850Y004895D01*
X021796Y004841D01*
X021690Y004841D01*
X021636Y004895D01*
X022005Y004948D02*
X022111Y004841D01*
X022218Y004948D01*
X022218Y005161D01*
X022005Y005161D02*
X022005Y004948D01*
X020822Y004395D02*
X020822Y003608D01*
X020538Y003726D02*
X020540Y003744D01*
X020546Y003762D01*
X020555Y003778D01*
X020567Y003791D01*
X020582Y003802D01*
X020599Y003810D01*
X020617Y003814D01*
X020635Y003814D01*
X020653Y003810D01*
X020670Y003802D01*
X020685Y003791D01*
X020697Y003778D01*
X020706Y003762D01*
X020712Y003744D01*
X020714Y003726D01*
X020712Y003708D01*
X020706Y003690D01*
X020697Y003674D01*
X020685Y003661D01*
X020670Y003650D01*
X020653Y003642D01*
X020635Y003638D01*
X020617Y003638D01*
X020599Y003642D01*
X020582Y003650D01*
X020567Y003661D01*
X020555Y003674D01*
X020546Y003690D01*
X020540Y003708D01*
X020538Y003726D01*
X021268Y003895D02*
X021268Y004108D01*
X021321Y004161D01*
X021428Y004161D01*
X021481Y004108D01*
X021481Y003895D01*
X021428Y003841D01*
X021321Y003841D01*
X021268Y003895D01*
X021636Y003895D02*
X021636Y004108D01*
X021690Y004161D01*
X021850Y004161D01*
X021850Y003841D01*
X021690Y003841D01*
X021636Y003895D01*
X022005Y003895D02*
X022005Y003948D01*
X022058Y004001D01*
X022165Y004001D01*
X022218Y004055D01*
X022218Y004108D01*
X022165Y004161D01*
X022058Y004161D01*
X022005Y004108D01*
X022005Y003895D02*
X022058Y003841D01*
X022165Y003841D01*
X022218Y003895D01*
X022165Y003161D02*
X022218Y003108D01*
X022218Y002895D01*
X022165Y002841D01*
X022058Y002841D01*
X022005Y002895D01*
X022005Y003001D01*
X022111Y003001D01*
X022005Y003108D02*
X022058Y003161D01*
X022165Y003161D01*
X021850Y003161D02*
X021636Y002841D01*
X021636Y003161D01*
X021481Y003161D02*
X021321Y003161D01*
X021268Y003108D01*
X021268Y002895D01*
X021321Y002841D01*
X021481Y002841D01*
X021481Y003161D01*
X021850Y003161D02*
X021850Y002841D01*
X020192Y003017D02*
X020114Y003017D01*
X019563Y003017D02*
X019484Y003017D01*
X015838Y000501D02*
X015838Y015501D01*
X012948Y014811D02*
X012948Y014541D01*
X012813Y014541D01*
X012768Y014586D01*
X012768Y014631D01*
X012813Y014676D01*
X012948Y014676D01*
X012813Y014676D02*
X012768Y014721D01*
X012768Y014766D01*
X012813Y014811D01*
X012948Y014811D01*
X012748Y014991D02*
X012658Y015081D01*
X012568Y014991D01*
X012568Y015261D01*
X012426Y015216D02*
X012426Y015171D01*
X012381Y015126D01*
X012291Y015126D01*
X012246Y015081D01*
X012246Y015036D01*
X012291Y014991D01*
X012381Y014991D01*
X012426Y015036D01*
X012426Y015216D02*
X012381Y015261D01*
X012291Y015261D01*
X012246Y015216D01*
X012104Y015216D02*
X012059Y015261D01*
X011969Y015261D01*
X011924Y015216D01*
X011924Y015171D01*
X012104Y014991D01*
X011924Y014991D01*
X011781Y015036D02*
X011781Y015081D01*
X011736Y015126D01*
X011646Y015126D01*
X011601Y015081D01*
X011601Y015036D01*
X011646Y014991D01*
X011736Y014991D01*
X011781Y015036D01*
X011736Y015126D02*
X011781Y015171D01*
X011781Y015216D01*
X011736Y015261D01*
X011646Y015261D01*
X011601Y015216D01*
X011601Y015171D01*
X011646Y015126D01*
X011459Y015171D02*
X011369Y015261D01*
X011369Y014991D01*
X011459Y014991D02*
X011279Y014991D01*
X011137Y014991D02*
X010957Y015171D01*
X010957Y015216D01*
X011002Y015261D01*
X011092Y015261D01*
X011137Y015216D01*
X011137Y014991D02*
X010957Y014991D01*
X010942Y014721D02*
X010942Y014541D01*
X011077Y014541D01*
X011122Y014586D01*
X011122Y014721D01*
X011264Y014676D02*
X011264Y014586D01*
X011309Y014541D01*
X011399Y014541D01*
X011444Y014586D01*
X011444Y014676D01*
X011399Y014721D01*
X011309Y014721D01*
X011264Y014676D01*
X011578Y014721D02*
X011713Y014631D01*
X011578Y014541D01*
X011713Y014541D02*
X011713Y014811D01*
X011855Y014676D02*
X011855Y014541D01*
X011990Y014541D01*
X012035Y014586D01*
X011990Y014631D01*
X011855Y014631D01*
X011855Y014676D02*
X011900Y014721D01*
X011990Y014721D01*
X012177Y014676D02*
X012177Y014631D01*
X012357Y014631D01*
X012357Y014586D02*
X012357Y014676D01*
X012312Y014721D01*
X012222Y014721D01*
X012177Y014676D01*
X012222Y014541D02*
X012312Y014541D01*
X012357Y014586D01*
X012491Y014721D02*
X012536Y014721D01*
X012626Y014631D01*
X012626Y014541D02*
X012626Y014721D01*
X012748Y014991D02*
X012748Y015261D01*
X010800Y014721D02*
X010710Y014721D01*
X010755Y014766D02*
X010755Y014586D01*
X010710Y014541D01*
X010423Y013161D02*
X010423Y012948D01*
X010316Y012841D01*
X010210Y012948D01*
X010210Y013161D01*
X010055Y013108D02*
X010055Y012895D01*
X010001Y012841D01*
X009895Y012841D01*
X009841Y012895D01*
X009686Y012895D02*
X009633Y012841D01*
X009526Y012841D01*
X009473Y012895D01*
X009686Y012895D02*
X009686Y013108D01*
X009633Y013161D01*
X009526Y013161D01*
X009473Y013108D01*
X009841Y013108D02*
X009895Y013161D01*
X010001Y013161D01*
X010055Y013108D01*
X011484Y012986D02*
X011563Y012986D01*
X012114Y012986D02*
X012192Y012986D01*
X013268Y012895D02*
X013321Y012841D01*
X013428Y012841D01*
X013481Y012895D01*
X013481Y013108D01*
X013428Y013161D01*
X013321Y013161D01*
X013268Y013108D01*
X013636Y013108D02*
X013690Y013161D01*
X013796Y013161D01*
X013850Y013108D01*
X013850Y012895D01*
X013796Y012841D01*
X013690Y012841D01*
X013636Y012895D01*
X014005Y012948D02*
X014005Y013161D01*
X014005Y012948D02*
X014111Y012841D01*
X014218Y012948D01*
X014218Y013161D01*
X012822Y012395D02*
X012822Y011608D01*
X012538Y011726D02*
X012540Y011744D01*
X012546Y011762D01*
X012555Y011778D01*
X012567Y011791D01*
X012582Y011802D01*
X012599Y011810D01*
X012617Y011814D01*
X012635Y011814D01*
X012653Y011810D01*
X012670Y011802D01*
X012685Y011791D01*
X012697Y011778D01*
X012706Y011762D01*
X012712Y011744D01*
X012714Y011726D01*
X012712Y011708D01*
X012706Y011690D01*
X012697Y011674D01*
X012685Y011661D01*
X012670Y011650D01*
X012653Y011642D01*
X012635Y011638D01*
X012617Y011638D01*
X012599Y011642D01*
X012582Y011650D01*
X012567Y011661D01*
X012555Y011674D01*
X012546Y011690D01*
X012540Y011708D01*
X012538Y011726D01*
X013268Y011895D02*
X013268Y012108D01*
X013321Y012161D01*
X013428Y012161D01*
X013481Y012108D01*
X013481Y011895D01*
X013428Y011841D01*
X013321Y011841D01*
X013268Y011895D01*
X013636Y011895D02*
X013636Y012108D01*
X013690Y012161D01*
X013850Y012161D01*
X013850Y011841D01*
X013690Y011841D01*
X013636Y011895D01*
X014005Y011895D02*
X014058Y011841D01*
X014165Y011841D01*
X014218Y011895D01*
X014165Y012001D02*
X014058Y012001D01*
X014005Y011948D01*
X014005Y011895D01*
X014165Y012001D02*
X014218Y012055D01*
X014218Y012108D01*
X014165Y012161D01*
X014058Y012161D01*
X014005Y012108D01*
X014058Y011161D02*
X014165Y011161D01*
X014218Y011108D01*
X014218Y010895D01*
X014165Y010841D01*
X014058Y010841D01*
X014005Y010895D01*
X014005Y011001D01*
X014111Y011001D01*
X014005Y011108D02*
X014058Y011161D01*
X013850Y011161D02*
X013636Y010841D01*
X013636Y011161D01*
X013481Y011161D02*
X013321Y011161D01*
X013268Y011108D01*
X013268Y010895D01*
X013321Y010841D01*
X013481Y010841D01*
X013481Y011161D01*
X013850Y011161D02*
X013850Y010841D01*
X012192Y011017D02*
X012114Y011017D01*
X011563Y011017D02*
X011484Y011017D01*
X010423Y011108D02*
X010423Y010895D01*
X010370Y010841D01*
X010263Y010841D01*
X010210Y010895D01*
X010210Y011001D01*
X010316Y011001D01*
X010210Y011108D02*
X010263Y011161D01*
X010370Y011161D01*
X010423Y011108D01*
X010055Y011161D02*
X009841Y010841D01*
X009841Y011161D01*
X009686Y011161D02*
X009526Y011161D01*
X009473Y011108D01*
X009473Y010895D01*
X009526Y010841D01*
X009686Y010841D01*
X009686Y011161D01*
X010055Y011161D02*
X010055Y010841D01*
X010854Y011608D02*
X010854Y012395D01*
X010300Y012108D02*
X010300Y012055D01*
X010247Y012001D01*
X010140Y012001D01*
X010087Y011948D01*
X010087Y011895D01*
X010140Y011841D01*
X010247Y011841D01*
X010300Y011895D01*
X010300Y012108D02*
X010247Y012161D01*
X010140Y012161D01*
X010087Y012108D01*
X009932Y012161D02*
X009772Y012161D01*
X009718Y012108D01*
X009718Y011895D01*
X009772Y011841D01*
X009932Y011841D01*
X009932Y012161D01*
X009564Y012161D02*
X009457Y012161D01*
X009510Y012161D02*
X009510Y011841D01*
X009457Y011841D02*
X009564Y011841D01*
X017457Y011841D02*
X017564Y011841D01*
X017510Y011841D02*
X017510Y012161D01*
X017457Y012161D02*
X017564Y012161D01*
X017718Y012108D02*
X017772Y012161D01*
X017932Y012161D01*
X017932Y011841D01*
X017772Y011841D01*
X017718Y011895D01*
X017718Y012108D01*
X018087Y012108D02*
X018140Y012161D01*
X018247Y012161D01*
X018300Y012108D01*
X018300Y012055D01*
X018247Y012001D01*
X018140Y012001D01*
X018087Y011948D01*
X018087Y011895D01*
X018140Y011841D01*
X018247Y011841D01*
X018300Y011895D01*
X018854Y011608D02*
X018854Y012395D01*
X018316Y012841D02*
X018210Y012948D01*
X018210Y013161D01*
X018055Y013108D02*
X018055Y012895D01*
X018001Y012841D01*
X017895Y012841D01*
X017841Y012895D01*
X017686Y012895D02*
X017633Y012841D01*
X017526Y012841D01*
X017473Y012895D01*
X017686Y012895D02*
X017686Y013108D01*
X017633Y013161D01*
X017526Y013161D01*
X017473Y013108D01*
X017841Y013108D02*
X017895Y013161D01*
X018001Y013161D01*
X018055Y013108D01*
X018423Y013161D02*
X018423Y012948D01*
X018316Y012841D01*
X019484Y012986D02*
X019563Y012986D01*
X020114Y012986D02*
X020192Y012986D01*
X021268Y012895D02*
X021321Y012841D01*
X021428Y012841D01*
X021481Y012895D01*
X021481Y013108D01*
X021428Y013161D01*
X021321Y013161D01*
X021268Y013108D01*
X021636Y013108D02*
X021690Y013161D01*
X021796Y013161D01*
X021850Y013108D01*
X021850Y012895D01*
X021796Y012841D01*
X021690Y012841D01*
X021636Y012895D01*
X022005Y012948D02*
X022005Y013161D01*
X022005Y012948D02*
X022111Y012841D01*
X022218Y012948D01*
X022218Y013161D01*
X020822Y012395D02*
X020822Y011608D01*
X020538Y011726D02*
X020540Y011744D01*
X020546Y011762D01*
X020555Y011778D01*
X020567Y011791D01*
X020582Y011802D01*
X020599Y011810D01*
X020617Y011814D01*
X020635Y011814D01*
X020653Y011810D01*
X020670Y011802D01*
X020685Y011791D01*
X020697Y011778D01*
X020706Y011762D01*
X020712Y011744D01*
X020714Y011726D01*
X020712Y011708D01*
X020706Y011690D01*
X020697Y011674D01*
X020685Y011661D01*
X020670Y011650D01*
X020653Y011642D01*
X020635Y011638D01*
X020617Y011638D01*
X020599Y011642D01*
X020582Y011650D01*
X020567Y011661D01*
X020555Y011674D01*
X020546Y011690D01*
X020540Y011708D01*
X020538Y011726D01*
X021268Y011895D02*
X021268Y012108D01*
X021321Y012161D01*
X021428Y012161D01*
X021481Y012108D01*
X021481Y011895D01*
X021428Y011841D01*
X021321Y011841D01*
X021268Y011895D01*
X021636Y011895D02*
X021636Y012108D01*
X021690Y012161D01*
X021850Y012161D01*
X021850Y011841D01*
X021690Y011841D01*
X021636Y011895D01*
X022005Y011895D02*
X022058Y011841D01*
X022165Y011841D01*
X022218Y011895D01*
X022165Y012001D02*
X022058Y012001D01*
X022005Y011948D01*
X022005Y011895D01*
X022165Y012001D02*
X022218Y012055D01*
X022218Y012108D01*
X022165Y012161D01*
X022058Y012161D01*
X022005Y012108D01*
X022058Y011161D02*
X022165Y011161D01*
X022218Y011108D01*
X022218Y010895D01*
X022165Y010841D01*
X022058Y010841D01*
X022005Y010895D01*
X022005Y011001D01*
X022111Y011001D01*
X022005Y011108D02*
X022058Y011161D01*
X021850Y011161D02*
X021636Y010841D01*
X021636Y011161D01*
X021481Y011161D02*
X021321Y011161D01*
X021268Y011108D01*
X021268Y010895D01*
X021321Y010841D01*
X021481Y010841D01*
X021481Y011161D01*
X021850Y011161D02*
X021850Y010841D01*
X020192Y011017D02*
X020114Y011017D01*
X019563Y011017D02*
X019484Y011017D01*
X018423Y011108D02*
X018423Y010895D01*
X018370Y010841D01*
X018263Y010841D01*
X018210Y010895D01*
X018210Y011001D01*
X018316Y011001D01*
X018210Y011108D02*
X018263Y011161D01*
X018370Y011161D01*
X018423Y011108D01*
X018055Y011161D02*
X017841Y010841D01*
X017841Y011161D01*
X017686Y011161D02*
X017526Y011161D01*
X017473Y011108D01*
X017473Y010895D01*
X017526Y010841D01*
X017686Y010841D01*
X017686Y011161D01*
X018055Y011161D02*
X018055Y010841D01*
X023338Y008001D02*
X008338Y008001D01*
X010957Y007216D02*
X011002Y007261D01*
X011092Y007261D01*
X011137Y007216D01*
X010957Y007216D02*
X010957Y007171D01*
X011137Y006991D01*
X010957Y006991D01*
X010755Y006766D02*
X010755Y006586D01*
X010710Y006541D01*
X010710Y006721D02*
X010800Y006721D01*
X010942Y006721D02*
X010942Y006541D01*
X011077Y006541D01*
X011122Y006586D01*
X011122Y006721D01*
X011264Y006676D02*
X011264Y006586D01*
X011309Y006541D01*
X011399Y006541D01*
X011444Y006586D01*
X011444Y006676D01*
X011399Y006721D01*
X011309Y006721D01*
X011264Y006676D01*
X011578Y006721D02*
X011713Y006631D01*
X011578Y006541D01*
X011713Y006541D02*
X011713Y006811D01*
X011736Y006991D02*
X011781Y007036D01*
X011781Y007081D01*
X011736Y007126D01*
X011646Y007126D01*
X011601Y007081D01*
X011601Y007036D01*
X011646Y006991D01*
X011736Y006991D01*
X011736Y007126D02*
X011781Y007171D01*
X011781Y007216D01*
X011736Y007261D01*
X011646Y007261D01*
X011601Y007216D01*
X011601Y007171D01*
X011646Y007126D01*
X011459Y007171D02*
X011369Y007261D01*
X011369Y006991D01*
X011459Y006991D02*
X011279Y006991D01*
X011924Y006991D02*
X012104Y006991D01*
X011924Y007171D01*
X011924Y007216D01*
X011969Y007261D01*
X012059Y007261D01*
X012104Y007216D01*
X012246Y007216D02*
X012291Y007261D01*
X012381Y007261D01*
X012426Y007216D01*
X012426Y007171D01*
X012381Y007126D01*
X012291Y007126D01*
X012246Y007081D01*
X012246Y007036D01*
X012291Y006991D01*
X012381Y006991D01*
X012426Y007036D01*
X012568Y006991D02*
X012658Y007081D01*
X012748Y006991D01*
X012748Y007261D01*
X012568Y007261D02*
X012568Y006991D01*
X012768Y006766D02*
X012768Y006721D01*
X012813Y006676D01*
X012948Y006676D01*
X012948Y006541D02*
X012813Y006541D01*
X012768Y006586D01*
X012768Y006631D01*
X012813Y006676D01*
X012768Y006766D02*
X012813Y006811D01*
X012948Y006811D01*
X012948Y006541D01*
X012626Y006541D02*
X012626Y006721D01*
X012626Y006631D02*
X012536Y006721D01*
X012491Y006721D01*
X012357Y006676D02*
X012357Y006586D01*
X012312Y006541D01*
X012222Y006541D01*
X012177Y006631D02*
X012357Y006631D01*
X012357Y006676D02*
X012312Y006721D01*
X012222Y006721D01*
X012177Y006676D01*
X012177Y006631D01*
X012035Y006586D02*
X011990Y006631D01*
X011855Y006631D01*
X011855Y006676D02*
X011855Y006541D01*
X011990Y006541D01*
X012035Y006586D01*
X011990Y006721D02*
X011900Y006721D01*
X011855Y006676D01*
X018710Y006721D02*
X018800Y006721D01*
X018755Y006766D02*
X018755Y006586D01*
X018710Y006541D01*
X018942Y006541D02*
X018942Y006721D01*
X018942Y006541D02*
X019077Y006541D01*
X019122Y006586D01*
X019122Y006721D01*
X019264Y006676D02*
X019309Y006721D01*
X019399Y006721D01*
X019444Y006676D01*
X019444Y006586D01*
X019399Y006541D01*
X019309Y006541D01*
X019264Y006586D01*
X019264Y006676D01*
X019578Y006721D02*
X019713Y006631D01*
X019578Y006541D01*
X019713Y006541D02*
X019713Y006811D01*
X019736Y006991D02*
X019781Y007036D01*
X019781Y007081D01*
X019736Y007126D01*
X019646Y007126D01*
X019601Y007081D01*
X019601Y007036D01*
X019646Y006991D01*
X019736Y006991D01*
X019736Y007126D02*
X019781Y007171D01*
X019781Y007216D01*
X019736Y007261D01*
X019646Y007261D01*
X019601Y007216D01*
X019601Y007171D01*
X019646Y007126D01*
X019459Y007171D02*
X019369Y007261D01*
X019369Y006991D01*
X019459Y006991D02*
X019279Y006991D01*
X019137Y006991D02*
X018957Y007171D01*
X018957Y007216D01*
X019002Y007261D01*
X019092Y007261D01*
X019137Y007216D01*
X019137Y006991D02*
X018957Y006991D01*
X019855Y006676D02*
X019855Y006541D01*
X019990Y006541D01*
X020035Y006586D01*
X019990Y006631D01*
X019855Y006631D01*
X019855Y006676D02*
X019900Y006721D01*
X019990Y006721D01*
X020177Y006676D02*
X020177Y006631D01*
X020357Y006631D01*
X020357Y006586D02*
X020357Y006676D01*
X020312Y006721D01*
X020222Y006721D01*
X020177Y006676D01*
X020222Y006541D02*
X020312Y006541D01*
X020357Y006586D01*
X020491Y006721D02*
X020536Y006721D01*
X020626Y006631D01*
X020626Y006541D02*
X020626Y006721D01*
X020768Y006721D02*
X020768Y006766D01*
X020813Y006811D01*
X020948Y006811D01*
X020948Y006541D01*
X020813Y006541D01*
X020768Y006586D01*
X020768Y006631D01*
X020813Y006676D01*
X020948Y006676D01*
X020813Y006676D02*
X020768Y006721D01*
X020748Y006991D02*
X020658Y007081D01*
X020568Y006991D01*
X020568Y007261D01*
X020426Y007216D02*
X020381Y007261D01*
X020291Y007261D01*
X020246Y007216D01*
X020291Y007126D02*
X020246Y007081D01*
X020246Y007036D01*
X020291Y006991D01*
X020381Y006991D01*
X020426Y007036D01*
X020381Y007126D02*
X020291Y007126D01*
X020381Y007126D02*
X020426Y007171D01*
X020426Y007216D01*
X020104Y007216D02*
X020059Y007261D01*
X019969Y007261D01*
X019924Y007216D01*
X019924Y007171D01*
X020104Y006991D01*
X019924Y006991D01*
X020748Y006991D02*
X020748Y007261D01*
X020813Y014541D02*
X020948Y014541D01*
X020948Y014811D01*
X020813Y014811D01*
X020768Y014766D01*
X020768Y014721D01*
X020813Y014676D01*
X020948Y014676D01*
X020813Y014676D02*
X020768Y014631D01*
X020768Y014586D01*
X020813Y014541D01*
X020626Y014541D02*
X020626Y014721D01*
X020626Y014631D02*
X020536Y014721D01*
X020491Y014721D01*
X020357Y014676D02*
X020312Y014721D01*
X020222Y014721D01*
X020177Y014676D01*
X020177Y014631D01*
X020357Y014631D01*
X020357Y014586D02*
X020357Y014676D01*
X020357Y014586D02*
X020312Y014541D01*
X020222Y014541D01*
X020035Y014586D02*
X019990Y014631D01*
X019855Y014631D01*
X019855Y014676D02*
X019855Y014541D01*
X019990Y014541D01*
X020035Y014586D01*
X019990Y014721D02*
X019900Y014721D01*
X019855Y014676D01*
X019713Y014631D02*
X019578Y014541D01*
X019713Y014541D02*
X019713Y014811D01*
X019578Y014721D02*
X019713Y014631D01*
X019444Y014586D02*
X019399Y014541D01*
X019309Y014541D01*
X019264Y014586D01*
X019264Y014676D01*
X019309Y014721D01*
X019399Y014721D01*
X019444Y014676D01*
X019444Y014586D01*
X019122Y014586D02*
X019122Y014721D01*
X019122Y014586D02*
X019077Y014541D01*
X018942Y014541D01*
X018942Y014721D01*
X018800Y014721D02*
X018710Y014721D01*
X018755Y014766D02*
X018755Y014586D01*
X018710Y014541D01*
X018957Y014991D02*
X019137Y014991D01*
X018957Y015171D01*
X018957Y015216D01*
X019002Y015261D01*
X019092Y015261D01*
X019137Y015216D01*
X019369Y015261D02*
X019369Y014991D01*
X019459Y014991D02*
X019279Y014991D01*
X019459Y015171D02*
X019369Y015261D01*
X019601Y015216D02*
X019646Y015261D01*
X019736Y015261D01*
X019781Y015216D01*
X019781Y015171D01*
X019736Y015126D01*
X019646Y015126D01*
X019601Y015081D01*
X019601Y015036D01*
X019646Y014991D01*
X019736Y014991D01*
X019781Y015036D01*
X019781Y015081D01*
X019736Y015126D01*
X019646Y015126D02*
X019601Y015171D01*
X019601Y015216D01*
X019924Y015216D02*
X019969Y015261D01*
X020059Y015261D01*
X020104Y015216D01*
X020246Y015216D02*
X020291Y015261D01*
X020381Y015261D01*
X020426Y015216D01*
X020426Y015171D01*
X020381Y015126D01*
X020291Y015126D01*
X020246Y015081D01*
X020246Y015036D01*
X020291Y014991D01*
X020381Y014991D01*
X020426Y015036D01*
X020568Y014991D02*
X020568Y015261D01*
X020748Y015261D02*
X020748Y014991D01*
X020658Y015081D01*
X020568Y014991D01*
X020104Y014991D02*
X019924Y015171D01*
X019924Y015216D01*
X019924Y014991D02*
X020104Y014991D01*
D11*
X021188Y014501D02*
X021190Y014551D01*
X021196Y014601D01*
X021206Y014651D01*
X021219Y014699D01*
X021236Y014747D01*
X021257Y014793D01*
X021281Y014837D01*
X021309Y014879D01*
X021340Y014919D01*
X021374Y014956D01*
X021411Y014991D01*
X021450Y015022D01*
X021491Y015051D01*
X021535Y015076D01*
X021581Y015098D01*
X021628Y015116D01*
X021676Y015130D01*
X021725Y015141D01*
X021775Y015148D01*
X021825Y015151D01*
X021876Y015150D01*
X021926Y015145D01*
X021976Y015136D01*
X022024Y015124D01*
X022072Y015107D01*
X022118Y015087D01*
X022163Y015064D01*
X022206Y015037D01*
X022246Y015007D01*
X022284Y014974D01*
X022319Y014938D01*
X022352Y014899D01*
X022381Y014858D01*
X022407Y014815D01*
X022430Y014770D01*
X022449Y014723D01*
X022464Y014675D01*
X022476Y014626D01*
X022484Y014576D01*
X022488Y014526D01*
X022488Y014476D01*
X022484Y014426D01*
X022476Y014376D01*
X022464Y014327D01*
X022449Y014279D01*
X022430Y014232D01*
X022407Y014187D01*
X022381Y014144D01*
X022352Y014103D01*
X022319Y014064D01*
X022284Y014028D01*
X022246Y013995D01*
X022206Y013965D01*
X022163Y013938D01*
X022118Y013915D01*
X022072Y013895D01*
X022024Y013878D01*
X021976Y013866D01*
X021926Y013857D01*
X021876Y013852D01*
X021825Y013851D01*
X021775Y013854D01*
X021725Y013861D01*
X021676Y013872D01*
X021628Y013886D01*
X021581Y013904D01*
X021535Y013926D01*
X021491Y013951D01*
X021450Y013980D01*
X021411Y014011D01*
X021374Y014046D01*
X021340Y014083D01*
X021309Y014123D01*
X021281Y014165D01*
X021257Y014209D01*
X021236Y014255D01*
X021219Y014303D01*
X021206Y014351D01*
X021196Y014401D01*
X021190Y014451D01*
X021188Y014501D01*
X017188Y014501D02*
X017190Y014551D01*
X017196Y014601D01*
X017206Y014651D01*
X017219Y014699D01*
X017236Y014747D01*
X017257Y014793D01*
X017281Y014837D01*
X017309Y014879D01*
X017340Y014919D01*
X017374Y014956D01*
X017411Y014991D01*
X017450Y015022D01*
X017491Y015051D01*
X017535Y015076D01*
X017581Y015098D01*
X017628Y015116D01*
X017676Y015130D01*
X017725Y015141D01*
X017775Y015148D01*
X017825Y015151D01*
X017876Y015150D01*
X017926Y015145D01*
X017976Y015136D01*
X018024Y015124D01*
X018072Y015107D01*
X018118Y015087D01*
X018163Y015064D01*
X018206Y015037D01*
X018246Y015007D01*
X018284Y014974D01*
X018319Y014938D01*
X018352Y014899D01*
X018381Y014858D01*
X018407Y014815D01*
X018430Y014770D01*
X018449Y014723D01*
X018464Y014675D01*
X018476Y014626D01*
X018484Y014576D01*
X018488Y014526D01*
X018488Y014476D01*
X018484Y014426D01*
X018476Y014376D01*
X018464Y014327D01*
X018449Y014279D01*
X018430Y014232D01*
X018407Y014187D01*
X018381Y014144D01*
X018352Y014103D01*
X018319Y014064D01*
X018284Y014028D01*
X018246Y013995D01*
X018206Y013965D01*
X018163Y013938D01*
X018118Y013915D01*
X018072Y013895D01*
X018024Y013878D01*
X017976Y013866D01*
X017926Y013857D01*
X017876Y013852D01*
X017825Y013851D01*
X017775Y013854D01*
X017725Y013861D01*
X017676Y013872D01*
X017628Y013886D01*
X017581Y013904D01*
X017535Y013926D01*
X017491Y013951D01*
X017450Y013980D01*
X017411Y014011D01*
X017374Y014046D01*
X017340Y014083D01*
X017309Y014123D01*
X017281Y014165D01*
X017257Y014209D01*
X017236Y014255D01*
X017219Y014303D01*
X017206Y014351D01*
X017196Y014401D01*
X017190Y014451D01*
X017188Y014501D01*
X013188Y014501D02*
X013190Y014551D01*
X013196Y014601D01*
X013206Y014651D01*
X013219Y014699D01*
X013236Y014747D01*
X013257Y014793D01*
X013281Y014837D01*
X013309Y014879D01*
X013340Y014919D01*
X013374Y014956D01*
X013411Y014991D01*
X013450Y015022D01*
X013491Y015051D01*
X013535Y015076D01*
X013581Y015098D01*
X013628Y015116D01*
X013676Y015130D01*
X013725Y015141D01*
X013775Y015148D01*
X013825Y015151D01*
X013876Y015150D01*
X013926Y015145D01*
X013976Y015136D01*
X014024Y015124D01*
X014072Y015107D01*
X014118Y015087D01*
X014163Y015064D01*
X014206Y015037D01*
X014246Y015007D01*
X014284Y014974D01*
X014319Y014938D01*
X014352Y014899D01*
X014381Y014858D01*
X014407Y014815D01*
X014430Y014770D01*
X014449Y014723D01*
X014464Y014675D01*
X014476Y014626D01*
X014484Y014576D01*
X014488Y014526D01*
X014488Y014476D01*
X014484Y014426D01*
X014476Y014376D01*
X014464Y014327D01*
X014449Y014279D01*
X014430Y014232D01*
X014407Y014187D01*
X014381Y014144D01*
X014352Y014103D01*
X014319Y014064D01*
X014284Y014028D01*
X014246Y013995D01*
X014206Y013965D01*
X014163Y013938D01*
X014118Y013915D01*
X014072Y013895D01*
X014024Y013878D01*
X013976Y013866D01*
X013926Y013857D01*
X013876Y013852D01*
X013825Y013851D01*
X013775Y013854D01*
X013725Y013861D01*
X013676Y013872D01*
X013628Y013886D01*
X013581Y013904D01*
X013535Y013926D01*
X013491Y013951D01*
X013450Y013980D01*
X013411Y014011D01*
X013374Y014046D01*
X013340Y014083D01*
X013309Y014123D01*
X013281Y014165D01*
X013257Y014209D01*
X013236Y014255D01*
X013219Y014303D01*
X013206Y014351D01*
X013196Y014401D01*
X013190Y014451D01*
X013188Y014501D01*
X009188Y014501D02*
X009190Y014551D01*
X009196Y014601D01*
X009206Y014651D01*
X009219Y014699D01*
X009236Y014747D01*
X009257Y014793D01*
X009281Y014837D01*
X009309Y014879D01*
X009340Y014919D01*
X009374Y014956D01*
X009411Y014991D01*
X009450Y015022D01*
X009491Y015051D01*
X009535Y015076D01*
X009581Y015098D01*
X009628Y015116D01*
X009676Y015130D01*
X009725Y015141D01*
X009775Y015148D01*
X009825Y015151D01*
X009876Y015150D01*
X009926Y015145D01*
X009976Y015136D01*
X010024Y015124D01*
X010072Y015107D01*
X010118Y015087D01*
X010163Y015064D01*
X010206Y015037D01*
X010246Y015007D01*
X010284Y014974D01*
X010319Y014938D01*
X010352Y014899D01*
X010381Y014858D01*
X010407Y014815D01*
X010430Y014770D01*
X010449Y014723D01*
X010464Y014675D01*
X010476Y014626D01*
X010484Y014576D01*
X010488Y014526D01*
X010488Y014476D01*
X010484Y014426D01*
X010476Y014376D01*
X010464Y014327D01*
X010449Y014279D01*
X010430Y014232D01*
X010407Y014187D01*
X010381Y014144D01*
X010352Y014103D01*
X010319Y014064D01*
X010284Y014028D01*
X010246Y013995D01*
X010206Y013965D01*
X010163Y013938D01*
X010118Y013915D01*
X010072Y013895D01*
X010024Y013878D01*
X009976Y013866D01*
X009926Y013857D01*
X009876Y013852D01*
X009825Y013851D01*
X009775Y013854D01*
X009725Y013861D01*
X009676Y013872D01*
X009628Y013886D01*
X009581Y013904D01*
X009535Y013926D01*
X009491Y013951D01*
X009450Y013980D01*
X009411Y014011D01*
X009374Y014046D01*
X009340Y014083D01*
X009309Y014123D01*
X009281Y014165D01*
X009257Y014209D01*
X009236Y014255D01*
X009219Y014303D01*
X009206Y014351D01*
X009196Y014401D01*
X009190Y014451D01*
X009188Y014501D01*
X009188Y009501D02*
X009190Y009551D01*
X009196Y009601D01*
X009206Y009651D01*
X009219Y009699D01*
X009236Y009747D01*
X009257Y009793D01*
X009281Y009837D01*
X009309Y009879D01*
X009340Y009919D01*
X009374Y009956D01*
X009411Y009991D01*
X009450Y010022D01*
X009491Y010051D01*
X009535Y010076D01*
X009581Y010098D01*
X009628Y010116D01*
X009676Y010130D01*
X009725Y010141D01*
X009775Y010148D01*
X009825Y010151D01*
X009876Y010150D01*
X009926Y010145D01*
X009976Y010136D01*
X010024Y010124D01*
X010072Y010107D01*
X010118Y010087D01*
X010163Y010064D01*
X010206Y010037D01*
X010246Y010007D01*
X010284Y009974D01*
X010319Y009938D01*
X010352Y009899D01*
X010381Y009858D01*
X010407Y009815D01*
X010430Y009770D01*
X010449Y009723D01*
X010464Y009675D01*
X010476Y009626D01*
X010484Y009576D01*
X010488Y009526D01*
X010488Y009476D01*
X010484Y009426D01*
X010476Y009376D01*
X010464Y009327D01*
X010449Y009279D01*
X010430Y009232D01*
X010407Y009187D01*
X010381Y009144D01*
X010352Y009103D01*
X010319Y009064D01*
X010284Y009028D01*
X010246Y008995D01*
X010206Y008965D01*
X010163Y008938D01*
X010118Y008915D01*
X010072Y008895D01*
X010024Y008878D01*
X009976Y008866D01*
X009926Y008857D01*
X009876Y008852D01*
X009825Y008851D01*
X009775Y008854D01*
X009725Y008861D01*
X009676Y008872D01*
X009628Y008886D01*
X009581Y008904D01*
X009535Y008926D01*
X009491Y008951D01*
X009450Y008980D01*
X009411Y009011D01*
X009374Y009046D01*
X009340Y009083D01*
X009309Y009123D01*
X009281Y009165D01*
X009257Y009209D01*
X009236Y009255D01*
X009219Y009303D01*
X009206Y009351D01*
X009196Y009401D01*
X009190Y009451D01*
X009188Y009501D01*
X013188Y009501D02*
X013190Y009551D01*
X013196Y009601D01*
X013206Y009651D01*
X013219Y009699D01*
X013236Y009747D01*
X013257Y009793D01*
X013281Y009837D01*
X013309Y009879D01*
X013340Y009919D01*
X013374Y009956D01*
X013411Y009991D01*
X013450Y010022D01*
X013491Y010051D01*
X013535Y010076D01*
X013581Y010098D01*
X013628Y010116D01*
X013676Y010130D01*
X013725Y010141D01*
X013775Y010148D01*
X013825Y010151D01*
X013876Y010150D01*
X013926Y010145D01*
X013976Y010136D01*
X014024Y010124D01*
X014072Y010107D01*
X014118Y010087D01*
X014163Y010064D01*
X014206Y010037D01*
X014246Y010007D01*
X014284Y009974D01*
X014319Y009938D01*
X014352Y009899D01*
X014381Y009858D01*
X014407Y009815D01*
X014430Y009770D01*
X014449Y009723D01*
X014464Y009675D01*
X014476Y009626D01*
X014484Y009576D01*
X014488Y009526D01*
X014488Y009476D01*
X014484Y009426D01*
X014476Y009376D01*
X014464Y009327D01*
X014449Y009279D01*
X014430Y009232D01*
X014407Y009187D01*
X014381Y009144D01*
X014352Y009103D01*
X014319Y009064D01*
X014284Y009028D01*
X014246Y008995D01*
X014206Y008965D01*
X014163Y008938D01*
X014118Y008915D01*
X014072Y008895D01*
X014024Y008878D01*
X013976Y008866D01*
X013926Y008857D01*
X013876Y008852D01*
X013825Y008851D01*
X013775Y008854D01*
X013725Y008861D01*
X013676Y008872D01*
X013628Y008886D01*
X013581Y008904D01*
X013535Y008926D01*
X013491Y008951D01*
X013450Y008980D01*
X013411Y009011D01*
X013374Y009046D01*
X013340Y009083D01*
X013309Y009123D01*
X013281Y009165D01*
X013257Y009209D01*
X013236Y009255D01*
X013219Y009303D01*
X013206Y009351D01*
X013196Y009401D01*
X013190Y009451D01*
X013188Y009501D01*
X017188Y009501D02*
X017190Y009551D01*
X017196Y009601D01*
X017206Y009651D01*
X017219Y009699D01*
X017236Y009747D01*
X017257Y009793D01*
X017281Y009837D01*
X017309Y009879D01*
X017340Y009919D01*
X017374Y009956D01*
X017411Y009991D01*
X017450Y010022D01*
X017491Y010051D01*
X017535Y010076D01*
X017581Y010098D01*
X017628Y010116D01*
X017676Y010130D01*
X017725Y010141D01*
X017775Y010148D01*
X017825Y010151D01*
X017876Y010150D01*
X017926Y010145D01*
X017976Y010136D01*
X018024Y010124D01*
X018072Y010107D01*
X018118Y010087D01*
X018163Y010064D01*
X018206Y010037D01*
X018246Y010007D01*
X018284Y009974D01*
X018319Y009938D01*
X018352Y009899D01*
X018381Y009858D01*
X018407Y009815D01*
X018430Y009770D01*
X018449Y009723D01*
X018464Y009675D01*
X018476Y009626D01*
X018484Y009576D01*
X018488Y009526D01*
X018488Y009476D01*
X018484Y009426D01*
X018476Y009376D01*
X018464Y009327D01*
X018449Y009279D01*
X018430Y009232D01*
X018407Y009187D01*
X018381Y009144D01*
X018352Y009103D01*
X018319Y009064D01*
X018284Y009028D01*
X018246Y008995D01*
X018206Y008965D01*
X018163Y008938D01*
X018118Y008915D01*
X018072Y008895D01*
X018024Y008878D01*
X017976Y008866D01*
X017926Y008857D01*
X017876Y008852D01*
X017825Y008851D01*
X017775Y008854D01*
X017725Y008861D01*
X017676Y008872D01*
X017628Y008886D01*
X017581Y008904D01*
X017535Y008926D01*
X017491Y008951D01*
X017450Y008980D01*
X017411Y009011D01*
X017374Y009046D01*
X017340Y009083D01*
X017309Y009123D01*
X017281Y009165D01*
X017257Y009209D01*
X017236Y009255D01*
X017219Y009303D01*
X017206Y009351D01*
X017196Y009401D01*
X017190Y009451D01*
X017188Y009501D01*
X021188Y009501D02*
X021190Y009551D01*
X021196Y009601D01*
X021206Y009651D01*
X021219Y009699D01*
X021236Y009747D01*
X021257Y009793D01*
X021281Y009837D01*
X021309Y009879D01*
X021340Y009919D01*
X021374Y009956D01*
X021411Y009991D01*
X021450Y010022D01*
X021491Y010051D01*
X021535Y010076D01*
X021581Y010098D01*
X021628Y010116D01*
X021676Y010130D01*
X021725Y010141D01*
X021775Y010148D01*
X021825Y010151D01*
X021876Y010150D01*
X021926Y010145D01*
X021976Y010136D01*
X022024Y010124D01*
X022072Y010107D01*
X022118Y010087D01*
X022163Y010064D01*
X022206Y010037D01*
X022246Y010007D01*
X022284Y009974D01*
X022319Y009938D01*
X022352Y009899D01*
X022381Y009858D01*
X022407Y009815D01*
X022430Y009770D01*
X022449Y009723D01*
X022464Y009675D01*
X022476Y009626D01*
X022484Y009576D01*
X022488Y009526D01*
X022488Y009476D01*
X022484Y009426D01*
X022476Y009376D01*
X022464Y009327D01*
X022449Y009279D01*
X022430Y009232D01*
X022407Y009187D01*
X022381Y009144D01*
X022352Y009103D01*
X022319Y009064D01*
X022284Y009028D01*
X022246Y008995D01*
X022206Y008965D01*
X022163Y008938D01*
X022118Y008915D01*
X022072Y008895D01*
X022024Y008878D01*
X021976Y008866D01*
X021926Y008857D01*
X021876Y008852D01*
X021825Y008851D01*
X021775Y008854D01*
X021725Y008861D01*
X021676Y008872D01*
X021628Y008886D01*
X021581Y008904D01*
X021535Y008926D01*
X021491Y008951D01*
X021450Y008980D01*
X021411Y009011D01*
X021374Y009046D01*
X021340Y009083D01*
X021309Y009123D01*
X021281Y009165D01*
X021257Y009209D01*
X021236Y009255D01*
X021219Y009303D01*
X021206Y009351D01*
X021196Y009401D01*
X021190Y009451D01*
X021188Y009501D01*
X021188Y006501D02*
X021190Y006551D01*
X021196Y006601D01*
X021206Y006651D01*
X021219Y006699D01*
X021236Y006747D01*
X021257Y006793D01*
X021281Y006837D01*
X021309Y006879D01*
X021340Y006919D01*
X021374Y006956D01*
X021411Y006991D01*
X021450Y007022D01*
X021491Y007051D01*
X021535Y007076D01*
X021581Y007098D01*
X021628Y007116D01*
X021676Y007130D01*
X021725Y007141D01*
X021775Y007148D01*
X021825Y007151D01*
X021876Y007150D01*
X021926Y007145D01*
X021976Y007136D01*
X022024Y007124D01*
X022072Y007107D01*
X022118Y007087D01*
X022163Y007064D01*
X022206Y007037D01*
X022246Y007007D01*
X022284Y006974D01*
X022319Y006938D01*
X022352Y006899D01*
X022381Y006858D01*
X022407Y006815D01*
X022430Y006770D01*
X022449Y006723D01*
X022464Y006675D01*
X022476Y006626D01*
X022484Y006576D01*
X022488Y006526D01*
X022488Y006476D01*
X022484Y006426D01*
X022476Y006376D01*
X022464Y006327D01*
X022449Y006279D01*
X022430Y006232D01*
X022407Y006187D01*
X022381Y006144D01*
X022352Y006103D01*
X022319Y006064D01*
X022284Y006028D01*
X022246Y005995D01*
X022206Y005965D01*
X022163Y005938D01*
X022118Y005915D01*
X022072Y005895D01*
X022024Y005878D01*
X021976Y005866D01*
X021926Y005857D01*
X021876Y005852D01*
X021825Y005851D01*
X021775Y005854D01*
X021725Y005861D01*
X021676Y005872D01*
X021628Y005886D01*
X021581Y005904D01*
X021535Y005926D01*
X021491Y005951D01*
X021450Y005980D01*
X021411Y006011D01*
X021374Y006046D01*
X021340Y006083D01*
X021309Y006123D01*
X021281Y006165D01*
X021257Y006209D01*
X021236Y006255D01*
X021219Y006303D01*
X021206Y006351D01*
X021196Y006401D01*
X021190Y006451D01*
X021188Y006501D01*
X017188Y006501D02*
X017190Y006551D01*
X017196Y006601D01*
X017206Y006651D01*
X017219Y006699D01*
X017236Y006747D01*
X017257Y006793D01*
X017281Y006837D01*
X017309Y006879D01*
X017340Y006919D01*
X017374Y006956D01*
X017411Y006991D01*
X017450Y007022D01*
X017491Y007051D01*
X017535Y007076D01*
X017581Y007098D01*
X017628Y007116D01*
X017676Y007130D01*
X017725Y007141D01*
X017775Y007148D01*
X017825Y007151D01*
X017876Y007150D01*
X017926Y007145D01*
X017976Y007136D01*
X018024Y007124D01*
X018072Y007107D01*
X018118Y007087D01*
X018163Y007064D01*
X018206Y007037D01*
X018246Y007007D01*
X018284Y006974D01*
X018319Y006938D01*
X018352Y006899D01*
X018381Y006858D01*
X018407Y006815D01*
X018430Y006770D01*
X018449Y006723D01*
X018464Y006675D01*
X018476Y006626D01*
X018484Y006576D01*
X018488Y006526D01*
X018488Y006476D01*
X018484Y006426D01*
X018476Y006376D01*
X018464Y006327D01*
X018449Y006279D01*
X018430Y006232D01*
X018407Y006187D01*
X018381Y006144D01*
X018352Y006103D01*
X018319Y006064D01*
X018284Y006028D01*
X018246Y005995D01*
X018206Y005965D01*
X018163Y005938D01*
X018118Y005915D01*
X018072Y005895D01*
X018024Y005878D01*
X017976Y005866D01*
X017926Y005857D01*
X017876Y005852D01*
X017825Y005851D01*
X017775Y005854D01*
X017725Y005861D01*
X017676Y005872D01*
X017628Y005886D01*
X017581Y005904D01*
X017535Y005926D01*
X017491Y005951D01*
X017450Y005980D01*
X017411Y006011D01*
X017374Y006046D01*
X017340Y006083D01*
X017309Y006123D01*
X017281Y006165D01*
X017257Y006209D01*
X017236Y006255D01*
X017219Y006303D01*
X017206Y006351D01*
X017196Y006401D01*
X017190Y006451D01*
X017188Y006501D01*
X013188Y006501D02*
X013190Y006551D01*
X013196Y006601D01*
X013206Y006651D01*
X013219Y006699D01*
X013236Y006747D01*
X013257Y006793D01*
X013281Y006837D01*
X013309Y006879D01*
X013340Y006919D01*
X013374Y006956D01*
X013411Y006991D01*
X013450Y007022D01*
X013491Y007051D01*
X013535Y007076D01*
X013581Y007098D01*
X013628Y007116D01*
X013676Y007130D01*
X013725Y007141D01*
X013775Y007148D01*
X013825Y007151D01*
X013876Y007150D01*
X013926Y007145D01*
X013976Y007136D01*
X014024Y007124D01*
X014072Y007107D01*
X014118Y007087D01*
X014163Y007064D01*
X014206Y007037D01*
X014246Y007007D01*
X014284Y006974D01*
X014319Y006938D01*
X014352Y006899D01*
X014381Y006858D01*
X014407Y006815D01*
X014430Y006770D01*
X014449Y006723D01*
X014464Y006675D01*
X014476Y006626D01*
X014484Y006576D01*
X014488Y006526D01*
X014488Y006476D01*
X014484Y006426D01*
X014476Y006376D01*
X014464Y006327D01*
X014449Y006279D01*
X014430Y006232D01*
X014407Y006187D01*
X014381Y006144D01*
X014352Y006103D01*
X014319Y006064D01*
X014284Y006028D01*
X014246Y005995D01*
X014206Y005965D01*
X014163Y005938D01*
X014118Y005915D01*
X014072Y005895D01*
X014024Y005878D01*
X013976Y005866D01*
X013926Y005857D01*
X013876Y005852D01*
X013825Y005851D01*
X013775Y005854D01*
X013725Y005861D01*
X013676Y005872D01*
X013628Y005886D01*
X013581Y005904D01*
X013535Y005926D01*
X013491Y005951D01*
X013450Y005980D01*
X013411Y006011D01*
X013374Y006046D01*
X013340Y006083D01*
X013309Y006123D01*
X013281Y006165D01*
X013257Y006209D01*
X013236Y006255D01*
X013219Y006303D01*
X013206Y006351D01*
X013196Y006401D01*
X013190Y006451D01*
X013188Y006501D01*
X009188Y006501D02*
X009190Y006551D01*
X009196Y006601D01*
X009206Y006651D01*
X009219Y006699D01*
X009236Y006747D01*
X009257Y006793D01*
X009281Y006837D01*
X009309Y006879D01*
X009340Y006919D01*
X009374Y006956D01*
X009411Y006991D01*
X009450Y007022D01*
X009491Y007051D01*
X009535Y007076D01*
X009581Y007098D01*
X009628Y007116D01*
X009676Y007130D01*
X009725Y007141D01*
X009775Y007148D01*
X009825Y007151D01*
X009876Y007150D01*
X009926Y007145D01*
X009976Y007136D01*
X010024Y007124D01*
X010072Y007107D01*
X010118Y007087D01*
X010163Y007064D01*
X010206Y007037D01*
X010246Y007007D01*
X010284Y006974D01*
X010319Y006938D01*
X010352Y006899D01*
X010381Y006858D01*
X010407Y006815D01*
X010430Y006770D01*
X010449Y006723D01*
X010464Y006675D01*
X010476Y006626D01*
X010484Y006576D01*
X010488Y006526D01*
X010488Y006476D01*
X010484Y006426D01*
X010476Y006376D01*
X010464Y006327D01*
X010449Y006279D01*
X010430Y006232D01*
X010407Y006187D01*
X010381Y006144D01*
X010352Y006103D01*
X010319Y006064D01*
X010284Y006028D01*
X010246Y005995D01*
X010206Y005965D01*
X010163Y005938D01*
X010118Y005915D01*
X010072Y005895D01*
X010024Y005878D01*
X009976Y005866D01*
X009926Y005857D01*
X009876Y005852D01*
X009825Y005851D01*
X009775Y005854D01*
X009725Y005861D01*
X009676Y005872D01*
X009628Y005886D01*
X009581Y005904D01*
X009535Y005926D01*
X009491Y005951D01*
X009450Y005980D01*
X009411Y006011D01*
X009374Y006046D01*
X009340Y006083D01*
X009309Y006123D01*
X009281Y006165D01*
X009257Y006209D01*
X009236Y006255D01*
X009219Y006303D01*
X009206Y006351D01*
X009196Y006401D01*
X009190Y006451D01*
X009188Y006501D01*
X009188Y001501D02*
X009190Y001551D01*
X009196Y001601D01*
X009206Y001651D01*
X009219Y001699D01*
X009236Y001747D01*
X009257Y001793D01*
X009281Y001837D01*
X009309Y001879D01*
X009340Y001919D01*
X009374Y001956D01*
X009411Y001991D01*
X009450Y002022D01*
X009491Y002051D01*
X009535Y002076D01*
X009581Y002098D01*
X009628Y002116D01*
X009676Y002130D01*
X009725Y002141D01*
X009775Y002148D01*
X009825Y002151D01*
X009876Y002150D01*
X009926Y002145D01*
X009976Y002136D01*
X010024Y002124D01*
X010072Y002107D01*
X010118Y002087D01*
X010163Y002064D01*
X010206Y002037D01*
X010246Y002007D01*
X010284Y001974D01*
X010319Y001938D01*
X010352Y001899D01*
X010381Y001858D01*
X010407Y001815D01*
X010430Y001770D01*
X010449Y001723D01*
X010464Y001675D01*
X010476Y001626D01*
X010484Y001576D01*
X010488Y001526D01*
X010488Y001476D01*
X010484Y001426D01*
X010476Y001376D01*
X010464Y001327D01*
X010449Y001279D01*
X010430Y001232D01*
X010407Y001187D01*
X010381Y001144D01*
X010352Y001103D01*
X010319Y001064D01*
X010284Y001028D01*
X010246Y000995D01*
X010206Y000965D01*
X010163Y000938D01*
X010118Y000915D01*
X010072Y000895D01*
X010024Y000878D01*
X009976Y000866D01*
X009926Y000857D01*
X009876Y000852D01*
X009825Y000851D01*
X009775Y000854D01*
X009725Y000861D01*
X009676Y000872D01*
X009628Y000886D01*
X009581Y000904D01*
X009535Y000926D01*
X009491Y000951D01*
X009450Y000980D01*
X009411Y001011D01*
X009374Y001046D01*
X009340Y001083D01*
X009309Y001123D01*
X009281Y001165D01*
X009257Y001209D01*
X009236Y001255D01*
X009219Y001303D01*
X009206Y001351D01*
X009196Y001401D01*
X009190Y001451D01*
X009188Y001501D01*
X013188Y001501D02*
X013190Y001551D01*
X013196Y001601D01*
X013206Y001651D01*
X013219Y001699D01*
X013236Y001747D01*
X013257Y001793D01*
X013281Y001837D01*
X013309Y001879D01*
X013340Y001919D01*
X013374Y001956D01*
X013411Y001991D01*
X013450Y002022D01*
X013491Y002051D01*
X013535Y002076D01*
X013581Y002098D01*
X013628Y002116D01*
X013676Y002130D01*
X013725Y002141D01*
X013775Y002148D01*
X013825Y002151D01*
X013876Y002150D01*
X013926Y002145D01*
X013976Y002136D01*
X014024Y002124D01*
X014072Y002107D01*
X014118Y002087D01*
X014163Y002064D01*
X014206Y002037D01*
X014246Y002007D01*
X014284Y001974D01*
X014319Y001938D01*
X014352Y001899D01*
X014381Y001858D01*
X014407Y001815D01*
X014430Y001770D01*
X014449Y001723D01*
X014464Y001675D01*
X014476Y001626D01*
X014484Y001576D01*
X014488Y001526D01*
X014488Y001476D01*
X014484Y001426D01*
X014476Y001376D01*
X014464Y001327D01*
X014449Y001279D01*
X014430Y001232D01*
X014407Y001187D01*
X014381Y001144D01*
X014352Y001103D01*
X014319Y001064D01*
X014284Y001028D01*
X014246Y000995D01*
X014206Y000965D01*
X014163Y000938D01*
X014118Y000915D01*
X014072Y000895D01*
X014024Y000878D01*
X013976Y000866D01*
X013926Y000857D01*
X013876Y000852D01*
X013825Y000851D01*
X013775Y000854D01*
X013725Y000861D01*
X013676Y000872D01*
X013628Y000886D01*
X013581Y000904D01*
X013535Y000926D01*
X013491Y000951D01*
X013450Y000980D01*
X013411Y001011D01*
X013374Y001046D01*
X013340Y001083D01*
X013309Y001123D01*
X013281Y001165D01*
X013257Y001209D01*
X013236Y001255D01*
X013219Y001303D01*
X013206Y001351D01*
X013196Y001401D01*
X013190Y001451D01*
X013188Y001501D01*
X017188Y001501D02*
X017190Y001551D01*
X017196Y001601D01*
X017206Y001651D01*
X017219Y001699D01*
X017236Y001747D01*
X017257Y001793D01*
X017281Y001837D01*
X017309Y001879D01*
X017340Y001919D01*
X017374Y001956D01*
X017411Y001991D01*
X017450Y002022D01*
X017491Y002051D01*
X017535Y002076D01*
X017581Y002098D01*
X017628Y002116D01*
X017676Y002130D01*
X017725Y002141D01*
X017775Y002148D01*
X017825Y002151D01*
X017876Y002150D01*
X017926Y002145D01*
X017976Y002136D01*
X018024Y002124D01*
X018072Y002107D01*
X018118Y002087D01*
X018163Y002064D01*
X018206Y002037D01*
X018246Y002007D01*
X018284Y001974D01*
X018319Y001938D01*
X018352Y001899D01*
X018381Y001858D01*
X018407Y001815D01*
X018430Y001770D01*
X018449Y001723D01*
X018464Y001675D01*
X018476Y001626D01*
X018484Y001576D01*
X018488Y001526D01*
X018488Y001476D01*
X018484Y001426D01*
X018476Y001376D01*
X018464Y001327D01*
X018449Y001279D01*
X018430Y001232D01*
X018407Y001187D01*
X018381Y001144D01*
X018352Y001103D01*
X018319Y001064D01*
X018284Y001028D01*
X018246Y000995D01*
X018206Y000965D01*
X018163Y000938D01*
X018118Y000915D01*
X018072Y000895D01*
X018024Y000878D01*
X017976Y000866D01*
X017926Y000857D01*
X017876Y000852D01*
X017825Y000851D01*
X017775Y000854D01*
X017725Y000861D01*
X017676Y000872D01*
X017628Y000886D01*
X017581Y000904D01*
X017535Y000926D01*
X017491Y000951D01*
X017450Y000980D01*
X017411Y001011D01*
X017374Y001046D01*
X017340Y001083D01*
X017309Y001123D01*
X017281Y001165D01*
X017257Y001209D01*
X017236Y001255D01*
X017219Y001303D01*
X017206Y001351D01*
X017196Y001401D01*
X017190Y001451D01*
X017188Y001501D01*
X021188Y001501D02*
X021190Y001551D01*
X021196Y001601D01*
X021206Y001651D01*
X021219Y001699D01*
X021236Y001747D01*
X021257Y001793D01*
X021281Y001837D01*
X021309Y001879D01*
X021340Y001919D01*
X021374Y001956D01*
X021411Y001991D01*
X021450Y002022D01*
X021491Y002051D01*
X021535Y002076D01*
X021581Y002098D01*
X021628Y002116D01*
X021676Y002130D01*
X021725Y002141D01*
X021775Y002148D01*
X021825Y002151D01*
X021876Y002150D01*
X021926Y002145D01*
X021976Y002136D01*
X022024Y002124D01*
X022072Y002107D01*
X022118Y002087D01*
X022163Y002064D01*
X022206Y002037D01*
X022246Y002007D01*
X022284Y001974D01*
X022319Y001938D01*
X022352Y001899D01*
X022381Y001858D01*
X022407Y001815D01*
X022430Y001770D01*
X022449Y001723D01*
X022464Y001675D01*
X022476Y001626D01*
X022484Y001576D01*
X022488Y001526D01*
X022488Y001476D01*
X022484Y001426D01*
X022476Y001376D01*
X022464Y001327D01*
X022449Y001279D01*
X022430Y001232D01*
X022407Y001187D01*
X022381Y001144D01*
X022352Y001103D01*
X022319Y001064D01*
X022284Y001028D01*
X022246Y000995D01*
X022206Y000965D01*
X022163Y000938D01*
X022118Y000915D01*
X022072Y000895D01*
X022024Y000878D01*
X021976Y000866D01*
X021926Y000857D01*
X021876Y000852D01*
X021825Y000851D01*
X021775Y000854D01*
X021725Y000861D01*
X021676Y000872D01*
X021628Y000886D01*
X021581Y000904D01*
X021535Y000926D01*
X021491Y000951D01*
X021450Y000980D01*
X021411Y001011D01*
X021374Y001046D01*
X021340Y001083D01*
X021309Y001123D01*
X021281Y001165D01*
X021257Y001209D01*
X021236Y001255D01*
X021219Y001303D01*
X021206Y001351D01*
X021196Y001401D01*
X021190Y001451D01*
X021188Y001501D01*
M02*
